SplineFontDB: 3.0
FontName: UbuntuFaust
FullName: Ubuntu Faust
FamilyName: Ubuntu derivative Faust
Weight: Book
Copyright: Copyright 2011 Canonical Ltd.  Licensed under the Ubuntu Font Licence 1.0\nAdditional Glyphs 2017 by Thorsten Vitt
FontLog: "Added combining macron +- anchors at m and e   (-tv)+AAoA-Added angleleft and angleright"
Version: 0.83f1
DefaultBaseFilename: UbuntuFaust
ItalicAngle: 0
UnderlinePosition: -84
UnderlineWidth: 79
Ascent: 800
Descent: 200
InvalidEm: 0
sfntRevision: 0x0000d47b
LayerCount: 2
Layer: 0 1 "Back" 1
Layer: 1 1 "Fore" 0
XUID: [1021 401 780709418 6630884]
FSType: 0
OS2Version: 3
OS2_WeightWidthSlopeOnly: 0
OS2_UseTypoMetrics: 1
CreationTime: 1298466264
ModificationTime: 1492787458
PfmFamily: 17
TTFWeight: 400
TTFWidth: 5
LineGap: 28
VLineGap: 0
Panose: 2 11 5 4 3 6 2 3 2 4
OS2TypoAscent: 776
OS2TypoAOffset: 0
OS2TypoDescent: -185
OS2TypoDOffset: 0
OS2TypoLinegap: 56
OS2WinAscent: 932
OS2WinAOffset: 0
OS2WinDescent: 189
OS2WinDOffset: 0
HheadAscent: 932
HheadAOffset: 0
HheadDescent: -189
HheadDOffset: 0
OS2SubXSize: 700
OS2SubYSize: 650
OS2SubXOff: 0
OS2SubYOff: 140
OS2SupXSize: 700
OS2SupYSize: 650
OS2SupXOff: 0
OS2SupYOff: 477
OS2StrikeYSize: 79
OS2StrikeYPos: 250
OS2Vendor: 'DAMA'
OS2CodePages: 2000009f.56010000
OS2UnicodeRanges: e00002ff.5000205b.00000000.00000000
Lookup: 1 0 0 "'locl' Localized Forms in Latin lookup 0" { "'locl' Localized Forms in Latin lookup 0 subtable"  } ['locl' ('latn' <'AZE ' > ) ]
Lookup: 1 0 0 "'locl' Localized Forms in Latin lookup 1" { "'locl' Localized Forms in Latin lookup 1 subtable"  } ['locl' ('latn' <'TRK ' > ) ]
Lookup: 1 0 0 "'locl' Localized Forms in Latin lookup 2" { "'locl' Localized Forms in Latin lookup 2 subtable"  } ['locl' ('latn' <'CRT ' > ) ]
Lookup: 1 0 0 "'locl' Localized Forms in Cyrillic lookup 3" { "'locl' Localized Forms in Cyrillic lookup 3 subtable"  } ['locl' ('cyrl' <'BGR ' > ) ]

StartChar: .notdef
Encoding: 65536 -1 0
Width: 500
Flags: W
LayerCount: 2
Fore
SplineSet
50 0 m 1,0,-1
 50 750 l 1,1,-1
 450 750 l 1,2,-1
 450 0 l 1,3,-1
 50 0 l 1,0,-1
400 50 m 1,4,-1
 400 700 l 1,5,-1
 100 700 l 1,6,-1
 100 50 l 1,7,-1
 400 50 l 1,4,-1
EndSplineSet
EndChar

StartChar: exclam
Encoding: 33 33 4
Width: 276
Flags: W
LayerCount: 2
Fore
SplineSet
188 505 m 2,0,1
 188 421 188 421 182 352.5 c 128,-1,2
 176 284 176 284 167 216 c 1,3,-1
 109 216 l 1,4,5
 100 284 100 284 94 352.5 c 128,-1,6
 88 421 88 421 88 505 c 2,7,-1
 88 693 l 1,8,-1
 188 693 l 1,9,-1
 188 505 l 2,0,1
205 54 m 256,10,11
 205 27 205 27 187 7 c 128,-1,12
 169 -13 169 -13 138 -13 c 256,13,14
 107 -13 107 -13 89 7 c 128,-1,15
 71 27 71 27 71 54 c 256,16,17
 71 81 71 81 89 101 c 128,-1,18
 107 121 107 121 138 121 c 256,19,20
 169 121 169 121 187 101 c 128,-1,21
 205 81 205 81 205 54 c 256,10,11
EndSplineSet
EndChar

StartChar: numbersign
Encoding: 35 35 6
Width: 667
Flags: W
LayerCount: 2
Fore
SplineSet
284 510 m 1,0,-1
 446 510 l 1,1,-1
 481 693 l 1,2,-1
 565 693 l 1,3,-1
 530 510 l 1,4,-1
 618 510 l 1,5,-1
 618 436 l 1,6,-1
 515 436 l 1,7,-1
 481 257 l 1,8,-1
 618 257 l 1,9,-1
 618 183 l 1,10,-1
 467 183 l 1,11,-1
 432 0 l 1,12,-1
 348 0 l 1,13,-1
 383 183 l 1,14,-1
 221 183 l 1,15,-1
 186 0 l 1,16,-1
 102 0 l 1,17,-1
 137 183 l 1,18,-1
 49 183 l 1,19,-1
 49 257 l 1,20,-1
 151 257 l 1,21,-1
 185 436 l 1,22,-1
 49 436 l 1,23,-1
 49 510 l 1,24,-1
 200 510 l 1,25,-1
 235 693 l 1,26,-1
 319 693 l 1,27,-1
 284 510 l 1,0,-1
235 257 m 1,28,-1
 397 257 l 1,29,-1
 432 436 l 1,30,-1
 270 436 l 1,31,-1
 235 257 l 1,28,-1
EndSplineSet
EndChar

StartChar: dollar
Encoding: 36 36 7
Width: 564
Flags: W
LayerCount: 2
Fore
SplineSet
262 95 m 0,0,1
 339 95 339 95 370 119.5 c 128,-1,2
 401 144 401 144 401 182 c 0,3,4
 401 210 401 210 387.5 230 c 128,-1,5
 374 250 374 250 351.5 265 c 128,-1,6
 329 280 329 280 299.5 292 c 128,-1,7
 270 304 270 304 239 315 c 0,8,9
 209 326 209 326 179.5 339.5 c 128,-1,10
 150 353 150 353 127 372.5 c 128,-1,11
 104 392 104 392 89.5 419.5 c 128,-1,12
 75 447 75 447 75 487 c 0,13,14
 75 558 75 558 117.5 603.5 c 128,-1,15
 160 649 160 649 241 661 c 1,16,-1
 241 776 l 1,17,-1
 324 776 l 1,18,-1
 324 664 l 1,19,20
 368 662 368 662 406 653 c 128,-1,21
 444 644 444 644 466 636 c 1,22,-1
 447 558 l 1,23,24
 423 567 423 567 387 576.5 c 128,-1,25
 351 586 351 586 297 586 c 0,26,27
 237 586 237 586 204.5 563 c 128,-1,28
 172 540 172 540 172 498 c 0,29,30
 172 475 172 475 181.5 459 c 128,-1,31
 191 443 191 443 209 430.5 c 128,-1,32
 227 418 227 418 251.5 408 c 128,-1,33
 276 398 276 398 306 387 c 0,34,35
 345 372 345 372 380 356 c 128,-1,36
 415 340 415 340 441.5 317.5 c 128,-1,37
 468 295 468 295 484 264 c 128,-1,38
 500 233 500 233 500 189 c 0,39,40
 500 118 500 118 457 74.5 c 128,-1,41
 414 31 414 31 324 20 c 1,42,-1
 324 -109 l 1,43,-1
 241 -109 l 1,44,-1
 241 17 l 1,45,46
 171 19 171 19 127 32.5 c 128,-1,47
 83 46 83 46 61 58 c 1,48,-1
 86 133 l 1,49,50
 116 119 116 119 158 107 c 128,-1,51
 200 95 200 95 262 95 c 0,0,1
EndSplineSet
EndChar

StartChar: percent
Encoding: 37 37 8
Width: 858
Flags: W
LayerCount: 2
Fore
SplineSet
50 524 m 256,0,1
 50 569 50 569 62 603 c 128,-1,2
 74 637 74 637 95.5 660.5 c 128,-1,3
 117 684 117 684 146 696 c 128,-1,4
 175 708 175 708 209 708 c 256,5,6
 243 708 243 708 272 696 c 128,-1,7
 301 684 301 684 322.5 660.5 c 128,-1,8
 344 637 344 637 356 603 c 128,-1,9
 368 569 368 569 368 524 c 256,10,11
 368 479 368 479 356 445 c 128,-1,12
 344 411 344 411 322.5 387.5 c 128,-1,13
 301 364 301 364 272 352 c 128,-1,14
 243 340 243 340 209 340 c 256,15,16
 175 340 175 340 146 352 c 128,-1,17
 117 364 117 364 95.5 387.5 c 128,-1,18
 74 411 74 411 62 445 c 128,-1,19
 50 479 50 479 50 524 c 256,0,1
290 524 m 256,20,21
 290 578 290 578 269 608.5 c 128,-1,22
 248 639 248 639 209 639 c 256,23,24
 170 639 170 639 149 608.5 c 128,-1,25
 128 578 128 578 128 524 c 256,26,27
 128 470 128 470 149 439.5 c 128,-1,28
 170 409 170 409 209 409 c 256,29,30
 248 409 248 409 269 439.5 c 128,-1,31
 290 470 290 470 290 524 c 256,20,21
490 169 m 256,32,33
 490 214 490 214 502 248 c 128,-1,34
 514 282 514 282 535.5 305.5 c 128,-1,35
 557 329 557 329 586 341 c 128,-1,36
 615 353 615 353 649 353 c 256,37,38
 683 353 683 353 712 341 c 128,-1,39
 741 329 741 329 762.5 305.5 c 128,-1,40
 784 282 784 282 796 248 c 128,-1,41
 808 214 808 214 808 169 c 256,42,43
 808 124 808 124 796 90 c 128,-1,44
 784 56 784 56 762.5 32.5 c 128,-1,45
 741 9 741 9 712 -3 c 128,-1,46
 683 -15 683 -15 649 -15 c 256,47,48
 615 -15 615 -15 586 -3 c 128,-1,49
 557 9 557 9 535.5 32.5 c 128,-1,50
 514 56 514 56 502 90 c 128,-1,51
 490 124 490 124 490 169 c 256,32,33
730 169 m 256,52,53
 730 223 730 223 709 253.5 c 128,-1,54
 688 284 688 284 649 284 c 256,55,56
 610 284 610 284 589 253.5 c 128,-1,57
 568 223 568 223 568 169 c 256,58,59
 568 115 568 115 589 84.5 c 128,-1,60
 610 54 610 54 649 54 c 256,61,62
 688 54 688 54 709 84.5 c 128,-1,63
 730 115 730 115 730 169 c 256,52,53
670 693 m 1,64,-1
 279 0 l 1,65,-1
 188 0 l 1,66,-1
 579 693 l 1,67,-1
 670 693 l 1,64,-1
EndSplineSet
EndChar

StartChar: ampersand
Encoding: 38 38 9
Width: 666
Flags: W
LayerCount: 2
Fore
SplineSet
46 184 m 0,0,1
 46 223 46 223 58 253.5 c 128,-1,2
 70 284 70 284 90.5 308.5 c 128,-1,3
 111 333 111 333 138 351.5 c 128,-1,4
 165 370 165 370 194 384 c 1,5,6
 120 458 120 458 120 537 c 0,7,8
 120 577 120 577 133.5 609 c 128,-1,9
 147 641 147 641 170.5 663 c 128,-1,10
 194 685 194 685 226.5 697 c 128,-1,11
 259 709 259 709 298 709 c 0,12,13
 338 709 338 709 369.5 697 c 128,-1,14
 401 685 401 685 422.5 665 c 128,-1,15
 444 645 444 645 455 617 c 128,-1,16
 466 589 466 589 466 558 c 0,17,18
 466 523 466 523 454.5 495 c 128,-1,19
 443 467 443 467 423.5 444 c 128,-1,20
 404 421 404 421 379 402 c 128,-1,21
 354 383 354 383 326 368 c 1,22,-1
 488 203 l 1,23,24
 522 266 522 266 532 343 c 1,25,-1
 609 333 l 1,26,27
 605 292 605 292 588.5 243.5 c 128,-1,28
 572 195 572 195 542 147 c 1,29,30
 577 109 577 109 606.5 72 c 128,-1,31
 636 35 636 35 655 0 c 1,32,-1
 557 0 l 1,33,34
 545 20 545 20 527.5 41 c 128,-1,35
 510 62 510 62 491 83 c 1,36,37
 450 42 450 42 396 16.5 c 128,-1,38
 342 -9 342 -9 272 -9 c 0,39,40
 207 -9 207 -9 164 9.5 c 128,-1,41
 121 28 121 28 94.5 56.5 c 128,-1,42
 68 85 68 85 57 119 c 128,-1,43
 46 153 46 153 46 184 c 0,0,1
139 186 m 0,44,45
 139 168 139 168 146 147 c 128,-1,46
 153 126 153 126 169 108.5 c 128,-1,47
 185 91 185 91 210.5 79.5 c 128,-1,48
 236 68 236 68 274 68 c 0,49,50
 323 68 323 68 364.5 86 c 128,-1,51
 406 104 406 104 438 137 c 1,52,-1
 243 334 l 1,53,54
 225 325 225 325 206.5 313 c 128,-1,55
 188 301 188 301 173 283.5 c 128,-1,56
 158 266 158 266 148.5 242 c 128,-1,57
 139 218 139 218 139 186 c 0,44,45
382 555 m 0,58,59
 382 589 382 589 359.5 612.5 c 128,-1,60
 337 636 337 636 298 636 c 0,61,62
 254 636 254 636 230.5 609.5 c 128,-1,63
 207 583 207 583 207 544 c 0,64,65
 207 479 207 479 275 417 c 1,66,67
 297 428 297 428 316.5 441 c 128,-1,68
 336 454 336 454 350.5 471 c 128,-1,69
 365 488 365 488 373.5 508.5 c 128,-1,70
 382 529 382 529 382 555 c 0,58,59
EndSplineSet
EndChar

StartChar: quotesingle
Encoding: 39 39 10
Width: 241
Flags: W
LayerCount: 2
Fore
SplineSet
169 760 m 1,0,-1
 169 710 l 2,1,2
 169 661 169 661 163 607.5 c 128,-1,3
 157 554 157 554 148 501 c 1,4,-1
 93 501 l 1,5,6
 84 554 84 554 78 607.5 c 128,-1,7
 72 661 72 661 72 711 c 2,8,-1
 72 760 l 1,9,-1
 169 760 l 1,0,-1
EndSplineSet
EndChar

StartChar: parenleft
Encoding: 40 40 11
Width: 324
Flags: W
LayerCount: 2
Fore
SplineSet
171 299 m 256,0,1
 171 171 171 171 208 62 c 128,-1,2
 245 -47 245 -47 317 -140 c 1,3,-1
 251 -185 l 1,4,5
 173 -90 173 -90 125.5 33.5 c 128,-1,6
 78 157 78 157 78 299 c 256,7,8
 78 441 78 441 125.5 564.5 c 128,-1,9
 173 688 173 688 251 783 c 1,10,-1
 317 738 l 1,11,12
 245 645 245 645 208 536 c 128,-1,13
 171 427 171 427 171 299 c 256,0,1
EndSplineSet
Substitution2: "'case' Case-Sensitive Forms lookup 18 subtable" Parenleft
EndChar

StartChar: parenright
Encoding: 41 41 12
Width: 324
Flags: W
LayerCount: 2
Fore
SplineSet
153 299 m 256,0,1
 153 427 153 427 116 536 c 128,-1,2
 79 645 79 645 7 738 c 1,3,-1
 73 783 l 1,4,5
 151 688 151 688 198.5 564.5 c 128,-1,6
 246 441 246 441 246 299 c 256,7,8
 246 157 246 157 198.5 33.5 c 128,-1,9
 151 -90 151 -90 73 -185 c 1,10,-1
 7 -140 l 1,11,12
 79 -47 79 -47 116 62 c 128,-1,13
 153 171 153 171 153 299 c 256,0,1
EndSplineSet
Substitution2: "'case' Case-Sensitive Forms lookup 18 subtable" Parenright
EndChar

StartChar: asterisk
Encoding: 42 42 13
Width: 480
Flags: W
LayerCount: 2
Fore
SplineSet
285 685 m 2,0,1
 285 643 285 643 277.5 604.5 c 128,-1,2
 270 566 270 566 262 525 c 1,3,4
 298 545 298 545 333 564 c 128,-1,5
 368 583 368 583 409 597 c 2,6,-1
 415 599 l 1,7,-1
 443 515 l 1,8,-1
 435 512 l 2,9,10
 395 497 395 497 355 492.5 c 128,-1,11
 315 488 315 488 273 485 c 1,12,13
 306 457 306 457 335 430.5 c 128,-1,14
 364 404 364 404 389 369 c 2,15,-1
 394 362 l 1,16,-1
 321 311 l 1,17,-1
 317 317 l 2,18,19
 293 353 293 353 275.5 388.5 c 128,-1,20
 258 424 258 424 240 462 c 1,21,22
 222 424 222 424 204.5 388.5 c 128,-1,23
 187 353 187 353 163 317 c 2,24,-1
 159 311 l 1,25,-1
 86 362 l 1,26,-1
 91 369 l 2,27,28
 116 404 116 404 145 430.5 c 128,-1,29
 174 457 174 457 207 485 c 1,30,31
 165 488 165 488 125 492.5 c 128,-1,32
 85 497 85 497 45 512 c 2,33,-1
 37 515 l 1,34,-1
 65 599 l 1,35,-1
 71 597 l 2,36,37
 112 583 112 583 147 564 c 128,-1,38
 182 545 182 545 218 525 c 1,39,40
 210 566 210 566 202.5 604.5 c 128,-1,41
 195 643 195 643 195 685 c 2,42,-1
 195 693 l 1,43,-1
 285 693 l 1,44,-1
 285 685 l 2,0,1
EndSplineSet
EndChar

StartChar: plus
Encoding: 43 43 14
Width: 564
Flags: W
LayerCount: 2
Fore
SplineSet
53 339 m 1,0,-1
 242 339 l 1,1,-1
 242 545 l 1,2,-1
 322 545 l 1,3,-1
 322 339 l 1,4,-1
 511 339 l 1,5,-1
 511 260 l 1,6,-1
 322 260 l 1,7,-1
 322 53 l 1,8,-1
 242 53 l 1,9,-1
 242 260 l 1,10,-1
 53 260 l 1,11,-1
 53 339 l 1,0,-1
EndSplineSet
EndChar

StartChar: comma
Encoding: 44 44 15
Width: 246
Flags: W
LayerCount: 2
Fore
SplineSet
178 114 m 1,0,1
 179 106 179 106 179 98.5 c 128,-1,2
 179 91 179 91 179 83 c 0,3,4
 179 20 179 20 160.5 -41.5 c 128,-1,5
 142 -103 142 -103 110 -159 c 1,6,-1
 38 -136 l 1,7,8
 63 -85 63 -85 71 -32.5 c 128,-1,9
 79 20 79 20 79 66 c 0,10,11
 79 79 79 79 78.5 91 c 128,-1,12
 78 103 78 103 77 114 c 1,13,-1
 178 114 l 1,0,1
EndSplineSet
EndChar

StartChar: hyphen
Encoding: 45 45 16
Width: 299
Flags: W
LayerCount: 2
Fore
SplineSet
26 343 m 1,0,-1
 273 343 l 1,1,-1
 273 256 l 1,2,-1
 26 256 l 1,3,-1
 26 343 l 1,0,-1
EndSplineSet
Substitution2: "'case' Case-Sensitive Forms lookup 18 subtable" Hyphen
EndChar

StartChar: period
Encoding: 46 46 17
Width: 246
Flags: W
LayerCount: 2
Fore
SplineSet
190 54 m 256,0,1
 190 27 190 27 172 7 c 128,-1,2
 154 -13 154 -13 123 -13 c 256,3,4
 92 -13 92 -13 74 7 c 128,-1,5
 56 27 56 27 56 54 c 256,6,7
 56 81 56 81 74 101 c 128,-1,8
 92 121 92 121 123 121 c 256,9,10
 154 121 154 121 172 101 c 128,-1,11
 190 81 190 81 190 54 c 256,0,1
EndSplineSet
EndChar

StartChar: slash
Encoding: 47 47 18
Width: 384
Flags: W
LayerCount: 2
Fore
SplineSet
71 -185 m 1,0,-1
 -24 -185 l 1,1,-1
 315 783 l 1,2,-1
 408 783 l 1,3,-1
 71 -185 l 1,0,-1
EndSplineSet
Substitution2: "'case' Case-Sensitive Forms lookup 18 subtable" Slash
Substitution2: "'frac' Diagonal Fractions lookup 14 subtable" fraction
EndChar

StartChar: zero
Encoding: 48 48 19
Width: 564
Flags: W
LayerCount: 2
Fore
SplineSet
50 347 m 256,0,1
 50 521 50 521 111.5 615 c 128,-1,2
 173 709 173 709 282 709 c 256,3,4
 391 709 391 709 452.5 615 c 128,-1,5
 514 521 514 521 514 347 c 256,6,7
 514 173 514 173 452.5 79 c 128,-1,8
 391 -15 391 -15 282 -15 c 256,9,10
 173 -15 173 -15 111.5 79 c 128,-1,11
 50 173 50 173 50 347 c 256,0,1
416 347 m 256,12,13
 416 404 416 404 409.5 455 c 128,-1,14
 403 506 403 506 387.5 544 c 128,-1,15
 372 582 372 582 346 604.5 c 128,-1,16
 320 627 320 627 282 627 c 256,17,18
 244 627 244 627 218 604.5 c 128,-1,19
 192 582 192 582 176.5 544 c 128,-1,20
 161 506 161 506 154.5 455 c 128,-1,21
 148 404 148 404 148 347 c 256,22,23
 148 290 148 290 154.5 239 c 128,-1,24
 161 188 161 188 176.5 150 c 128,-1,25
 192 112 192 112 218 89.5 c 128,-1,26
 244 67 244 67 282 67 c 256,27,28
 320 67 320 67 346 89.5 c 128,-1,29
 372 112 372 112 387.5 150 c 128,-1,30
 403 188 403 188 409.5 239 c 128,-1,31
 416 290 416 290 416 347 c 256,12,13
EndSplineSet
Substitution2: "'frac' Diagonal Fractions lookup 16 subtable" zerosuperior
Substitution2: "'sinf' Scientific Inferiors lookup 13 subtable" zero.sinf
Substitution2: "'subs' Subscript lookup 12 subtable" zero.sinf
Substitution2: "'sups' Superscript lookup 11 subtable" zero.sups
Substitution2: "'dnom' Denominators lookup 10 subtable" zeroinferior
Substitution2: "'numr' Numerators lookup 8 subtable" zerosuperior
Substitution2: "'pnum' Proportional Numbers lookup 6 subtable" zero.alt
EndChar

StartChar: one
Encoding: 49 49 20
Width: 564
Flags: W
LayerCount: 2
Fore
SplineSet
93 550 m 1,0,1
 150 572 150 572 204 606.5 c 128,-1,2
 258 641 258 641 303 693 c 1,3,-1
 369 693 l 1,4,-1
 369 0 l 1,5,-1
 276 0 l 1,6,-1
 276 564 l 1,7,8
 264 553 264 553 246.5 541 c 128,-1,9
 229 529 229 529 208.5 518 c 128,-1,10
 188 507 188 507 165.5 497 c 128,-1,11
 143 487 143 487 122 480 c 1,12,-1
 93 550 l 1,0,1
EndSplineSet
Substitution2: "'frac' Diagonal Fractions lookup 16 subtable" onesuperior
Substitution2: "'sinf' Scientific Inferiors lookup 13 subtable" one.sinf
Substitution2: "'subs' Subscript lookup 12 subtable" one.sinf
Substitution2: "'sups' Superscript lookup 11 subtable" one.sups
Substitution2: "'dnom' Denominators lookup 10 subtable" oneinferior
Substitution2: "'numr' Numerators lookup 8 subtable" onesuperior
Substitution2: "'pnum' Proportional Numbers lookup 6 subtable" one.alt
EndChar

StartChar: two
Encoding: 50 50 21
Width: 564
Flags: W
LayerCount: 2
Fore
SplineSet
467 516 m 0,0,1
 467 480 467 480 452.5 446.5 c 128,-1,2
 438 413 438 413 414 380.5 c 128,-1,3
 390 348 390 348 360 316.5 c 128,-1,4
 330 285 330 285 300 255 c 0,5,6
 283 238 283 238 260.5 215 c 128,-1,7
 238 192 238 192 218 167 c 128,-1,8
 198 142 198 142 184.5 119 c 128,-1,9
 171 96 171 96 171 79 c 1,10,-1
 490 79 l 1,11,-1
 490 0 l 1,12,-1
 70 0 l 1,13,14
 69 6 69 6 69 12 c 128,-1,15
 69 18 69 18 69 23 c 0,16,17
 69 70 69 70 84.5 110.5 c 128,-1,18
 100 151 100 151 125 187 c 128,-1,19
 150 223 150 223 181 255 c 128,-1,20
 212 287 212 287 242 317 c 0,21,22
 267 341 267 341 289.5 364.5 c 128,-1,23
 312 388 312 388 329.5 411.5 c 128,-1,24
 347 435 347 435 357.5 460 c 128,-1,25
 368 485 368 485 368 513 c 0,26,27
 368 543 368 543 358.5 564 c 128,-1,28
 349 585 349 585 333 599 c 128,-1,29
 317 613 317 613 295.5 619.5 c 128,-1,30
 274 626 274 626 250 626 c 0,31,32
 221 626 221 626 197 618 c 128,-1,33
 173 610 173 610 154 599.5 c 128,-1,34
 135 589 135 589 122 577.5 c 128,-1,35
 109 566 109 566 102 560 c 1,36,-1
 56 626 l 1,37,38
 65 636 65 636 83 650.5 c 128,-1,39
 101 665 101 665 126 678 c 128,-1,40
 151 691 151 691 182 700 c 128,-1,41
 213 709 213 709 249 709 c 0,42,43
 358 709 358 709 412.5 658.5 c 128,-1,44
 467 608 467 608 467 516 c 0,0,1
EndSplineSet
Substitution2: "'frac' Diagonal Fractions lookup 16 subtable" twosuperior
Substitution2: "'sinf' Scientific Inferiors lookup 13 subtable" two.sinf
Substitution2: "'subs' Subscript lookup 12 subtable" two.sinf
Substitution2: "'sups' Superscript lookup 11 subtable" two.sups
Substitution2: "'dnom' Denominators lookup 10 subtable" twoinferior
Substitution2: "'numr' Numerators lookup 8 subtable" twosuperior
Substitution2: "'pnum' Proportional Numbers lookup 6 subtable" two.alt
EndChar

StartChar: three
Encoding: 51 51 22
Width: 564
Flags: W
LayerCount: 2
Fore
SplineSet
226 68 m 0,0,1
 315 68 315 68 353.5 103 c 128,-1,2
 392 138 392 138 392 197 c 0,3,4
 392 235 392 235 376 261 c 128,-1,5
 360 287 360 287 334 302.5 c 128,-1,6
 308 318 308 318 273.5 324.5 c 128,-1,7
 239 331 239 331 203 331 c 2,8,-1
 179 331 l 1,9,-1
 179 407 l 1,10,-1
 212 407 l 2,11,12
 237 407 237 407 263.5 412 c 128,-1,13
 290 417 290 417 312 430 c 128,-1,14
 334 443 334 443 348 465.5 c 128,-1,15
 362 488 362 488 362 522 c 0,16,17
 362 550 362 550 352 570 c 128,-1,18
 342 590 342 590 325.5 603 c 128,-1,19
 309 616 309 616 287.5 621.5 c 128,-1,20
 266 627 266 627 242 627 c 0,21,22
 194 627 194 627 160.5 613 c 128,-1,23
 127 599 127 599 104 584 c 1,24,-1
 68 655 l 1,25,26
 80 663 80 663 98.5 672.5 c 128,-1,27
 117 682 117 682 140 690 c 128,-1,28
 163 698 163 698 189.5 703.5 c 128,-1,29
 216 709 216 709 245 709 c 0,30,31
 300 709 300 709 340 695.5 c 128,-1,32
 380 682 380 682 406 657.5 c 128,-1,33
 432 633 432 633 445 599.5 c 128,-1,34
 458 566 458 566 458 527 c 0,35,36
 458 473 458 473 427 434.5 c 128,-1,37
 396 396 396 396 352 376 c 1,38,39
 379 368 379 368 404 353 c 128,-1,40
 429 338 429 338 447.5 315 c 128,-1,41
 466 292 466 292 477.5 262 c 128,-1,42
 489 232 489 232 489 195 c 0,43,44
 489 150 489 150 473.5 111.5 c 128,-1,45
 458 73 458 73 425.5 45 c 128,-1,46
 393 17 393 17 344 1 c 128,-1,47
 295 -15 295 -15 228 -15 c 0,48,49
 202 -15 202 -15 174.5 -11 c 128,-1,50
 147 -7 147 -7 123 -1 c 128,-1,51
 99 5 99 5 81 11 c 128,-1,52
 63 17 63 17 55 21 c 1,53,-1
 73 102 l 1,54,55
 90 94 90 94 129.5 81 c 128,-1,56
 169 68 169 68 226 68 c 0,0,1
EndSplineSet
Substitution2: "'frac' Diagonal Fractions lookup 16 subtable" threesuperior
Substitution2: "'sinf' Scientific Inferiors lookup 13 subtable" three.sinf
Substitution2: "'subs' Subscript lookup 12 subtable" three.sinf
Substitution2: "'sups' Superscript lookup 11 subtable" three.sups
Substitution2: "'dnom' Denominators lookup 10 subtable" threeinferior
Substitution2: "'numr' Numerators lookup 8 subtable" threesuperior
Substitution2: "'pnum' Proportional Numbers lookup 6 subtable" three.alt
EndChar

StartChar: four
Encoding: 52 52 23
Width: 564
Flags: W
LayerCount: 2
Fore
SplineSet
40 240 m 1,0,1
 59 284 59 284 92 342.5 c 128,-1,2
 125 401 125 401 166.5 463 c 128,-1,3
 208 525 208 525 255.5 585 c 128,-1,4
 303 645 303 645 351 693 c 1,5,-1
 440 693 l 1,6,-1
 440 253 l 1,7,-1
 522 253 l 1,8,-1
 522 177 l 1,9,-1
 440 177 l 1,10,-1
 440 0 l 1,11,-1
 350 0 l 1,12,-1
 350 177 l 1,13,-1
 40 177 l 1,14,-1
 40 240 l 1,0,1
350 583 m 1,15,16
 320 551 320 551 289.5 511.5 c 128,-1,17
 259 472 259 472 230 429 c 128,-1,18
 201 386 201 386 175.5 341 c 128,-1,19
 150 296 150 296 130 253 c 1,20,-1
 350 253 l 1,21,-1
 350 583 l 1,15,16
EndSplineSet
Substitution2: "'frac' Diagonal Fractions lookup 16 subtable" foursuperior
Substitution2: "'sinf' Scientific Inferiors lookup 13 subtable" four.sinf
Substitution2: "'subs' Subscript lookup 12 subtable" four.sinf
Substitution2: "'sups' Superscript lookup 11 subtable" four.sups
Substitution2: "'dnom' Denominators lookup 10 subtable" fourinferior
Substitution2: "'numr' Numerators lookup 8 subtable" foursuperior
Substitution2: "'pnum' Proportional Numbers lookup 6 subtable" four.alt
EndChar

StartChar: five
Encoding: 53 53 24
Width: 564
Flags: W
LayerCount: 2
Fore
SplineSet
199 426 m 1,0,1
 350 420 350 420 420.5 360 c 128,-1,2
 491 300 491 300 491 197 c 0,3,4
 491 151 491 151 475.5 112 c 128,-1,5
 460 73 460 73 428.5 45 c 128,-1,6
 397 17 397 17 349 1 c 128,-1,7
 301 -15 301 -15 235 -15 c 0,8,9
 209 -15 209 -15 182 -11 c 128,-1,10
 155 -7 155 -7 132 -1 c 128,-1,11
 109 5 109 5 91 11 c 128,-1,12
 73 17 73 17 65 21 c 1,13,-1
 83 102 l 1,14,15
 100 94 100 94 138.5 81 c 128,-1,16
 177 68 177 68 233 68 c 0,17,18
 278 68 278 68 308.5 78 c 128,-1,19
 339 88 339 88 358 105 c 128,-1,20
 377 122 377 122 385.5 144.5 c 128,-1,21
 394 167 394 167 394 192 c 0,22,23
 394 230 394 230 381 259.5 c 128,-1,24
 368 289 368 289 335 309 c 128,-1,25
 302 329 302 329 247 339.5 c 128,-1,26
 192 350 192 350 108 350 c 1,27,28
 114 399 114 399 117.5 442 c 128,-1,29
 121 485 121 485 124 526 c 128,-1,30
 127 567 127 567 129 607.5 c 128,-1,31
 131 648 131 648 133 693 c 1,32,-1
 467 693 l 1,33,-1
 467 614 l 1,34,-1
 214 614 l 1,35,36
 213 599 213 599 211 573.5 c 128,-1,37
 209 548 209 548 207 520.5 c 128,-1,38
 205 493 205 493 203 467 c 128,-1,39
 201 441 201 441 199 426 c 1,0,1
EndSplineSet
Substitution2: "'frac' Diagonal Fractions lookup 16 subtable" fivesuperior
Substitution2: "'sinf' Scientific Inferiors lookup 13 subtable" five.sinf
Substitution2: "'subs' Subscript lookup 12 subtable" five.sinf
Substitution2: "'sups' Superscript lookup 11 subtable" five.sups
Substitution2: "'dnom' Denominators lookup 10 subtable" fiveinferior
Substitution2: "'numr' Numerators lookup 8 subtable" fivesuperior
Substitution2: "'pnum' Proportional Numbers lookup 6 subtable" five.alt
EndChar

StartChar: six
Encoding: 54 54 25
Width: 564
Flags: W
LayerCount: 2
Fore
SplineSet
63 278 m 0,0,1
 63 379 63 379 91 456.5 c 128,-1,2
 119 534 119 534 170.5 587 c 128,-1,3
 222 640 222 640 295.5 667.5 c 128,-1,4
 369 695 369 695 461 696 c 1,5,-1
 468 618 l 1,6,7
 409 617 409 617 360.5 605 c 128,-1,8
 312 593 312 593 274 567 c 128,-1,9
 236 541 236 541 210 499.5 c 128,-1,10
 184 458 184 458 171 397 c 1,11,12
 197 409 197 409 229.5 417 c 128,-1,13
 262 425 262 425 297 425 c 0,14,15
 356 425 356 425 397 407 c 128,-1,16
 438 389 438 389 464 359.5 c 128,-1,17
 490 330 490 330 501.5 291.5 c 128,-1,18
 513 253 513 253 513 211 c 0,19,20
 513 173 513 173 500 133 c 128,-1,21
 487 93 487 93 460.5 60 c 128,-1,22
 434 27 434 27 393 6 c 128,-1,23
 352 -15 352 -15 296 -15 c 0,24,25
 182 -15 182 -15 122.5 63 c 128,-1,26
 63 141 63 141 63 278 c 0,0,1
287 349 m 0,27,28
 252 349 252 349 222 342.5 c 128,-1,29
 192 336 192 336 162 323 c 1,30,31
 161 312 161 312 160.5 300.5 c 128,-1,32
 160 289 160 289 160 278 c 0,33,34
 160 234 160 234 166 195 c 128,-1,35
 172 156 172 156 187.5 126.5 c 128,-1,36
 203 97 203 97 229 79.5 c 128,-1,37
 255 62 255 62 295 62 c 0,38,39
 328 62 328 62 351 76 c 128,-1,40
 374 90 374 90 389 112 c 128,-1,41
 404 134 404 134 410.5 159.5 c 128,-1,42
 417 185 417 185 417 209 c 0,43,44
 417 277 417 277 384.5 313 c 128,-1,45
 352 349 352 349 287 349 c 0,27,28
EndSplineSet
Substitution2: "'frac' Diagonal Fractions lookup 16 subtable" sixsuperior
Substitution2: "'sinf' Scientific Inferiors lookup 13 subtable" six.sinf
Substitution2: "'subs' Subscript lookup 12 subtable" six.sinf
Substitution2: "'sups' Superscript lookup 11 subtable" six.sups
Substitution2: "'dnom' Denominators lookup 10 subtable" sixinferior
Substitution2: "'numr' Numerators lookup 8 subtable" sixsuperior
Substitution2: "'pnum' Proportional Numbers lookup 6 subtable" six.alt
EndChar

StartChar: seven
Encoding: 55 55 26
Width: 564
Flags: W
LayerCount: 2
Fore
SplineSet
163 0 m 1,0,1
 169 80 169 80 191.5 168.5 c 128,-1,2
 214 257 214 257 247 340.5 c 128,-1,3
 280 424 280 424 319.5 495.5 c 128,-1,4
 359 567 359 567 397 612 c 1,5,-1
 60 612 l 1,6,-1
 60 693 l 1,7,-1
 501 693 l 1,8,-1
 501 616 l 1,9,10
 468 578 468 578 428 511.5 c 128,-1,11
 388 445 388 445 352.5 362.5 c 128,-1,12
 317 280 317 280 291.5 186.5 c 128,-1,13
 266 93 266 93 260 0 c 1,14,-1
 163 0 l 1,0,1
EndSplineSet
Substitution2: "'frac' Diagonal Fractions lookup 16 subtable" sevensuperior
Substitution2: "'sinf' Scientific Inferiors lookup 13 subtable" seven.sinf
Substitution2: "'subs' Subscript lookup 12 subtable" seven.sinf
Substitution2: "'sups' Superscript lookup 11 subtable" seven.sups
Substitution2: "'dnom' Denominators lookup 10 subtable" seveninferior
Substitution2: "'numr' Numerators lookup 8 subtable" sevensuperior
Substitution2: "'pnum' Proportional Numbers lookup 6 subtable" seven.alt
EndChar

StartChar: eight
Encoding: 56 56 27
Width: 564
Flags: W
LayerCount: 2
Fore
SplineSet
509 180 m 0,0,1
 509 138 509 138 494.5 102.5 c 128,-1,2
 480 67 480 67 451.5 40.5 c 128,-1,3
 423 14 423 14 380 -0.5 c 128,-1,4
 337 -15 337 -15 281 -15 c 0,5,6
 216 -15 216 -15 172.5 3.5 c 128,-1,7
 129 22 129 22 103 50 c 128,-1,8
 77 78 77 78 66 111.5 c 128,-1,9
 55 145 55 145 55 175 c 0,10,11
 55 204 55 204 64.5 230.5 c 128,-1,12
 74 257 74 257 89.5 280 c 128,-1,13
 105 303 105 303 125.5 321.5 c 128,-1,14
 146 340 146 340 169 354 c 1,15,16
 71 410 71 410 71 519 c 0,17,18
 71 557 71 557 86 591.5 c 128,-1,19
 101 626 101 626 128.5 652 c 128,-1,20
 156 678 156 678 195 693.5 c 128,-1,21
 234 709 234 709 282 709 c 0,22,23
 338 709 338 709 378 692 c 128,-1,24
 418 675 418 675 443.5 648.5 c 128,-1,25
 469 622 469 622 480.5 590 c 128,-1,26
 492 558 492 558 492 528 c 0,27,28
 492 499 492 499 483.5 473.5 c 128,-1,29
 475 448 475 448 460.5 426 c 128,-1,30
 446 404 446 404 427.5 387 c 128,-1,31
 409 370 409 370 389 357 c 1,32,33
 507 301 507 301 509 180 c 0,0,1
149 174 m 0,34,35
 149 156 149 156 155.5 136.5 c 128,-1,36
 162 117 162 117 178 100.5 c 128,-1,37
 194 84 194 84 219 73 c 128,-1,38
 244 62 244 62 282 62 c 0,39,40
 316 62 316 62 341.5 72 c 128,-1,41
 367 82 367 82 383 97.5 c 128,-1,42
 399 113 399 113 407 133 c 128,-1,43
 415 153 415 153 415 174 c 0,44,45
 415 206 415 206 403 230 c 128,-1,46
 391 254 391 254 368.5 272 c 128,-1,47
 346 290 346 290 314.5 302.5 c 128,-1,48
 283 315 283 315 243 324 c 1,49,50
 198 299 198 299 173.5 262 c 128,-1,51
 149 225 149 225 149 174 c 0,34,35
399 529 m 0,52,53
 399 544 399 544 392.5 562 c 128,-1,54
 386 580 386 580 372 595.5 c 128,-1,55
 358 611 358 611 336 621.5 c 128,-1,56
 314 632 314 632 282 632 c 256,57,58
 250 632 250 632 227.5 622 c 128,-1,59
 205 612 205 612 191 596.5 c 128,-1,60
 177 581 177 581 170.5 562.5 c 128,-1,61
 164 544 164 544 164 526 c 0,62,63
 164 504 164 504 172 482 c 128,-1,64
 180 460 180 460 197 441 c 128,-1,65
 214 422 214 422 241.5 407 c 128,-1,66
 269 392 269 392 307 383 c 1,67,68
 349 408 349 408 374 441.5 c 128,-1,69
 399 475 399 475 399 529 c 0,52,53
EndSplineSet
Substitution2: "'frac' Diagonal Fractions lookup 16 subtable" eightsuperior
Substitution2: "'sinf' Scientific Inferiors lookup 13 subtable" eight.sinf
Substitution2: "'subs' Subscript lookup 12 subtable" eight.sinf
Substitution2: "'sups' Superscript lookup 11 subtable" eight.sups
Substitution2: "'dnom' Denominators lookup 10 subtable" eightinferior
Substitution2: "'numr' Numerators lookup 8 subtable" eightsuperior
Substitution2: "'pnum' Proportional Numbers lookup 6 subtable" eight.alt
EndChar

StartChar: nine
Encoding: 57 57 28
Width: 564
Flags: W
LayerCount: 2
Fore
SplineSet
501 416 m 0,0,1
 501 210 501 210 398.5 104.5 c 128,-1,2
 296 -1 296 -1 94 -2 c 1,3,-1
 91 76 l 1,4,5
 154 76 154 76 204.5 88 c 128,-1,6
 255 100 255 100 293 126.5 c 128,-1,7
 331 153 331 153 356.5 195 c 128,-1,8
 382 237 382 237 394 298 c 1,9,10
 368 286 368 286 335 278.5 c 128,-1,11
 302 271 302 271 267 271 c 0,12,13
 208 271 208 271 167 288.5 c 128,-1,14
 126 306 126 306 100 335.5 c 128,-1,15
 74 365 74 365 62.5 403.5 c 128,-1,16
 51 442 51 442 51 484 c 0,17,18
 51 521 51 521 64 561 c 128,-1,19
 77 601 77 601 103.5 634 c 128,-1,20
 130 667 130 667 171 688 c 128,-1,21
 212 709 212 709 268 709 c 0,22,23
 325 709 325 709 368.5 689 c 128,-1,24
 412 669 412 669 441.5 631 c 128,-1,25
 471 593 471 593 486 538.5 c 128,-1,26
 501 484 501 484 501 416 c 0,0,1
277 347 m 0,27,28
 312 347 312 347 343 353.5 c 128,-1,29
 374 360 374 360 403 373 c 1,30,31
 404 384 404 384 404 394.5 c 128,-1,32
 404 405 404 405 404 416 c 0,33,34
 404 459 404 459 398 498.5 c 128,-1,35
 392 538 392 538 376.5 567.5 c 128,-1,36
 361 597 361 597 335 614.5 c 128,-1,37
 309 632 309 632 269 632 c 0,38,39
 236 632 236 632 213 618 c 128,-1,40
 190 604 190 604 175 582.5 c 128,-1,41
 160 561 160 561 153.5 535.5 c 128,-1,42
 147 510 147 510 147 486 c 0,43,44
 147 418 147 418 179.5 382.5 c 128,-1,45
 212 347 212 347 277 347 c 0,27,28
EndSplineSet
Substitution2: "'frac' Diagonal Fractions lookup 16 subtable" ninesuperior
Substitution2: "'sinf' Scientific Inferiors lookup 13 subtable" nine.sinf
Substitution2: "'subs' Subscript lookup 12 subtable" nine.sinf
Substitution2: "'sups' Superscript lookup 11 subtable" nine.sups
Substitution2: "'dnom' Denominators lookup 10 subtable" nineinferior
Substitution2: "'numr' Numerators lookup 8 subtable" ninesuperior
Substitution2: "'pnum' Proportional Numbers lookup 6 subtable" nine.alt
EndChar

StartChar: less
Encoding: 60 60 31
Width: 564
Flags: W
LayerCount: 2
Fore
SplineSet
156 299 m 1,0,-1
 511 153 l 1,1,-1
 485 76 l 1,2,-1
 53 259 l 1,3,-1
 53 339 l 1,4,-1
 485 522 l 1,5,-1
 511 445 l 1,6,-1
 156 299 l 1,0,-1
EndSplineSet
EndChar

StartChar: equal
Encoding: 61 61 32
Width: 564
Flags: W
LayerCount: 2
Fore
SplineSet
53 232 m 1,0,-1
 511 232 l 1,1,-1
 511 153 l 1,2,-1
 53 153 l 1,3,-1
 53 232 l 1,0,-1
53 445 m 1,4,-1
 511 445 l 1,5,-1
 511 366 l 1,6,-1
 53 366 l 1,7,-1
 53 445 l 1,4,-1
EndSplineSet
EndChar

StartChar: greater
Encoding: 62 62 33
Width: 564
Flags: W
LayerCount: 2
Fore
SplineSet
53 445 m 1,0,-1
 79 522 l 1,1,-1
 511 339 l 1,2,-1
 511 259 l 1,3,-1
 79 76 l 1,4,-1
 53 153 l 1,5,-1
 408 299 l 1,6,-1
 53 445 l 1,0,-1
EndSplineSet
EndChar

StartChar: question
Encoding: 63 63 34
Width: 404
Flags: W
LayerCount: 2
Fore
SplineSet
174 631 m 0,0,1
 108 631 108 631 45 597 c 1,2,-1
 19 669 l 1,3,4
 53 687 53 687 95.5 698 c 128,-1,5
 138 709 138 709 186 709 c 0,6,7
 243 709 243 709 279.5 693.5 c 128,-1,8
 316 678 316 678 338 654 c 128,-1,9
 360 630 360 630 368.5 600.5 c 128,-1,10
 377 571 377 571 377 544 c 0,11,12
 377 510 377 510 364 483.5 c 128,-1,13
 351 457 351 457 332 434 c 128,-1,14
 313 411 313 411 290 390 c 128,-1,15
 267 369 267 369 248 346.5 c 128,-1,16
 229 324 229 324 216 297.5 c 128,-1,17
 203 271 203 271 203 238 c 0,18,19
 203 233 203 233 203 227 c 128,-1,20
 203 221 203 221 204 216 c 1,21,-1
 126 216 l 1,22,23
 122 236 122 236 122 258 c 0,24,25
 122 290 122 290 133.5 316 c 128,-1,26
 145 342 145 342 163 364.5 c 128,-1,27
 181 387 181 387 201 406.5 c 128,-1,28
 221 426 221 426 239 446 c 128,-1,29
 257 466 257 466 268.5 488 c 128,-1,30
 280 510 280 510 280 536 c 0,31,32
 280 578 280 578 253 604.5 c 128,-1,33
 226 631 226 631 174 631 c 0,0,1
237 54 m 256,34,35
 237 27 237 27 219 7 c 128,-1,36
 201 -13 201 -13 170 -13 c 256,37,38
 139 -13 139 -13 121 7 c 128,-1,39
 103 27 103 27 103 54 c 256,40,41
 103 81 103 81 121 101 c 128,-1,42
 139 121 139 121 170 121 c 256,43,44
 201 121 201 121 219 101 c 128,-1,45
 237 81 237 81 237 54 c 256,34,35
EndSplineSet
EndChar

StartChar: at
Encoding: 64 64 35
Width: 950
Flags: W
LayerCount: 2
Fore
SplineSet
690 43 m 0,0,1
 658 43 658 43 637 52 c 128,-1,2
 616 61 616 61 602 76 c 1,3,4
 580 64 580 64 549 55.5 c 128,-1,5
 518 47 518 47 487 47 c 0,6,7
 439 47 439 47 399.5 62 c 128,-1,8
 360 77 360 77 331 106.5 c 128,-1,9
 302 136 302 136 286 179 c 128,-1,10
 270 222 270 222 270 279 c 0,11,12
 270 327 270 327 285 369.5 c 128,-1,13
 300 412 300 412 329.5 443.5 c 128,-1,14
 359 475 359 475 401.5 493 c 128,-1,15
 444 511 444 511 498 511 c 0,16,17
 549 511 549 511 591.5 503 c 128,-1,18
 634 495 634 495 657 487 c 1,19,-1
 657 181 l 2,20,21
 657 149 657 149 668 136 c 128,-1,22
 679 123 679 123 697 123 c 0,23,24
 723 123 723 123 742.5 141 c 128,-1,25
 762 159 762 159 774.5 188 c 128,-1,26
 787 217 787 217 793 253.5 c 128,-1,27
 799 290 799 290 799 328 c 0,28,29
 799 391 799 391 777 446.5 c 128,-1,30
 755 502 755 502 714 544 c 128,-1,31
 673 586 673 586 614.5 610 c 128,-1,32
 556 634 556 634 483 634 c 256,33,34
 410 634 410 634 349 609.5 c 128,-1,35
 288 585 288 585 244 539.5 c 128,-1,36
 200 494 200 494 175.5 428 c 128,-1,37
 151 362 151 362 151 278 c 0,38,39
 151 190 151 190 177 123.5 c 128,-1,40
 203 57 203 57 249.5 12.5 c 128,-1,41
 296 -32 296 -32 359.5 -54.5 c 128,-1,42
 423 -77 423 -77 499 -77 c 0,43,44
 558 -77 558 -77 596.5 -70 c 128,-1,45
 635 -63 635 -63 646 -59 c 1,46,-1
 656 -133 l 1,47,48
 639 -139 639 -139 594.5 -146 c 128,-1,49
 550 -153 550 -153 499 -153 c 0,50,51
 410 -153 410 -153 331 -127.5 c 128,-1,52
 252 -102 252 -102 193 -49.5 c 128,-1,53
 134 3 134 3 99.5 84.5 c 128,-1,54
 65 166 65 166 65 278 c 0,55,56
 65 386 65 386 99 467 c 128,-1,57
 133 548 133 548 190.5 601.5 c 128,-1,58
 248 655 248 655 323.5 682 c 128,-1,59
 399 709 399 709 483 709 c 0,60,61
 565 709 565 709 638 682.5 c 128,-1,62
 711 656 711 656 766 605.5 c 128,-1,63
 821 555 821 555 853 483.5 c 128,-1,64
 885 412 885 412 885 322 c 0,65,66
 885 254 885 254 869.5 202 c 128,-1,67
 854 150 854 150 828 114.5 c 128,-1,68
 802 79 802 79 766 61 c 128,-1,69
 730 43 730 43 690 43 c 0,0,1
490 124 m 0,70,71
 511 124 511 124 532.5 128.5 c 128,-1,72
 554 133 554 133 571 142 c 1,73,74
 568 155 568 155 567 168 c 128,-1,75
 566 181 566 181 566 193 c 2,76,-1
 566 428 l 1,77,78
 560 430 560 430 543 432 c 128,-1,79
 526 434 526 434 505 434 c 0,80,81
 434 434 434 434 399 390 c 128,-1,82
 364 346 364 346 364 279 c 0,83,84
 364 208 364 208 398 166 c 128,-1,85
 432 124 432 124 490 124 c 0,70,71
EndSplineSet
Substitution2: "'case' Case-Sensitive Forms lookup 18 subtable" At
EndChar

StartChar: A
Encoding: 65 65 36
Width: 663
Flags: W
LayerCount: 2
Fore
SplineSet
549 0 m 1,0,1
 532 45 532 45 517 88.5 c 128,-1,2
 502 132 502 132 486 177 c 1,3,-1
 172 177 l 1,4,-1
 109 0 l 1,5,-1
 8 0 l 1,6,7
 48 110 48 110 83 203.5 c 128,-1,8
 118 297 118 297 151.5 381 c 128,-1,9
 185 465 185 465 218 541.5 c 128,-1,10
 251 618 251 618 287 693 c 1,11,-1
 376 693 l 1,12,13
 412 618 412 618 445 541.5 c 128,-1,14
 478 465 478 465 511.5 381 c 128,-1,15
 545 297 545 297 580 203.5 c 128,-1,16
 615 110 615 110 655 0 c 1,17,-1
 549 0 l 1,0,1
458 257 m 1,18,19
 426 344 426 344 394.5 425.5 c 128,-1,20
 363 507 363 507 329 582 c 1,21,22
 294 507 294 507 262.5 425.5 c 128,-1,23
 231 344 231 344 200 257 c 1,24,-1
 458 257 l 1,18,19
EndSplineSet
EndChar

StartChar: B
Encoding: 66 66 37
Width: 643
Flags: W
LayerCount: 2
Fore
SplineSet
273 -6 m 0,0,1
 252 -6 252 -6 227.5 -5 c 128,-1,2
 203 -4 203 -4 178.5 -2 c 128,-1,3
 154 0 154 0 130 3 c 128,-1,4
 106 6 106 6 86 11 c 1,5,-1
 86 683 l 1,6,7
 106 688 106 688 130 691 c 128,-1,8
 154 694 154 694 178.5 696 c 128,-1,9
 203 698 203 698 227 699 c 128,-1,10
 251 700 251 700 272 700 c 0,11,12
 332 700 332 700 384.5 691 c 128,-1,13
 437 682 437 682 475.5 660.5 c 128,-1,14
 514 639 514 639 536 604 c 128,-1,15
 558 569 558 569 558 518 c 0,16,17
 558 461 558 461 531 424.5 c 128,-1,18
 504 388 504 388 459 370 c 1,19,20
 520 352 520 352 556 313 c 128,-1,21
 592 274 592 274 592 203 c 0,22,23
 592 99 592 99 515.5 46.5 c 128,-1,24
 439 -6 439 -6 273 -6 c 0,0,1
182 323 m 1,25,-1
 182 79 l 1,26,27
 193 78 193 78 208 77 c 0,28,29
 221 76 221 76 238.5 75.5 c 128,-1,30
 256 75 256 75 279 75 c 0,31,32
 322 75 322 75 360.5 80.5 c 128,-1,33
 399 86 399 86 428 100 c 128,-1,34
 457 114 457 114 474.5 139 c 128,-1,35
 492 164 492 164 492 202 c 0,36,37
 492 236 492 236 479 259.5 c 128,-1,38
 466 283 466 283 441.5 297 c 128,-1,39
 417 311 417 311 383 317 c 128,-1,40
 349 323 349 323 307 323 c 2,41,-1
 182 323 l 1,25,-1
182 401 m 1,42,-1
 284 401 l 2,43,44
 320 401 320 401 352 406 c 128,-1,45
 384 411 384 411 407.5 424 c 128,-1,46
 431 437 431 437 444.5 458 c 128,-1,47
 458 479 458 479 458 511 c 0,48,49
 458 541 458 541 444 561.5 c 128,-1,50
 430 582 430 582 405.5 594.5 c 128,-1,51
 381 607 381 607 348 613 c 128,-1,52
 315 619 315 619 278 619 c 256,53,54
 241 619 241 619 220 618 c 128,-1,55
 199 617 199 617 182 615 c 1,56,-1
 182 401 l 1,42,-1
EndSplineSet
EndChar

StartChar: C
Encoding: 67 67 38
Width: 620
Flags: W
LayerCount: 2
Fore
SplineSet
384 -15 m 0,0,1
 311 -15 311 -15 251 9 c 128,-1,2
 191 33 191 33 148 79 c 128,-1,3
 105 125 105 125 81.5 192.5 c 128,-1,4
 58 260 58 260 58 347 c 256,5,6
 58 434 58 434 84.5 501.5 c 128,-1,7
 111 569 111 569 156 615 c 128,-1,8
 201 661 201 661 261 685 c 128,-1,9
 321 709 321 709 389 709 c 0,10,11
 432 709 432 709 466.5 703 c 128,-1,12
 501 697 501 697 526.5 689 c 128,-1,13
 552 681 552 681 568 673 c 128,-1,14
 584 665 584 665 590 661 c 1,15,-1
 562 581 l 1,16,17
 553 587 553 587 536 594 c 128,-1,18
 519 601 519 601 497.5 608 c 128,-1,19
 476 615 476 615 450.5 619.5 c 128,-1,20
 425 624 425 624 399 624 c 0,21,22
 344 624 344 624 300 605 c 128,-1,23
 256 586 256 586 225 550 c 128,-1,24
 194 514 194 514 177.5 462.5 c 128,-1,25
 161 411 161 411 161 347 c 0,26,27
 161 285 161 285 175.5 234 c 128,-1,28
 190 183 190 183 219 146.5 c 128,-1,29
 248 110 248 110 291.5 90 c 128,-1,30
 335 70 335 70 393 70 c 0,31,32
 460 70 460 70 504 84 c 128,-1,33
 548 98 548 98 570 109 c 1,34,-1
 595 29 l 1,35,36
 588 24 588 24 570 16.5 c 128,-1,37
 552 9 552 9 525 2 c 128,-1,38
 498 -5 498 -5 462 -10 c 128,-1,39
 426 -15 426 -15 384 -15 c 0,0,1
EndSplineSet
EndChar

StartChar: D
Encoding: 68 68 39
Width: 713
Flags: W
LayerCount: 2
Fore
SplineSet
655 347 m 256,0,1
 655 257 655 257 627 190.5 c 128,-1,2
 599 124 599 124 548 80.5 c 128,-1,3
 497 37 497 37 426 15.5 c 128,-1,4
 355 -6 355 -6 270 -6 c 0,5,6
 228 -6 228 -6 177.5 -2.5 c 128,-1,7
 127 1 127 1 86 11 c 1,8,-1
 86 683 l 1,9,10
 127 693 127 693 177.5 696.5 c 128,-1,11
 228 700 228 700 270 700 c 0,12,13
 355 700 355 700 426 678.5 c 128,-1,14
 497 657 497 657 548 613.5 c 128,-1,15
 599 570 599 570 627 503.5 c 128,-1,16
 655 437 655 437 655 347 c 256,0,1
278 79 m 0,17,18
 416 79 416 79 484 149.5 c 128,-1,19
 552 220 552 220 552 347 c 256,20,21
 552 474 552 474 484 544.5 c 128,-1,22
 416 615 416 615 278 615 c 0,23,24
 237 615 237 615 214.5 614 c 128,-1,25
 192 613 192 613 183 612 c 1,26,-1
 183 82 l 1,27,28
 192 81 192 81 214.5 80 c 128,-1,29
 237 79 237 79 278 79 c 0,17,18
EndSplineSet
EndChar

StartChar: E
Encoding: 69 69 40
Width: 571
Flags: W
LayerCount: 2
Fore
SplineSet
86 0 m 1,0,-1
 86 693 l 1,1,-1
 509 693 l 1,2,-1
 509 610 l 1,3,-1
 183 610 l 1,4,-1
 183 404 l 1,5,-1
 473 404 l 1,6,-1
 473 323 l 1,7,-1
 183 323 l 1,8,-1
 183 83 l 1,9,-1
 534 83 l 1,10,-1
 534 0 l 1,11,-1
 86 0 l 1,0,-1
EndSplineSet
EndChar

StartChar: F
Encoding: 70 70 41
Width: 537
Flags: W
LayerCount: 2
Fore
SplineSet
86 0 m 1,0,-1
 86 693 l 1,1,-1
 504 693 l 1,2,-1
 504 610 l 1,3,-1
 183 610 l 1,4,-1
 183 401 l 1,5,-1
 468 401 l 1,6,-1
 468 319 l 1,7,-1
 183 319 l 1,8,-1
 183 0 l 1,9,-1
 86 0 l 1,0,-1
EndSplineSet
EndChar

StartChar: G
Encoding: 71 71 42
Width: 672
Flags: W
LayerCount: 2
Fore
SplineSet
509 341 m 1,0,-1
 606 341 l 1,1,-1
 606 17 l 1,2,3
 594 13 594 13 571.5 8 c 128,-1,4
 549 3 549 3 519.5 -2 c 128,-1,5
 490 -7 490 -7 455 -10.5 c 128,-1,6
 420 -14 420 -14 384 -14 c 0,7,8
 311 -14 311 -14 251 10 c 128,-1,9
 191 34 191 34 148 80 c 128,-1,10
 105 126 105 126 81.5 193 c 128,-1,11
 58 260 58 260 58 347 c 256,12,13
 58 434 58 434 84.5 501.5 c 128,-1,14
 111 569 111 569 156 615 c 128,-1,15
 201 661 201 661 261.5 685 c 128,-1,16
 322 709 322 709 391 709 c 0,17,18
 438 709 438 709 474.5 703 c 128,-1,19
 511 697 511 697 537 689 c 128,-1,20
 563 681 563 681 579.5 673 c 128,-1,21
 596 665 596 665 602 661 c 1,22,-1
 571 580 l 1,23,24
 542 599 542 599 494 611.5 c 128,-1,25
 446 624 446 624 396 624 c 0,26,27
 343 624 343 624 299.5 605 c 128,-1,28
 256 586 256 586 225.5 550 c 128,-1,29
 195 514 195 514 178 462.5 c 128,-1,30
 161 411 161 411 161 347 c 0,31,32
 161 285 161 285 175.5 234 c 128,-1,33
 190 183 190 183 219.5 146.5 c 128,-1,34
 249 110 249 110 292.5 90 c 128,-1,35
 336 70 336 70 395 70 c 0,36,37
 437 70 437 70 466.5 74.5 c 128,-1,38
 496 79 496 79 509 83 c 1,39,-1
 509 341 l 1,0,-1
EndSplineSet
EndChar

StartChar: H
Encoding: 72 72 43
Width: 705
Flags: W
LayerCount: 2
Fore
SplineSet
522 693 m 1,0,-1
 619 693 l 1,1,-1
 619 0 l 1,2,-1
 522 0 l 1,3,-1
 522 320 l 1,4,-1
 183 320 l 1,5,-1
 183 0 l 1,6,-1
 86 0 l 1,7,-1
 86 693 l 1,8,-1
 183 693 l 1,9,-1
 183 404 l 1,10,-1
 522 404 l 1,11,-1
 522 693 l 1,0,-1
EndSplineSet
EndChar

StartChar: I
Encoding: 73 73 44
Width: 269
Flags: W
LayerCount: 2
Fore
SplineSet
86 693 m 1,0,-1
 183 693 l 1,1,-1
 183 0 l 1,2,-1
 86 0 l 1,3,-1
 86 693 l 1,0,-1
EndSplineSet
EndChar

StartChar: J
Encoding: 74 74 45
Width: 500
Flags: W
LayerCount: 2
Fore
SplineSet
419 223 m 2,0,1
 419 173 419 173 408.5 130 c 128,-1,2
 398 87 398 87 371.5 54.5 c 128,-1,3
 345 22 345 22 300.5 3.5 c 128,-1,4
 256 -15 256 -15 189 -15 c 0,5,6
 155 -15 155 -15 126.5 -9.5 c 128,-1,7
 98 -4 98 -4 75 4.5 c 128,-1,8
 52 13 52 13 35 22.5 c 128,-1,9
 18 32 18 32 8 41 c 1,10,-1
 46 118 l 1,11,12
 67 103 67 103 100.5 86.5 c 128,-1,13
 134 70 134 70 184 70 c 0,14,15
 256 70 256 70 289 106.5 c 128,-1,16
 322 143 322 143 322 232 c 2,17,-1
 322 693 l 1,18,-1
 419 693 l 1,19,-1
 419 223 l 2,0,1
EndSplineSet
EndChar

StartChar: K
Encoding: 75 75 46
Width: 629
Flags: W
LayerCount: 2
Fore
SplineSet
599 693 m 1,0,1
 568 659 568 659 529 617.5 c 128,-1,2
 490 576 490 576 447.5 532.5 c 128,-1,3
 405 489 405 489 363 447 c 128,-1,4
 321 405 321 405 284 369 c 1,5,6
 327 339 327 339 375 295 c 128,-1,7
 423 251 423 251 469 201 c 128,-1,8
 515 151 515 151 555.5 99 c 128,-1,9
 596 47 596 47 623 0 c 1,10,-1
 509 0 l 1,11,12
 479 47 479 47 440 94.5 c 128,-1,13
 401 142 401 142 357.5 185.5 c 128,-1,14
 314 229 314 229 269.5 266 c 128,-1,15
 225 303 225 303 183 329 c 1,16,-1
 183 0 l 1,17,-1
 86 0 l 1,18,-1
 86 693 l 1,19,-1
 183 693 l 1,20,-1
 183 387 l 1,21,22
 218 420 218 420 260 461.5 c 128,-1,23
 302 503 302 503 343 545 c 128,-1,24
 384 587 384 587 420.5 625.5 c 128,-1,25
 457 664 457 664 482 693 c 1,26,-1
 599 693 l 1,0,1
EndSplineSet
EndChar

StartChar: L
Encoding: 76 76 47
Width: 519
Flags: W
LayerCount: 2
Fore
SplineSet
503 84 m 1,0,-1
 503 0 l 1,1,-1
 86 0 l 1,2,-1
 86 693 l 1,3,-1
 183 693 l 1,4,-1
 183 84 l 1,5,-1
 503 84 l 1,0,-1
EndSplineSet
EndChar

StartChar: M
Encoding: 77 77 48
Width: 871
Flags: W
LayerCount: 2
Fore
SplineSet
397 96 m 1,0,1
 387 120 387 120 370.5 157 c 128,-1,2
 354 194 354 194 335 237 c 128,-1,3
 316 280 316 280 294.5 325.5 c 128,-1,4
 273 371 273 371 254 411.5 c 128,-1,5
 235 452 235 452 218.5 484 c 128,-1,6
 202 516 202 516 192 533 c 1,7,8
 181 415 181 415 174 277.5 c 128,-1,9
 167 140 167 140 162 0 c 1,10,-1
 67 0 l 1,11,12
 71 90 71 90 76 181.5 c 128,-1,13
 81 273 81 273 87.5 361.5 c 128,-1,14
 94 450 94 450 101.5 534 c 128,-1,15
 109 618 109 618 118 693 c 1,16,-1
 203 693 l 1,17,18
 230 649 230 649 261 589 c 128,-1,19
 292 529 292 529 323 463.5 c 128,-1,20
 354 398 354 398 383 332.5 c 128,-1,21
 412 267 412 267 436 213 c 1,22,23
 460 267 460 267 489 332.5 c 128,-1,24
 518 398 518 398 549 463.5 c 128,-1,25
 580 529 580 529 611 589 c 128,-1,26
 642 649 642 649 669 693 c 1,27,-1
 754 693 l 1,28,29
 788 358 788 358 805 0 c 1,30,-1
 710 0 l 1,31,32
 705 140 705 140 698 277.5 c 128,-1,33
 691 415 691 415 680 533 c 1,34,35
 670 516 670 516 653.5 484 c 128,-1,36
 637 452 637 452 618 411.5 c 128,-1,37
 599 371 599 371 577.5 325.5 c 128,-1,38
 556 280 556 280 537 237 c 128,-1,39
 518 194 518 194 501.5 157 c 128,-1,40
 485 120 485 120 475 96 c 1,41,-1
 397 96 l 1,0,1
EndSplineSet
EndChar

StartChar: N
Encoding: 78 78 49
Width: 728
Flags: W
LayerCount: 2
Fore
SplineSet
561 0 m 1,0,1
 539 37 539 37 510.5 83 c 128,-1,2
 482 129 482 129 449 178.5 c 128,-1,3
 416 228 416 228 380.5 279 c 128,-1,4
 345 330 345 330 310 377.5 c 128,-1,5
 275 425 275 425 242 467 c 128,-1,6
 209 509 209 509 181 541 c 1,7,-1
 181 0 l 1,8,-1
 86 0 l 1,9,-1
 86 693 l 1,10,-1
 163 693 l 1,11,12
 210 643 210 643 263.5 576.5 c 128,-1,13
 317 510 317 510 369.5 439.5 c 128,-1,14
 422 369 422 369 468.5 301 c 128,-1,15
 515 233 515 233 547 180 c 1,16,-1
 547 693 l 1,17,-1
 642 693 l 1,18,-1
 642 0 l 1,19,-1
 561 0 l 1,0,1
EndSplineSet
EndChar

StartChar: O
Encoding: 79 79 50
Width: 778
Flags: W
LayerCount: 2
Fore
SplineSet
58 347 m 256,0,1
 58 436 58 436 84.5 504 c 128,-1,2
 111 572 111 572 156.5 617.5 c 128,-1,3
 202 663 202 663 262.5 686 c 128,-1,4
 323 709 323 709 391 709 c 0,5,6
 458 709 458 709 517.5 686 c 128,-1,7
 577 663 577 663 622 617.5 c 128,-1,8
 667 572 667 572 693.5 504 c 128,-1,9
 720 436 720 436 720 347 c 256,10,11
 720 258 720 258 693.5 190 c 128,-1,12
 667 122 667 122 622 76.5 c 128,-1,13
 577 31 577 31 517.5 8 c 128,-1,14
 458 -15 458 -15 391 -15 c 0,15,16
 323 -15 323 -15 262.5 8 c 128,-1,17
 202 31 202 31 156.5 76.5 c 128,-1,18
 111 122 111 122 84.5 190 c 128,-1,19
 58 258 58 258 58 347 c 256,0,1
160 347 m 256,20,21
 160 284 160 284 176 232.5 c 128,-1,22
 192 181 192 181 221.5 145 c 128,-1,23
 251 109 251 109 293.5 89.5 c 128,-1,24
 336 70 336 70 389 70 c 256,25,26
 442 70 442 70 484 89.5 c 128,-1,27
 526 109 526 109 555.5 145 c 128,-1,28
 585 181 585 181 601 232.5 c 128,-1,29
 617 284 617 284 617 347 c 256,30,31
 617 410 617 410 601 461.5 c 128,-1,32
 585 513 585 513 555.5 549 c 128,-1,33
 526 585 526 585 484 604.5 c 128,-1,34
 442 624 442 624 389 624 c 256,35,36
 336 624 336 624 293.5 604.5 c 128,-1,37
 251 585 251 585 221.5 549 c 128,-1,38
 192 513 192 513 176 461.5 c 128,-1,39
 160 410 160 410 160 347 c 256,20,21
EndSplineSet
EndChar

StartChar: P
Encoding: 80 80 51
Width: 608
Flags: W
LayerCount: 2
Fore
SplineSet
270 700 m 0,0,1
 416 700 416 700 494.5 644.5 c 128,-1,2
 573 589 573 589 573 479 c 0,3,4
 573 419 573 419 551.5 376.5 c 128,-1,5
 530 334 530 334 489.5 307.5 c 128,-1,6
 449 281 449 281 391 269 c 128,-1,7
 333 257 333 257 260 257 c 2,8,-1
 183 257 l 1,9,-1
 183 0 l 1,10,-1
 86 0 l 1,11,-1
 86 683 l 1,12,13
 127 693 127 693 177.5 696.5 c 128,-1,14
 228 700 228 700 270 700 c 0,0,1
278 615 m 0,15,16
 216 615 216 615 183 612 c 1,17,-1
 183 340 l 1,18,-1
 256 340 l 2,19,20
 306 340 306 340 346 346.5 c 128,-1,21
 386 353 386 353 413.5 368.5 c 128,-1,22
 441 384 441 384 456 411 c 128,-1,23
 471 438 471 438 471 480 c 0,24,25
 471 520 471 520 455.5 546 c 128,-1,26
 440 572 440 572 413.5 587.5 c 128,-1,27
 387 603 387 603 352 609 c 128,-1,28
 317 615 317 615 278 615 c 0,15,16
EndSplineSet
EndChar

StartChar: Q
Encoding: 81 81 52
Width: 778
Flags: W
LayerCount: 2
Fore
SplineSet
58 347 m 0,0,1
 58 436 58 436 84.5 504 c 128,-1,2
 111 572 111 572 156.5 617.5 c 128,-1,3
 202 663 202 663 262.5 686 c 128,-1,4
 323 709 323 709 391 709 c 0,5,6
 458 709 458 709 517.5 686 c 128,-1,7
 577 663 577 663 622 617.5 c 128,-1,8
 667 572 667 572 693.5 504 c 128,-1,9
 720 436 720 436 720 347 c 0,10,11
 720 269 720 269 700 208 c 128,-1,12
 680 147 680 147 644.5 102.5 c 128,-1,13
 609 58 609 58 561.5 30.5 c 128,-1,14
 514 3 514 3 460 -7 c 1,15,16
 461 -30 461 -30 480.5 -47.5 c 128,-1,17
 500 -65 500 -65 530 -77 c 128,-1,18
 560 -89 560 -89 597 -97 c 128,-1,19
 634 -105 634 -105 671 -109 c 1,20,-1
 648 -185 l 1,21,22
 596 -178 596 -178 548.5 -166.5 c 128,-1,23
 501 -155 501 -155 462.5 -136 c 128,-1,24
 424 -117 424 -117 398 -87.5 c 128,-1,25
 372 -58 372 -58 363 -14 c 1,26,27
 300 -10 300 -10 244 15.5 c 128,-1,28
 188 41 188 41 147 86.5 c 128,-1,29
 106 132 106 132 82 197 c 128,-1,30
 58 262 58 262 58 347 c 0,0,1
160 347 m 256,31,32
 160 284 160 284 176 232.5 c 128,-1,33
 192 181 192 181 221.5 145 c 128,-1,34
 251 109 251 109 293.5 89.5 c 128,-1,35
 336 70 336 70 389 70 c 256,36,37
 442 70 442 70 484 89.5 c 128,-1,38
 526 109 526 109 555.5 145 c 128,-1,39
 585 181 585 181 601 232.5 c 128,-1,40
 617 284 617 284 617 347 c 256,41,42
 617 410 617 410 601 461.5 c 128,-1,43
 585 513 585 513 555.5 549 c 128,-1,44
 526 585 526 585 484 604.5 c 128,-1,45
 442 624 442 624 389 624 c 256,46,47
 336 624 336 624 293.5 604.5 c 128,-1,48
 251 585 251 585 221.5 549 c 128,-1,49
 192 513 192 513 176 461.5 c 128,-1,50
 160 410 160 410 160 347 c 256,31,32
EndSplineSet
EndChar

StartChar: R
Encoding: 82 82 53
Width: 629
Flags: W
LayerCount: 2
Fore
SplineSet
425 290 m 1,0,1
 441 270 441 270 465.5 237.5 c 128,-1,2
 490 205 490 205 516 165.5 c 128,-1,3
 542 126 542 126 567.5 83 c 128,-1,4
 593 40 593 40 611 0 c 1,5,-1
 505 0 l 1,6,7
 485 38 485 38 461.5 77 c 128,-1,8
 438 116 438 116 414 151.5 c 128,-1,9
 390 187 390 187 366.5 218 c 128,-1,10
 343 249 343 249 324 272 c 1,11,12
 311 271 311 271 297.5 271 c 128,-1,13
 284 271 284 271 270 271 c 2,14,-1
 183 271 l 1,15,-1
 183 0 l 1,16,-1
 86 0 l 1,17,-1
 86 683 l 1,18,19
 127 693 127 693 177.5 696.5 c 128,-1,20
 228 700 228 700 270 700 c 0,21,22
 416 700 416 700 492.5 645 c 128,-1,23
 569 590 569 590 569 481 c 0,24,25
 569 412 569 412 532.5 363 c 128,-1,26
 496 314 496 314 425 290 c 1,0,1
278 615 m 0,27,28
 216 615 216 615 183 612 c 1,29,-1
 183 351 l 1,30,-1
 252 351 l 2,31,32
 302 351 302 351 342 356 c 128,-1,33
 382 361 382 361 409.5 375 c 128,-1,34
 437 389 437 389 452 414.5 c 128,-1,35
 467 440 467 440 467 482 c 0,36,37
 467 521 467 521 452 547 c 128,-1,38
 437 573 437 573 411.5 588 c 128,-1,39
 386 603 386 603 351.5 609 c 128,-1,40
 317 615 317 615 278 615 c 0,27,28
EndSplineSet
EndChar

StartChar: S
Encoding: 83 83 54
Width: 532
Flags: W
LayerCount: 2
Fore
SplineSet
247 69 m 0,0,1
 399 69 399 69 399 173 c 0,2,3
 399 205 399 205 385.5 227.5 c 128,-1,4
 372 250 372 250 349 266.5 c 128,-1,5
 326 283 326 283 296.5 295 c 128,-1,6
 267 307 267 307 234 319 c 0,7,8
 196 332 196 332 162 348.5 c 128,-1,9
 128 365 128 365 103 387.5 c 128,-1,10
 78 410 78 410 63.5 441 c 128,-1,11
 49 472 49 472 49 516 c 0,12,13
 49 607 49 607 111 658 c 128,-1,14
 173 709 173 709 282 709 c 0,15,16
 345 709 345 709 396.5 695.5 c 128,-1,17
 448 682 448 682 472 666 c 1,18,-1
 441 587 l 1,19,20
 420 600 420 600 378.5 612.5 c 128,-1,21
 337 625 337 625 282 625 c 0,22,23
 254 625 254 625 230 619 c 128,-1,24
 206 613 206 613 188 601 c 128,-1,25
 170 589 170 589 159.5 570.5 c 128,-1,26
 149 552 149 552 149 527 c 0,27,28
 149 499 149 499 160 480 c 128,-1,29
 171 461 171 461 191 446.5 c 128,-1,30
 211 432 211 432 237.5 420 c 128,-1,31
 264 408 264 408 296 396 c 0,32,33
 341 378 341 378 378.5 360 c 128,-1,34
 416 342 416 342 443.5 317 c 128,-1,35
 471 292 471 292 486 257.5 c 128,-1,36
 501 223 501 223 501 174 c 0,37,38
 501 83 501 83 434.5 34 c 128,-1,39
 368 -15 368 -15 247 -15 c 0,40,41
 206 -15 206 -15 171.5 -9.5 c 128,-1,42
 137 -4 137 -4 110 3.5 c 128,-1,43
 83 11 83 11 63.5 19.5 c 128,-1,44
 44 28 44 28 33 34 c 1,45,-1
 62 114 l 1,46,47
 85 101 85 101 132 85 c 128,-1,48
 179 69 179 69 247 69 c 0,0,1
EndSplineSet
EndChar

StartChar: T
Encoding: 84 84 55
Width: 565
Flags: W
LayerCount: 2
Fore
SplineSet
549 693 m 1,0,-1
 549 609 l 1,1,-1
 331 609 l 1,2,-1
 331 0 l 1,3,-1
 234 0 l 1,4,-1
 234 609 l 1,5,-1
 16 609 l 1,6,-1
 16 693 l 1,7,-1
 549 693 l 1,0,-1
EndSplineSet
EndChar

StartChar: U
Encoding: 85 85 56
Width: 688
Flags: W
LayerCount: 2
Fore
SplineSet
344 -15 m 256,0,1
 276 -15 276 -15 226 6 c 128,-1,2
 176 27 176 27 144 63.5 c 128,-1,3
 112 100 112 100 96.5 150 c 128,-1,4
 81 200 81 200 81 258 c 2,5,-1
 81 693 l 1,6,-1
 178 693 l 1,7,-1
 178 269 l 2,8,9
 178 165 178 165 224 118 c 128,-1,10
 270 71 270 71 344 71 c 0,11,12
 381 71 381 71 411.5 82.5 c 128,-1,13
 442 94 442 94 464 118 c 128,-1,14
 486 142 486 142 498 179.5 c 128,-1,15
 510 217 510 217 510 269 c 2,16,-1
 510 693 l 1,17,-1
 607 693 l 1,18,-1
 607 258 l 2,19,20
 607 200 607 200 591.5 150 c 128,-1,21
 576 100 576 100 543.5 63.5 c 128,-1,22
 511 27 511 27 461.5 6 c 128,-1,23
 412 -15 412 -15 344 -15 c 256,0,1
EndSplineSet
EndChar

StartChar: V
Encoding: 86 86 57
Width: 656
Flags: W
LayerCount: 2
Fore
SplineSet
646 693 m 1,0,1
 608 583 608 583 573.5 489.5 c 128,-1,2
 539 396 539 396 506 312 c 128,-1,3
 473 228 473 228 440.5 151.5 c 128,-1,4
 408 75 408 75 374 0 c 1,5,-1
 283 0 l 1,6,7
 249 75 249 75 216.5 151.5 c 128,-1,8
 184 228 184 228 150.5 312 c 128,-1,9
 117 396 117 396 82 489.5 c 128,-1,10
 47 583 47 583 10 693 c 1,11,-1
 117 693 l 1,12,13
 171 535 171 535 223 389 c 128,-1,14
 275 243 275 243 330 115 c 1,15,16
 385 242 385 242 437 388.5 c 128,-1,17
 489 535 489 535 542 693 c 1,18,-1
 646 693 l 1,0,1
EndSplineSet
EndChar

StartChar: W
Encoding: 87 87 58
Width: 929
Flags: W
LayerCount: 2
Fore
SplineSet
465 470 m 1,0,1
 423 336 423 336 380 222 c 128,-1,2
 337 108 337 108 294 0 c 1,3,-1
 197 0 l 1,4,5
 144 153 144 153 103.5 323 c 128,-1,6
 63 493 63 493 28 693 c 1,7,-1
 130 693 l 1,8,9
 144 615 144 615 159 537 c 128,-1,10
 174 459 174 459 190 385.5 c 128,-1,11
 206 312 206 312 222 245 c 128,-1,12
 238 178 238 178 255 121 c 1,13,14
 295 226 295 226 340 351.5 c 128,-1,15
 385 477 385 477 424 611 c 1,16,-1
 508 611 l 1,17,18
 547 477 547 477 593 351.5 c 128,-1,19
 639 226 639 226 679 121 c 1,20,21
 695 177 695 177 711 244 c 128,-1,22
 727 311 727 311 742.5 384.5 c 128,-1,23
 758 458 758 458 773 536.5 c 128,-1,24
 788 615 788 615 802 693 c 1,25,-1
 901 693 l 1,26,27
 865 493 865 493 824.5 323 c 128,-1,28
 784 153 784 153 732 0 c 1,29,-1
 635 0 l 1,30,31
 591 108 591 108 549 222 c 128,-1,32
 507 336 507 336 465 470 c 1,0,1
EndSplineSet
EndChar

StartChar: X
Encoding: 88 88 59
Width: 631
Flags: W
LayerCount: 2
Fore
SplineSet
502 0 m 1,0,1
 487 30 487 30 466 66.5 c 128,-1,2
 445 103 445 103 420 142.5 c 128,-1,3
 395 182 395 182 368 221.5 c 128,-1,4
 341 261 341 261 316 296 c 1,5,6
 291 261 291 261 264 221.5 c 128,-1,7
 237 182 237 182 212.5 142.5 c 128,-1,8
 188 103 188 103 166.5 66.5 c 128,-1,9
 145 30 145 30 130 0 c 1,10,-1
 23 0 l 1,11,12
 68 88 68 88 127.5 179 c 128,-1,13
 187 270 187 270 254 366 c 1,14,-1
 32 693 l 1,15,-1
 144 693 l 1,16,-1
 315 435 l 1,17,-1
 484 693 l 1,18,-1
 595 693 l 1,19,-1
 377 370 l 1,20,21
 445 273 445 273 505 181 c 128,-1,22
 565 89 565 89 611 0 c 1,23,-1
 502 0 l 1,0,1
EndSplineSet
EndChar

StartChar: Y
Encoding: 89 89 60
Width: 598
Flags: W
LayerCount: 2
Fore
SplineSet
251 0 m 1,0,-1
 251 278 l 1,1,2
 182 385 182 385 121 489 c 128,-1,3
 60 593 60 593 6 693 c 1,4,-1
 120 693 l 1,5,6
 158 611 158 611 205 526.5 c 128,-1,7
 252 442 252 442 302 364 c 1,8,9
 351 442 351 442 398 526.5 c 128,-1,10
 445 611 445 611 484 693 c 1,11,-1
 592 693 l 1,12,13
 538 593 538 593 477 489.5 c 128,-1,14
 416 386 416 386 348 280 c 1,15,-1
 348 0 l 1,16,-1
 251 0 l 1,0,-1
EndSplineSet
EndChar

StartChar: Z
Encoding: 90 90 61
Width: 573
Flags: W
LayerCount: 2
Fore
SplineSet
526 616 m 1,0,1
 503 590 503 590 472.5 553.5 c 128,-1,2
 442 517 442 517 408 472.5 c 128,-1,3
 374 428 374 428 338 378.5 c 128,-1,4
 302 329 302 329 267.5 278.5 c 128,-1,5
 233 228 233 228 202 178 c 128,-1,6
 171 128 171 128 146 83 c 1,7,-1
 536 83 l 1,8,-1
 536 0 l 1,9,-1
 33 0 l 1,10,-1
 33 65 l 1,11,12
 54 105 54 105 82.5 153 c 128,-1,13
 111 201 111 201 143.5 251 c 128,-1,14
 176 301 176 301 211 352 c 128,-1,15
 246 403 246 403 280.5 450 c 128,-1,16
 315 497 315 497 347.5 538 c 128,-1,17
 380 579 380 579 407 610 c 1,18,-1
 51 610 l 1,19,-1
 51 693 l 1,20,-1
 526 693 l 1,21,-1
 526 616 l 1,0,1
EndSplineSet
EndChar

StartChar: bracketleft
Encoding: 91 91 62
Width: 329
Flags: W
LayerCount: 2
Fore
SplineSet
96 783 m 1,0,-1
 321 783 l 1,1,-1
 321 710 l 1,2,-1
 183 710 l 1,3,-1
 183 -112 l 1,4,-1
 321 -112 l 1,5,-1
 321 -185 l 1,6,-1
 96 -185 l 1,7,-1
 96 783 l 1,0,-1
EndSplineSet
Substitution2: "'case' Case-Sensitive Forms lookup 18 subtable" Bracketleft
EndChar

StartChar: backslash
Encoding: 92 92 63
Width: 384
Flags: W
LayerCount: 2
Fore
SplineSet
-24 783 m 1,0,-1
 69 783 l 1,1,-1
 408 -185 l 1,2,-1
 313 -185 l 1,3,-1
 -24 783 l 1,0,-1
EndSplineSet
Substitution2: "'case' Case-Sensitive Forms lookup 18 subtable" Backslash
EndChar

StartChar: bracketright
Encoding: 93 93 64
Width: 329
Flags: W
LayerCount: 2
Fore
SplineSet
233 -185 m 1,0,-1
 8 -185 l 1,1,-1
 8 -112 l 1,2,-1
 146 -112 l 1,3,-1
 146 710 l 1,4,-1
 8 710 l 1,5,-1
 8 783 l 1,6,-1
 233 783 l 1,7,-1
 233 -185 l 1,0,-1
EndSplineSet
Substitution2: "'case' Case-Sensitive Forms lookup 18 subtable" Bracketright
EndChar

StartChar: asciicircum
Encoding: 94 94 65
Width: 564
Flags: W
LayerCount: 2
Fore
SplineSet
323 693 m 1,0,-1
 517 353 l 1,1,-1
 443 315 l 1,2,-1
 282 597 l 1,3,-1
 121 315 l 1,4,-1
 47 353 l 1,5,-1
 241 693 l 1,6,-1
 323 693 l 1,0,-1
EndSplineSet
EndChar

StartChar: underscore
Encoding: 95 95 66
Width: 492
Flags: W
LayerCount: 2
Fore
SplineSet
-4 -106 m 1,0,-1
 496 -106 l 1,1,-1
 496 -185 l 1,2,-1
 -4 -185 l 1,3,-1
 -4 -106 l 1,0,-1
EndSplineSet
EndChar

StartChar: grave
Encoding: 96 96 67
Width: 376
Flags: W
LayerCount: 2
Fore
SplineSet
121 776 m 1,0,-1
 249 622 l 1,1,-1
 202 580 l 1,2,-1
 61 717 l 1,3,-1
 121 776 l 1,0,-1
EndSplineSet
EndChar

StartChar: a
Encoding: 97 97 68
Width: 522
Flags: W
LayerCount: 2
Fore
SplineSet
256 67 m 0,0,1
 289 67 289 67 314.5 68.5 c 128,-1,2
 340 70 340 70 357 74 c 1,3,-1
 357 229 l 1,4,5
 347 234 347 234 324.5 237.5 c 128,-1,6
 302 241 302 241 270 241 c 0,7,8
 249 241 249 241 225.5 238 c 128,-1,9
 202 235 202 235 182.5 225.5 c 128,-1,10
 163 216 163 216 150 199.5 c 128,-1,11
 137 183 137 183 137 156 c 0,12,13
 137 106 137 106 169 86.5 c 128,-1,14
 201 67 201 67 256 67 c 0,0,1
248 533 m 0,15,16
 304 533 304 533 342.5 518.5 c 128,-1,17
 381 504 381 504 404.5 477.5 c 128,-1,18
 428 451 428 451 438 414.5 c 128,-1,19
 448 378 448 378 448 334 c 2,20,-1
 448 9 l 1,21,22
 436 7 436 7 414.5 3.5 c 128,-1,23
 393 0 393 0 366 -3 c 128,-1,24
 339 -6 339 -6 307.5 -8.5 c 128,-1,25
 276 -11 276 -11 245 -11 c 0,26,27
 201 -11 201 -11 164 -2 c 128,-1,28
 127 7 127 7 100 26.5 c 128,-1,29
 73 46 73 46 58 78 c 128,-1,30
 43 110 43 110 43 155 c 0,31,32
 43 198 43 198 60.5 229 c 128,-1,33
 78 260 78 260 108 279 c 128,-1,34
 138 298 138 298 178 307 c 128,-1,35
 218 316 218 316 262 316 c 0,36,37
 276 316 276 316 291 314.5 c 128,-1,38
 306 313 306 313 319.5 310.5 c 128,-1,39
 333 308 333 308 343 306 c 128,-1,40
 353 304 353 304 357 303 c 1,41,-1
 357 329 l 2,42,43
 357 352 357 352 352 374.5 c 128,-1,44
 347 397 347 397 334 414.5 c 128,-1,45
 321 432 321 432 298.5 442.5 c 128,-1,46
 276 453 276 453 240 453 c 0,47,48
 194 453 194 453 159.5 446.5 c 128,-1,49
 125 440 125 440 108 433 c 1,50,-1
 97 510 l 1,51,52
 115 518 115 518 157 525.5 c 128,-1,53
 199 533 199 533 248 533 c 0,15,16
EndSplineSet
Substitution2: "'case' Case-Sensitive Forms lookup 19 subtable" A
Substitution2: "'ordn' Ordinals in Latin lookup 9 subtable" ordfeminine
EndChar

StartChar: b
Encoding: 98 98 69
Width: 589
Flags: W
LayerCount: 2
Fore
SplineSet
173 497 m 1,0,1
 190 508 190 508 224.5 520 c 128,-1,2
 259 532 259 532 304 532 c 0,3,4
 360 532 360 532 403.5 512 c 128,-1,5
 447 492 447 492 477 456 c 128,-1,6
 507 420 507 420 522.5 370 c 128,-1,7
 538 320 538 320 538 260 c 0,8,9
 538 197 538 197 519.5 146.5 c 128,-1,10
 501 96 501 96 467 61 c 128,-1,11
 433 26 433 26 385 7 c 128,-1,12
 337 -12 337 -12 277 -12 c 0,13,14
 212 -12 212 -12 162 -3 c 128,-1,15
 112 6 112 6 80 15 c 1,16,-1
 80 760 l 1,17,-1
 173 776 l 1,18,-1
 173 497 l 1,0,1
173 81 m 1,19,20
 187 77 187 77 212.5 73.5 c 128,-1,21
 238 70 238 70 276 70 c 0,22,23
 351 70 351 70 396 119.5 c 128,-1,24
 441 169 441 169 441 260 c 0,25,26
 441 300 441 300 433 335 c 128,-1,27
 425 370 425 370 407 395.5 c 128,-1,28
 389 421 389 421 360.5 435.5 c 128,-1,29
 332 450 332 450 292 450 c 0,30,31
 254 450 254 450 222 437 c 128,-1,32
 190 424 190 424 173 410 c 1,33,-1
 173 81 l 1,19,20
EndSplineSet
Substitution2: "'case' Case-Sensitive Forms lookup 19 subtable" B
EndChar

StartChar: c
Encoding: 99 99 70
Width: 465
Flags: W
LayerCount: 2
Fore
SplineSet
306 -12 m 0,0,1
 243 -12 243 -12 195.5 8 c 128,-1,2
 148 28 148 28 115.5 64 c 128,-1,3
 83 100 83 100 67 149.5 c 128,-1,4
 51 199 51 199 51 259 c 256,5,6
 51 319 51 319 68.5 369 c 128,-1,7
 86 419 86 419 118 455.5 c 128,-1,8
 150 492 150 492 196.5 512.5 c 128,-1,9
 243 533 243 533 300 533 c 0,10,11
 335 533 335 533 370 527 c 128,-1,12
 405 521 405 521 437 508 c 1,13,-1
 416 429 l 1,14,15
 395 439 395 439 367.5 445 c 128,-1,16
 340 451 340 451 309 451 c 0,17,18
 231 451 231 451 189.5 402 c 128,-1,19
 148 353 148 353 148 259 c 0,20,21
 148 217 148 217 157.5 182 c 128,-1,22
 167 147 167 147 187.5 122 c 128,-1,23
 208 97 208 97 240 83.5 c 128,-1,24
 272 70 272 70 318 70 c 0,25,26
 355 70 355 70 385 77 c 128,-1,27
 415 84 415 84 432 92 c 1,28,-1
 445 14 l 1,29,30
 437 9 437 9 422 4.5 c 128,-1,31
 407 0 407 0 388 -3.5 c 128,-1,32
 369 -7 369 -7 347.5 -9.5 c 128,-1,33
 326 -12 326 -12 306 -12 c 0,0,1
EndSplineSet
Substitution2: "'case' Case-Sensitive Forms lookup 19 subtable" C
EndChar

StartChar: d
Encoding: 100 100 71
Width: 589
Flags: W
LayerCount: 2
Fore
SplineSet
416 410 m 1,0,1
 399 424 399 424 367 437 c 128,-1,2
 335 450 335 450 297 450 c 0,3,4
 257 450 257 450 228.5 435.5 c 128,-1,5
 200 421 200 421 182 395.5 c 128,-1,6
 164 370 164 370 156 335 c 128,-1,7
 148 300 148 300 148 260 c 0,8,9
 148 169 148 169 193 119.5 c 128,-1,10
 238 70 238 70 313 70 c 0,11,12
 351 70 351 70 376.5 73.5 c 128,-1,13
 402 77 402 77 416 81 c 1,14,-1
 416 410 l 1,0,1
416 760 m 1,15,-1
 509 776 l 1,16,-1
 509 15 l 1,17,18
 477 6 477 6 427 -3 c 128,-1,19
 377 -12 377 -12 312 -12 c 0,20,21
 252 -12 252 -12 204 7 c 128,-1,22
 156 26 156 26 122 61 c 128,-1,23
 88 96 88 96 69.5 146.5 c 128,-1,24
 51 197 51 197 51 260 c 0,25,26
 51 320 51 320 66.5 370 c 128,-1,27
 82 420 82 420 112 456 c 128,-1,28
 142 492 142 492 185.5 512 c 128,-1,29
 229 532 229 532 285 532 c 0,30,31
 330 532 330 532 364.5 520 c 128,-1,32
 399 508 399 508 416 497 c 1,33,-1
 416 760 l 1,15,-1
EndSplineSet
Substitution2: "'case' Case-Sensitive Forms lookup 19 subtable" D
EndChar

StartChar: e
Encoding: 101 101 72
Width: 559
Flags: W
AnchorPoint: "top" 289 581 basechar 0
LayerCount: 2
Fore
SplineSet
51 259 m 0,0,1
 51 328 51 328 71 379.5 c 128,-1,2
 91 431 91 431 124 465 c 128,-1,3
 157 499 157 499 200 516 c 128,-1,4
 243 533 243 533 288 533 c 0,5,6
 393 533 393 533 449 467.5 c 128,-1,7
 505 402 505 402 505 268 c 0,8,9
 505 262 505 262 505 252.5 c 128,-1,10
 505 243 505 243 504 235 c 1,11,-1
 148 235 l 1,12,13
 154 154 154 154 195 112 c 128,-1,14
 236 70 236 70 323 70 c 0,15,16
 372 70 372 70 405.5 78.5 c 128,-1,17
 439 87 439 87 456 95 c 1,18,-1
 469 17 l 1,19,20
 452 8 452 8 409.5 -2 c 128,-1,21
 367 -12 367 -12 313 -12 c 0,22,23
 245 -12 245 -12 195.5 8.5 c 128,-1,24
 146 29 146 29 114 65 c 128,-1,25
 82 101 82 101 66.5 150.5 c 128,-1,26
 51 200 51 200 51 259 c 0,0,1
408 310 m 1,27,28
 409 373 409 373 376.5 413.5 c 128,-1,29
 344 454 344 454 287 454 c 0,30,31
 255 454 255 454 230.5 441.5 c 128,-1,32
 206 429 206 429 189 409 c 128,-1,33
 172 389 172 389 162.5 363 c 128,-1,34
 153 337 153 337 150 310 c 1,35,-1
 408 310 l 1,27,28
EndSplineSet
Substitution2: "'case' Case-Sensitive Forms lookup 19 subtable" E
EndChar

StartChar: f
Encoding: 102 102 73
Width: 386
Flags: W
LayerCount: 2
Fore
SplineSet
283 776 m 0,0,1
 324 776 324 776 353.5 770 c 128,-1,2
 383 764 383 764 395 759 c 1,3,-1
 378 679 l 1,4,5
 366 685 366 685 344 690.5 c 128,-1,6
 322 696 322 696 290 696 c 0,7,8
 225 696 225 696 199 660.5 c 128,-1,9
 173 625 173 625 173 565 c 2,10,-1
 173 520 l 1,11,-1
 373 520 l 1,12,-1
 373 442 l 1,13,-1
 173 442 l 1,14,-1
 173 0 l 1,15,-1
 80 0 l 1,16,-1
 80 567 l 2,17,18
 80 667 80 667 129 721.5 c 128,-1,19
 178 776 178 776 283 776 c 0,0,1
EndSplineSet
Substitution2: "'case' Case-Sensitive Forms lookup 19 subtable" F
EndChar

StartChar: g
Encoding: 103 103 74
Width: 578
Flags: W
LayerCount: 2
Fore
SplineSet
406 52 m 1,0,1
 394 44 394 44 359.5 31.5 c 128,-1,2
 325 19 325 19 279 19 c 0,3,4
 232 19 232 19 190.5 34 c 128,-1,5
 149 49 149 49 118 80.5 c 128,-1,6
 87 112 87 112 69 159 c 128,-1,7
 51 206 51 206 51 271 c 0,8,9
 51 328 51 328 68 375.5 c 128,-1,10
 85 423 85 423 117.5 457.5 c 128,-1,11
 150 492 150 492 197 511.5 c 128,-1,12
 244 531 244 531 303 531 c 0,13,14
 368 531 368 531 416.5 521.5 c 128,-1,15
 465 512 465 512 498 504 c 1,16,-1
 498 40 l 2,17,18
 498 -80 498 -80 436 -134 c 128,-1,19
 374 -188 374 -188 248 -188 c 0,20,21
 199 -188 199 -188 155.5 -180 c 128,-1,22
 112 -172 112 -172 80 -161 c 1,23,-1
 97 -80 l 1,24,25
 125 -91 125 -91 165.5 -99.5 c 128,-1,26
 206 -108 206 -108 250 -108 c 0,27,28
 333 -108 333 -108 369.5 -75 c 128,-1,29
 406 -42 406 -42 406 30 c 2,30,-1
 406 52 l 1,0,1
405 438 m 1,31,32
 391 442 391 442 367.5 445.5 c 128,-1,33
 344 449 344 449 304 449 c 0,34,35
 229 449 229 449 188.5 400 c 128,-1,36
 148 351 148 351 148 270 c 0,37,38
 148 225 148 225 159.5 193 c 128,-1,39
 171 161 171 161 190.5 140 c 128,-1,40
 210 119 210 119 235.5 109 c 128,-1,41
 261 99 261 99 288 99 c 0,42,43
 325 99 325 99 356 109.5 c 128,-1,44
 387 120 387 120 405 134 c 1,45,-1
 405 438 l 1,31,32
EndSplineSet
Substitution2: "'case' Case-Sensitive Forms lookup 19 subtable" G
EndChar

StartChar: h
Encoding: 104 104 75
Width: 571
Flags: W
LayerCount: 2
Fore
SplineSet
80 0 m 1,0,-1
 80 760 l 1,1,-1
 173 776 l 1,2,-1
 173 510 l 1,3,4
 199 520 199 520 228.5 525.5 c 128,-1,5
 258 531 258 531 287 531 c 0,6,7
 349 531 349 531 390 513.5 c 128,-1,8
 431 496 431 496 455.5 464.5 c 128,-1,9
 480 433 480 433 490 389 c 128,-1,10
 500 345 500 345 500 292 c 2,11,-1
 500 0 l 1,12,-1
 407 0 l 1,13,-1
 407 272 l 2,14,15
 407 320 407 320 400.5 354 c 128,-1,16
 394 388 394 388 379 409 c 128,-1,17
 364 430 364 430 339 439.5 c 128,-1,18
 314 449 314 449 277 449 c 0,19,20
 262 449 262 449 246 447 c 128,-1,21
 230 445 230 445 215.5 442.5 c 128,-1,22
 201 440 201 440 189.5 437 c 128,-1,23
 178 434 178 434 173 432 c 1,24,-1
 173 0 l 1,25,-1
 80 0 l 1,0,-1
EndSplineSet
Substitution2: "'case' Case-Sensitive Forms lookup 19 subtable" H
EndChar

StartChar: i
Encoding: 105 105 76
Width: 253
Flags: W
LayerCount: 2
Fore
SplineSet
173 0 m 1,0,-1
 80 0 l 1,1,-1
 80 520 l 1,2,-1
 173 520 l 1,3,-1
 173 0 l 1,0,-1
126 614 m 256,4,5
 101 614 101 614 83.5 630.5 c 128,-1,6
 66 647 66 647 66 675 c 256,7,8
 66 703 66 703 83.5 719.5 c 128,-1,9
 101 736 101 736 126 736 c 256,10,11
 151 736 151 736 168.5 719.5 c 128,-1,12
 186 703 186 703 186 675 c 256,13,14
 186 647 186 647 168.5 630.5 c 128,-1,15
 151 614 151 614 126 614 c 256,4,5
EndSplineSet
Substitution2: "'case' Case-Sensitive Forms lookup 19 subtable" I
Substitution2: "'locl' Localized Forms in Latin lookup 2 subtable" i.locl
Substitution2: "'locl' Localized Forms in Latin lookup 1 subtable" i.locl
Substitution2: "'locl' Localized Forms in Latin lookup 0 subtable" i.locl
EndChar

StartChar: j
Encoding: 106 106 77
Width: 253
Flags: W
LayerCount: 2
Fore
SplineSet
-5 -187 m 0,0,1
 -17 -187 -17 -187 -36 -184 c 128,-1,2
 -55 -181 -55 -181 -68 -176 c 1,3,-1
 -56 -100 l 1,4,5
 -46 -103 -46 -103 -33 -105 c 128,-1,6
 -20 -107 -20 -107 -9 -107 c 0,7,8
 39 -107 39 -107 59.5 -77.5 c 128,-1,9
 80 -48 80 -48 80 9 c 2,10,-1
 80 520 l 1,11,-1
 173 520 l 1,12,-1
 173 10 l 2,13,14
 173 -90 173 -90 127.5 -138.5 c 128,-1,15
 82 -187 82 -187 -5 -187 c 0,0,1
126 614 m 256,16,17
 101 614 101 614 83.5 630.5 c 128,-1,18
 66 647 66 647 66 675 c 256,19,20
 66 703 66 703 83.5 719.5 c 128,-1,21
 101 736 101 736 126 736 c 256,22,23
 151 736 151 736 168.5 719.5 c 128,-1,24
 186 703 186 703 186 675 c 256,25,26
 186 647 186 647 168.5 630.5 c 128,-1,27
 151 614 151 614 126 614 c 256,16,17
EndSplineSet
Substitution2: "'case' Case-Sensitive Forms lookup 19 subtable" J
EndChar

StartChar: k
Encoding: 107 107 78
Width: 522
Flags: W
LayerCount: 2
Fore
SplineSet
268 286 m 1,0,1
 298 263 298 263 331.5 229 c 128,-1,2
 365 195 365 195 397.5 155.5 c 128,-1,3
 430 116 430 116 459 75.5 c 128,-1,4
 488 35 488 35 508 0 c 1,5,-1
 399 0 l 1,6,7
 378 35 378 35 350.5 71.5 c 128,-1,8
 323 108 323 108 293 141.5 c 128,-1,9
 263 175 263 175 232 203 c 128,-1,10
 201 231 201 231 173 250 c 1,11,-1
 173 0 l 1,12,-1
 80 0 l 1,13,-1
 80 760 l 1,14,-1
 173 776 l 1,15,-1
 173 302 l 1,16,17
 197 326 197 326 226 355 c 128,-1,18
 255 384 255 384 283 414 c 128,-1,19
 311 444 311 444 336 471.5 c 128,-1,20
 361 499 361 499 379 520 c 1,21,-1
 488 520 l 1,22,23
 465 495 465 495 438 465 c 128,-1,24
 411 435 411 435 382 404.5 c 128,-1,25
 353 374 353 374 323.5 343.5 c 128,-1,26
 294 313 294 313 268 286 c 1,0,1
EndSplineSet
Substitution2: "'case' Case-Sensitive Forms lookup 19 subtable" K
EndChar

StartChar: l
Encoding: 108 108 79
Width: 273
Flags: W
LayerCount: 2
Fore
SplineSet
236 -10 m 1,0,1
 150 -8 150 -8 114 27 c 128,-1,2
 78 62 78 62 78 136 c 2,3,-1
 78 760 l 1,4,-1
 171 776 l 1,5,-1
 171 151 l 2,6,7
 171 128 171 128 175 113 c 128,-1,8
 179 98 179 98 188 89 c 128,-1,9
 197 80 197 80 212 75.5 c 128,-1,10
 227 71 227 71 249 68 c 1,11,-1
 236 -10 l 1,0,1
EndSplineSet
Substitution2: "'case' Case-Sensitive Forms lookup 19 subtable" L
EndChar

StartChar: m
Encoding: 109 109 80
Width: 861
Flags: W
AnchorPoint: "top" 432 573.9 basechar 0
LayerCount: 2
Fore
SplineSet
80 505 m 1,0,1
 112 513 112 513 164.5 522 c 128,-1,2
 217 531 217 531 286 531 c 0,3,4
 336 531 336 531 370 517.5 c 128,-1,5
 404 504 404 504 427 478 c 1,6,7
 434 483 434 483 449 492 c 128,-1,8
 464 501 464 501 486 509.5 c 128,-1,9
 508 518 508 518 535 524.5 c 128,-1,10
 562 531 562 531 593 531 c 0,11,12
 653 531 653 531 691 513.5 c 128,-1,13
 729 496 729 496 750.5 464 c 128,-1,14
 772 432 772 432 779.5 388 c 128,-1,15
 787 344 787 344 787 292 c 2,16,-1
 787 0 l 1,17,-1
 694 0 l 1,18,-1
 694 272 l 2,19,20
 694 318 694 318 689.5 351 c 128,-1,21
 685 384 685 384 672.5 406 c 128,-1,22
 660 428 660 428 638.5 438.5 c 128,-1,23
 617 449 617 449 583 449 c 0,24,25
 536 449 536 449 505.5 436.5 c 128,-1,26
 475 424 475 424 464 414 c 1,27,28
 472 388 472 388 476 357 c 128,-1,29
 480 326 480 326 480 292 c 2,30,-1
 480 0 l 1,31,-1
 387 0 l 1,32,-1
 387 272 l 2,33,34
 387 318 387 318 382 351 c 128,-1,35
 377 384 377 384 364.5 406 c 128,-1,36
 352 428 352 428 330.5 438.5 c 128,-1,37
 309 449 309 449 276 449 c 0,38,39
 262 449 262 449 246 448 c 128,-1,40
 230 447 230 447 215.5 445.5 c 128,-1,41
 201 444 201 444 189 442 c 128,-1,42
 177 440 177 440 173 439 c 1,43,-1
 173 0 l 1,44,-1
 80 0 l 1,45,-1
 80 505 l 1,0,1
EndSplineSet
Substitution2: "'case' Case-Sensitive Forms lookup 19 subtable" M
EndChar

StartChar: n
Encoding: 110 110 81
Width: 574
Flags: W
AnchorPoint: "top" 264 562 basechar 0
LayerCount: 2
Fore
SplineSet
80 505 m 1,0,1
 112 513 112 513 165 522 c 128,-1,2
 218 531 218 531 287 531 c 0,3,4
 349 531 349 531 390 513.5 c 128,-1,5
 431 496 431 496 455.5 464.5 c 128,-1,6
 480 433 480 433 490 389 c 128,-1,7
 500 345 500 345 500 292 c 2,8,-1
 500 0 l 1,9,-1
 407 0 l 1,10,-1
 407 272 l 2,11,12
 407 320 407 320 400.5 354 c 128,-1,13
 394 388 394 388 379 409 c 128,-1,14
 364 430 364 430 339 439.5 c 128,-1,15
 314 449 314 449 277 449 c 0,16,17
 262 449 262 449 246 448 c 128,-1,18
 230 447 230 447 215.5 445.5 c 128,-1,19
 201 444 201 444 189.5 442 c 128,-1,20
 178 440 178 440 173 439 c 1,21,-1
 173 0 l 1,22,-1
 80 0 l 1,23,-1
 80 505 l 1,0,1
EndSplineSet
Substitution2: "'case' Case-Sensitive Forms lookup 19 subtable" N
EndChar

StartChar: o
Encoding: 111 111 82
Width: 590
Flags: W
LayerCount: 2
Fore
SplineSet
539 260 m 0,0,1
 539 198 539 198 521 148 c 128,-1,2
 503 98 503 98 470.5 62 c 128,-1,3
 438 26 438 26 393 6.5 c 128,-1,4
 348 -13 348 -13 295 -13 c 256,5,6
 242 -13 242 -13 197 6.5 c 128,-1,7
 152 26 152 26 119.5 62 c 128,-1,8
 87 98 87 98 69 148 c 128,-1,9
 51 198 51 198 51 260 c 0,10,11
 51 321 51 321 69 371.5 c 128,-1,12
 87 422 87 422 119.5 458 c 128,-1,13
 152 494 152 494 197 513.5 c 128,-1,14
 242 533 242 533 295 533 c 256,15,16
 348 533 348 533 393 513.5 c 128,-1,17
 438 494 438 494 470.5 458 c 128,-1,18
 503 422 503 422 521 371.5 c 128,-1,19
 539 321 539 321 539 260 c 0,0,1
442 260 m 256,20,21
 442 348 442 348 402.5 399.5 c 128,-1,22
 363 451 363 451 295 451 c 256,23,24
 227 451 227 451 187.5 399.5 c 128,-1,25
 148 348 148 348 148 260 c 256,26,27
 148 172 148 172 187.5 120.5 c 128,-1,28
 227 69 227 69 295 69 c 256,29,30
 363 69 363 69 402.5 120.5 c 128,-1,31
 442 172 442 172 442 260 c 256,20,21
EndSplineSet
Substitution2: "'case' Case-Sensitive Forms lookup 19 subtable" O
Substitution2: "'ordn' Ordinals in Latin lookup 9 subtable" ordmasculine
EndChar

StartChar: p
Encoding: 112 112 83
Width: 589
Flags: W
LayerCount: 2
Fore
SplineSet
441 259 m 0,0,1
 441 350 441 350 396 399 c 128,-1,2
 351 448 351 448 276 448 c 0,3,4
 234 448 234 448 210.5 445 c 128,-1,5
 187 442 187 442 173 438 c 1,6,-1
 173 110 l 1,7,8
 190 96 190 96 222 83 c 128,-1,9
 254 70 254 70 292 70 c 0,10,11
 332 70 332 70 360.5 84.5 c 128,-1,12
 389 99 389 99 407 124.5 c 128,-1,13
 425 150 425 150 433 184.5 c 128,-1,14
 441 219 441 219 441 259 c 0,0,1
538 259 m 0,15,16
 538 200 538 200 522.5 150 c 128,-1,17
 507 100 507 100 477 64 c 128,-1,18
 447 28 447 28 403.5 8 c 128,-1,19
 360 -12 360 -12 304 -12 c 0,20,21
 259 -12 259 -12 224.5 0 c 128,-1,22
 190 12 190 12 173 23 c 1,23,-1
 173 -185 l 1,24,-1
 80 -185 l 1,25,-1
 80 504 l 1,26,27
 113 512 113 512 162.5 521.5 c 128,-1,28
 212 531 212 531 277 531 c 0,29,30
 337 531 337 531 385 512 c 128,-1,31
 433 493 433 493 467 458 c 128,-1,32
 501 423 501 423 519.5 372.5 c 128,-1,33
 538 322 538 322 538 259 c 0,15,16
EndSplineSet
Substitution2: "'case' Case-Sensitive Forms lookup 19 subtable" P
EndChar

StartChar: q
Encoding: 113 113 84
Width: 589
Flags: W
LayerCount: 2
Fore
SplineSet
148 259 m 0,0,1
 148 219 148 219 156 184.5 c 128,-1,2
 164 150 164 150 182 124.5 c 128,-1,3
 200 99 200 99 228.5 84.5 c 128,-1,4
 257 70 257 70 297 70 c 0,5,6
 335 70 335 70 367 83 c 128,-1,7
 399 96 399 96 416 110 c 1,8,-1
 416 438 l 1,9,10
 402 442 402 442 378.5 445 c 128,-1,11
 355 448 355 448 313 448 c 0,12,13
 238 448 238 448 193 399 c 128,-1,14
 148 350 148 350 148 259 c 0,0,1
51 259 m 0,15,16
 51 322 51 322 69.5 372.5 c 128,-1,17
 88 423 88 423 122 458 c 128,-1,18
 156 493 156 493 204 512 c 128,-1,19
 252 531 252 531 312 531 c 0,20,21
 377 531 377 531 426.5 521.5 c 128,-1,22
 476 512 476 512 509 504 c 1,23,-1
 509 -185 l 1,24,-1
 416 -185 l 1,25,-1
 416 23 l 1,26,27
 399 12 399 12 364.5 0 c 128,-1,28
 330 -12 330 -12 285 -12 c 0,29,30
 229 -12 229 -12 185.5 8 c 128,-1,31
 142 28 142 28 112 64 c 128,-1,32
 82 100 82 100 66.5 150 c 128,-1,33
 51 200 51 200 51 259 c 0,15,16
EndSplineSet
Substitution2: "'case' Case-Sensitive Forms lookup 19 subtable" Q
EndChar

StartChar: r
Encoding: 114 114 85
Width: 386
Flags: W
LayerCount: 2
Fore
SplineSet
272 531 m 0,0,1
 284 531 284 531 299.5 529.5 c 128,-1,2
 315 528 315 528 330 525.5 c 128,-1,3
 345 523 345 523 357.5 520.5 c 128,-1,4
 370 518 370 518 376 516 c 1,5,-1
 360 435 l 1,6,7
 349 439 349 439 323.5 444.5 c 128,-1,8
 298 450 298 450 258 450 c 0,9,10
 232 450 232 450 206.5 444.5 c 128,-1,11
 181 439 181 439 173 437 c 1,12,-1
 173 0 l 1,13,-1
 80 0 l 1,14,-1
 80 498 l 1,15,16
 113 510 113 510 162 520.5 c 128,-1,17
 211 531 211 531 272 531 c 0,0,1
EndSplineSet
Substitution2: "'case' Case-Sensitive Forms lookup 19 subtable" R
EndChar

StartChar: s
Encoding: 115 115 86
Width: 446
Flags: W
LayerCount: 2
Fore
SplineSet
201 67 m 0,0,1
 258 67 258 67 285.5 82 c 128,-1,2
 313 97 313 97 313 130 c 0,3,4
 313 164 313 164 286 184 c 128,-1,5
 259 204 259 204 197 229 c 0,6,7
 167 241 167 241 139.5 253.5 c 128,-1,8
 112 266 112 266 92 283 c 128,-1,9
 72 300 72 300 60 324 c 128,-1,10
 48 348 48 348 48 383 c 0,11,12
 48 452 48 452 99 492.5 c 128,-1,13
 150 533 150 533 238 533 c 0,14,15
 260 533 260 533 282 530.5 c 128,-1,16
 304 528 304 528 323 524.5 c 128,-1,17
 342 521 342 521 356.5 517 c 128,-1,18
 371 513 371 513 379 510 c 1,19,-1
 362 430 l 1,20,21
 347 438 347 438 315 446.5 c 128,-1,22
 283 455 283 455 238 455 c 0,23,24
 199 455 199 455 170 439.5 c 128,-1,25
 141 424 141 424 141 391 c 0,26,27
 141 374 141 374 147.5 361 c 128,-1,28
 154 348 154 348 167.5 337.5 c 128,-1,29
 181 327 181 327 201 318 c 128,-1,30
 221 309 221 309 249 299 c 0,31,32
 286 285 286 285 315 271.5 c 128,-1,33
 344 258 344 258 364.5 240 c 128,-1,34
 385 222 385 222 396 196.5 c 128,-1,35
 407 171 407 171 407 134 c 0,36,37
 407 62 407 62 353.5 25 c 128,-1,38
 300 -12 300 -12 201 -12 c 0,39,40
 132 -12 132 -12 93 -0.5 c 128,-1,41
 54 11 54 11 40 17 c 1,42,-1
 57 97 l 1,43,44
 73 91 73 91 108 79 c 128,-1,45
 143 67 143 67 201 67 c 0,0,1
EndSplineSet
Substitution2: "'case' Case-Sensitive Forms lookup 19 subtable" S
EndChar

StartChar: t
Encoding: 116 116 87
Width: 402
Flags: W
LayerCount: 2
Fore
SplineSet
167 520 m 1,0,-1
 364 520 l 1,1,-1
 364 442 l 1,2,-1
 167 442 l 1,3,-1
 167 202 l 2,4,5
 167 163 167 163 173 137.5 c 128,-1,6
 179 112 179 112 191 97.5 c 128,-1,7
 203 83 203 83 221 77 c 128,-1,8
 239 71 239 71 263 71 c 0,9,10
 305 71 305 71 330.5 80.5 c 128,-1,11
 356 90 356 90 366 94 c 1,12,-1
 384 17 l 1,13,14
 370 10 370 10 335 -0.5 c 128,-1,15
 300 -11 300 -11 255 -11 c 0,16,17
 202 -11 202 -11 167.5 2.5 c 128,-1,18
 133 16 133 16 112 43 c 128,-1,19
 91 70 91 70 82.5 109.5 c 128,-1,20
 74 149 74 149 74 201 c 2,21,-1
 74 665 l 1,22,-1
 167 681 l 1,23,-1
 167 520 l 1,0,-1
EndSplineSet
Substitution2: "'case' Case-Sensitive Forms lookup 19 subtable" T
EndChar

StartChar: u
Encoding: 117 117 88
Width: 574
Flags: W
LayerCount: 2
Fore
SplineSet
494 15 m 1,0,1
 462 7 462 7 409.5 -2 c 128,-1,2
 357 -11 357 -11 288 -11 c 0,3,4
 228 -11 228 -11 187 6.5 c 128,-1,5
 146 24 146 24 121 56 c 128,-1,6
 96 88 96 88 85 131.5 c 128,-1,7
 74 175 74 175 74 228 c 2,8,-1
 74 520 l 1,9,-1
 167 520 l 1,10,-1
 167 248 l 2,11,12
 167 153 167 153 197 112 c 128,-1,13
 227 71 227 71 298 71 c 0,14,15
 313 71 313 71 329 72 c 128,-1,16
 345 73 345 73 359 74.5 c 128,-1,17
 373 76 373 76 384.5 77.5 c 128,-1,18
 396 79 396 79 401 81 c 1,19,-1
 401 520 l 1,20,-1
 494 520 l 1,21,-1
 494 15 l 1,0,1
EndSplineSet
Substitution2: "'case' Case-Sensitive Forms lookup 19 subtable" U
EndChar

StartChar: v
Encoding: 118 118 89
Width: 502
Flags: W
LayerCount: 2
Fore
SplineSet
486 520 m 1,0,1
 447 374 447 374 394.5 240 c 128,-1,2
 342 106 342 106 293 0 c 1,3,-1
 209 0 l 1,4,5
 160 106 160 106 107.5 240 c 128,-1,6
 55 374 55 374 16 520 c 1,7,-1
 116 520 l 1,8,9
 128 471 128 471 144.5 415.5 c 128,-1,10
 161 360 161 360 179.5 305.5 c 128,-1,11
 198 251 198 251 217 200 c 128,-1,12
 236 149 236 149 253 109 c 1,13,14
 270 149 270 149 289 200 c 128,-1,15
 308 251 308 251 326.5 305.5 c 128,-1,16
 345 360 345 360 361.5 415.5 c 128,-1,17
 378 471 378 471 390 520 c 1,18,-1
 486 520 l 1,0,1
EndSplineSet
Substitution2: "'case' Case-Sensitive Forms lookup 19 subtable" V
EndChar

StartChar: w
Encoding: 119 119 90
Width: 777
Flags: W
LayerCount: 2
Fore
SplineSet
505 0 m 1,0,1
 477 72 477 72 445.5 164.5 c 128,-1,2
 414 257 414 257 388 357 c 1,3,4
 362 257 362 257 331 164.5 c 128,-1,5
 300 72 300 72 272 0 c 1,6,-1
 191 0 l 1,7,8
 145 103 145 103 101 235 c 128,-1,9
 57 367 57 367 18 520 c 1,10,-1
 118 520 l 1,11,12
 128 473 128 473 142 418 c 128,-1,13
 156 363 156 363 171.5 308 c 128,-1,14
 187 253 187 253 204 202 c 128,-1,15
 221 151 221 151 236 113 c 1,16,17
 253 160 253 160 269.5 212.5 c 128,-1,18
 286 265 286 265 301 318.5 c 128,-1,19
 316 372 316 372 329.5 423.5 c 128,-1,20
 343 475 343 475 353 520 c 1,21,-1
 430 520 l 1,22,23
 439 475 439 475 452 423.5 c 128,-1,24
 465 372 465 372 480 318.5 c 128,-1,25
 495 265 495 265 511.5 212.5 c 128,-1,26
 528 160 528 160 545 113 c 1,27,28
 560 151 560 151 576.5 202 c 128,-1,29
 593 253 593 253 609 308 c 128,-1,30
 625 363 625 363 639 418 c 128,-1,31
 653 473 653 473 663 520 c 1,32,-1
 759 520 l 1,33,34
 720 367 720 367 676 235 c 128,-1,35
 632 103 632 103 586 0 c 1,36,-1
 505 0 l 1,0,1
EndSplineSet
Substitution2: "'case' Case-Sensitive Forms lookup 19 subtable" W
EndChar

StartChar: x
Encoding: 120 120 91
Width: 511
Flags: W
LayerCount: 2
Fore
SplineSet
391 0 m 1,0,1
 380 22 380 22 364 49 c 128,-1,2
 348 76 348 76 329 104.5 c 128,-1,3
 310 133 310 133 290 161 c 128,-1,4
 270 189 270 189 251 214 c 1,5,6
 232 189 232 189 212 160.5 c 128,-1,7
 192 132 192 132 173.5 103.5 c 128,-1,8
 155 75 155 75 139 48 c 128,-1,9
 123 21 123 21 112 0 c 1,10,-1
 16 0 l 1,11,12
 51 68 51 68 99.5 138.5 c 128,-1,13
 148 209 148 209 196 273 c 1,14,-1
 24 520 l 1,15,-1
 129 520 l 1,16,-1
 253 338 l 1,17,-1
 378 520 l 1,18,-1
 477 520 l 1,19,-1
 309 279 l 1,20,21
 357 214 357 214 407.5 141.5 c 128,-1,22
 458 69 458 69 493 0 c 1,23,-1
 391 0 l 1,0,1
EndSplineSet
Substitution2: "'case' Case-Sensitive Forms lookup 19 subtable" X
EndChar

StartChar: y
Encoding: 121 121 92
Width: 497
Flags: W
LayerCount: 2
Fore
SplineSet
19 -97 m 1,0,1
 30 -102 30 -102 47.5 -106.5 c 128,-1,2
 65 -111 65 -111 82 -111 c 0,3,4
 137 -111 137 -111 168 -86.5 c 128,-1,5
 199 -62 199 -62 224 -7 c 1,6,7
 161 113 161 113 106.5 247.5 c 128,-1,8
 52 382 52 382 16 520 c 1,9,-1
 116 520 l 1,10,11
 127 475 127 475 142.5 423 c 128,-1,12
 158 371 158 371 177 316 c 128,-1,13
 196 261 196 261 218 206 c 128,-1,14
 240 151 240 151 264 100 c 1,15,16
 302 205 302 205 330 308 c 128,-1,17
 358 411 358 411 383 520 c 1,18,-1
 479 520 l 1,19,20
 443 373 443 373 399 237.5 c 128,-1,21
 355 102 355 102 304 -16 c 0,22,23
 284 -61 284 -61 262.5 -93.5 c 128,-1,24
 241 -126 241 -126 215 -147 c 128,-1,25
 189 -168 189 -168 156.5 -178 c 128,-1,26
 124 -188 124 -188 83 -188 c 0,27,28
 72 -188 72 -188 60 -186.5 c 128,-1,29
 48 -185 48 -185 36.5 -182.5 c 128,-1,30
 25 -180 25 -180 15.5 -177 c 128,-1,31
 6 -174 6 -174 2 -172 c 1,32,-1
 19 -97 l 1,0,1
EndSplineSet
Substitution2: "'case' Case-Sensitive Forms lookup 19 subtable" Y
EndChar

StartChar: z
Encoding: 122 122 93
Width: 471
Flags: W
LayerCount: 2
Fore
SplineSet
425 450 m 1,0,1
 404 427 404 427 369.5 385 c 128,-1,2
 335 343 335 343 295.5 292 c 128,-1,3
 256 241 256 241 216.5 185 c 128,-1,4
 177 129 177 129 147 78 c 1,5,-1
 433 78 l 1,6,-1
 433 0 l 1,7,-1
 36 0 l 1,8,-1
 36 62 l 1,9,10
 60 106 60 106 95 159 c 128,-1,11
 130 212 130 212 168.5 264.5 c 128,-1,12
 207 317 207 317 243.5 363.5 c 128,-1,13
 280 410 280 410 307 442 c 1,14,-1
 50 442 l 1,15,-1
 50 520 l 1,16,-1
 425 520 l 1,17,-1
 425 450 l 1,0,1
EndSplineSet
Substitution2: "'case' Case-Sensitive Forms lookup 19 subtable" Z
EndChar

StartChar: braceleft
Encoding: 123 123 94
Width: 333
Flags: W
LayerCount: 2
Fore
SplineSet
40 335 m 1,0,1
 64 335 64 335 81 343.5 c 128,-1,2
 98 352 98 352 109.5 365.5 c 128,-1,3
 121 379 121 379 126.5 396.5 c 128,-1,4
 132 414 132 414 132 432 c 2,5,-1
 132 612 l 2,6,7
 132 653 132 653 141 685 c 128,-1,8
 150 717 150 717 172 738.5 c 128,-1,9
 194 760 194 760 230.5 771.5 c 128,-1,10
 267 783 267 783 321 783 c 2,11,-1
 325 783 l 1,12,-1
 325 710 l 1,13,14
 268 710 268 710 243.5 689.5 c 128,-1,15
 219 669 219 669 219 611 c 2,16,-1
 219 457 l 2,17,18
 219 391 219 391 201.5 355 c 128,-1,19
 184 319 184 319 152 299 c 1,20,21
 184 279 184 279 201.5 243 c 128,-1,22
 219 207 219 207 219 141 c 2,23,-1
 219 -13 l 2,24,25
 219 -71 219 -71 243.5 -91.5 c 128,-1,26
 268 -112 268 -112 325 -112 c 1,27,-1
 325 -185 l 1,28,-1
 321 -185 l 2,29,30
 267 -185 267 -185 230.5 -174 c 128,-1,31
 194 -163 194 -163 172 -141 c 128,-1,32
 150 -119 150 -119 141 -87 c 128,-1,33
 132 -55 132 -55 132 -14 c 2,34,-1
 132 166 l 2,35,36
 132 184 132 184 126.5 201.5 c 128,-1,37
 121 219 121 219 109.5 232.5 c 128,-1,38
 98 246 98 246 81 254.5 c 128,-1,39
 64 263 64 263 40 263 c 1,40,-1
 40 335 l 1,0,1
EndSplineSet
Substitution2: "'case' Case-Sensitive Forms lookup 18 subtable" Braceleft
EndChar

StartChar: bar
Encoding: 124 124 95
Width: 279
Flags: W
LayerCount: 2
Fore
SplineSet
96 783 m 1,0,-1
 183 783 l 1,1,-1
 183 -185 l 1,2,-1
 96 -185 l 1,3,-1
 96 783 l 1,0,-1
EndSplineSet
EndChar

StartChar: braceright
Encoding: 125 125 96
Width: 333
Flags: W
LayerCount: 2
Fore
SplineSet
293 263 m 1,0,1
 269 263 269 263 252 254.5 c 128,-1,2
 235 246 235 246 223.5 232.5 c 128,-1,3
 212 219 212 219 206.5 201.5 c 128,-1,4
 201 184 201 184 201 166 c 2,5,-1
 201 -14 l 2,6,7
 201 -55 201 -55 192 -87 c 128,-1,8
 183 -119 183 -119 161 -141 c 128,-1,9
 139 -163 139 -163 102.5 -174 c 128,-1,10
 66 -185 66 -185 12 -185 c 2,11,-1
 8 -185 l 1,12,-1
 8 -112 l 1,13,14
 65 -112 65 -112 89.5 -91.5 c 128,-1,15
 114 -71 114 -71 114 -13 c 2,16,-1
 114 141 l 2,17,18
 114 207 114 207 131.5 243 c 128,-1,19
 149 279 149 279 181 299 c 1,20,21
 149 319 149 319 131.5 355 c 128,-1,22
 114 391 114 391 114 457 c 2,23,-1
 114 611 l 2,24,25
 114 669 114 669 89.5 689.5 c 128,-1,26
 65 710 65 710 8 710 c 1,27,-1
 8 783 l 1,28,-1
 12 783 l 2,29,30
 66 783 66 783 102.5 771.5 c 128,-1,31
 139 760 139 760 161 738.5 c 128,-1,32
 183 717 183 717 192 685 c 128,-1,33
 201 653 201 653 201 612 c 2,34,-1
 201 432 l 2,35,36
 201 414 201 414 206.5 396.5 c 128,-1,37
 212 379 212 379 223.5 365.5 c 128,-1,38
 235 352 235 352 252 343.5 c 128,-1,39
 269 335 269 335 293 335 c 1,40,-1
 293 263 l 1,0,1
EndSplineSet
Substitution2: "'case' Case-Sensitive Forms lookup 18 subtable" Braceright
EndChar

StartChar: asciitilde
Encoding: 126 126 97
Width: 564
Flags: W
LayerCount: 2
Fore
SplineSet
520 357 m 1,0,1
 516 337 516 337 507.5 313 c 128,-1,2
 499 289 499 289 483 267.5 c 128,-1,3
 467 246 467 246 442.5 231.5 c 128,-1,4
 418 217 418 217 383 217 c 0,5,6
 353 217 353 217 327.5 229 c 128,-1,7
 302 241 302 241 279 255 c 0,8,9
 252 271 252 271 227 286.5 c 128,-1,10
 202 302 202 302 174 302 c 0,11,12
 158 302 158 302 147 294.5 c 128,-1,13
 136 287 136 287 128 275.5 c 128,-1,14
 120 264 120 264 115 250.5 c 128,-1,15
 110 237 110 237 106 224 c 1,16,-1
 42 242 l 1,17,18
 46 261 46 261 55 285.5 c 128,-1,19
 64 310 64 310 79.5 331.5 c 128,-1,20
 95 353 95 353 119.5 367.5 c 128,-1,21
 144 382 144 382 179 382 c 0,22,23
 209 382 209 382 234.5 370 c 128,-1,24
 260 358 260 358 283 344 c 0,25,26
 310 328 310 328 335 312.5 c 128,-1,27
 360 297 360 297 388 297 c 0,28,29
 404 297 404 297 415 304.5 c 128,-1,30
 426 312 426 312 434 323.5 c 128,-1,31
 442 335 442 335 447 348.5 c 128,-1,32
 452 362 452 362 456 375 c 1,33,-1
 520 357 l 1,0,1
EndSplineSet
EndChar

StartChar: Euro
Encoding: 8364 8364 98
Width: 564
Flags: W
LayerCount: 2
Fore
SplineSet
137 472 m 1,0,1
 160 589 160 589 228 647.5 c 128,-1,2
 296 706 296 706 402 706 c 0,3,4
 446 706 446 706 475 700.5 c 128,-1,5
 504 695 504 695 533 686 c 1,6,-1
 513 606 l 1,7,8
 489 615 489 615 460.5 620.5 c 128,-1,9
 432 626 432 626 402 626 c 0,10,11
 364 626 364 626 335.5 615 c 128,-1,12
 307 604 307 604 286.5 584 c 128,-1,13
 266 564 266 564 253 535.5 c 128,-1,14
 240 507 240 507 233 472 c 1,15,-1
 466 472 l 1,16,-1
 452 400 l 1,17,-1
 223 400 l 1,18,19
 222 387 222 387 222 374 c 128,-1,20
 222 361 222 361 222 347 c 0,21,22
 222 334 222 334 222 322 c 128,-1,23
 222 310 222 310 223 299 c 1,24,-1
 432 299 l 1,25,-1
 418 227 l 1,26,-1
 231 227 l 1,27,28
 248 138 248 138 292.5 103 c 128,-1,29
 337 68 337 68 404 68 c 0,30,31
 446 68 446 68 476.5 76 c 128,-1,32
 507 84 507 84 531 95 c 1,33,-1
 551 16 l 1,34,35
 534 7 534 7 492 -3 c 128,-1,36
 450 -13 450 -13 399 -13 c 0,37,38
 282 -13 282 -13 218 50.5 c 128,-1,39
 154 114 154 114 135 227 c 1,40,-1
 45 227 l 1,41,-1
 45 299 l 1,42,-1
 127 299 l 1,43,44
 126 310 126 310 126 322 c 128,-1,45
 126 334 126 334 126 347 c 0,46,47
 126 361 126 361 126 374 c 128,-1,48
 126 387 126 387 127 400 c 1,49,-1
 45 400 l 1,50,-1
 45 472 l 1,51,-1
 137 472 l 1,0,1
EndSplineSet
EndChar

StartChar: quotesinglbase
Encoding: 8218 8218 99
Width: 235
Flags: W
LayerCount: 2
Fore
SplineSet
175 114 m 1,0,1
 175 103 175 103 175 92.5 c 128,-1,2
 175 82 175 82 174 72 c 0,3,4
 170 20 170 20 151 -31 c 128,-1,5
 132 -82 132 -82 105 -126 c 1,6,-1
 33 -103 l 1,7,8
 54 -59 54 -59 64.5 -14 c 128,-1,9
 75 31 75 31 75 70 c 0,10,11
 75 80 75 80 74.5 91.5 c 128,-1,12
 74 103 74 103 73 114 c 1,13,-1
 175 114 l 1,0,1
EndSplineSet
EndChar

StartChar: florin
Encoding: 402 402 100
Width: 386
Flags: W
LayerCount: 2
Fore
SplineSet
285 776 m 0,0,1
 324 776 324 776 353.5 770 c 128,-1,2
 383 764 383 764 395 759 c 1,3,-1
 378 679 l 1,4,5
 367 685 367 685 344.5 690.5 c 128,-1,6
 322 696 322 696 293 696 c 0,7,8
 225 696 225 696 199 661 c 128,-1,9
 173 626 173 626 173 565 c 2,10,-1
 173 520 l 1,11,-1
 373 520 l 1,12,-1
 373 442 l 1,13,-1
 173 442 l 1,14,-1
 173 10 l 2,15,16
 173 -90 173 -90 127.5 -138.5 c 128,-1,17
 82 -187 82 -187 1 -187 c 0,18,19
 -40 -187 -40 -187 -68 -176 c 1,20,-1
 -56 -100 l 1,21,22
 -45 -103 -45 -103 -32.5 -105 c 128,-1,23
 -20 -107 -20 -107 -7 -107 c 0,24,25
 40 -107 40 -107 60 -77.5 c 128,-1,26
 80 -48 80 -48 80 9 c 2,27,-1
 80 567 l 2,28,29
 80 667 80 667 128.5 721.5 c 128,-1,30
 177 776 177 776 285 776 c 0,0,1
EndSplineSet
EndChar

StartChar: dagger
Encoding: 8224 8224 103
Width: 476
Flags: W
LayerCount: 2
Fore
SplineSet
278 399 m 1,0,-1
 278 144 l 2,1,2
 278 60 278 60 274 -8.5 c 128,-1,3
 270 -77 270 -77 261 -145 c 1,4,-1
 215 -145 l 1,5,6
 206 -77 206 -77 202 -8.5 c 128,-1,7
 198 60 198 60 198 144 c 2,8,-1
 198 399 l 1,9,-1
 39 399 l 1,10,-1
 39 476 l 1,11,-1
 198 476 l 1,12,-1
 198 693 l 1,13,-1
 278 693 l 1,14,-1
 278 476 l 1,15,-1
 437 476 l 1,16,-1
 437 399 l 1,17,-1
 278 399 l 1,0,-1
EndSplineSet
EndChar

StartChar: daggerdbl
Encoding: 8225 8225 104
Width: 476
Flags: W
LayerCount: 2
Fore
SplineSet
278 134 m 1,0,1
 278 53 278 53 274 -12.5 c 128,-1,2
 270 -78 270 -78 261 -145 c 1,3,-1
 215 -145 l 1,4,5
 206 -78 206 -78 202 -12.5 c 128,-1,6
 198 53 198 53 198 134 c 1,7,-1
 39 134 l 1,8,-1
 39 211 l 1,9,-1
 198 211 l 1,10,-1
 198 399 l 1,11,-1
 39 399 l 1,12,-1
 39 476 l 1,13,-1
 198 476 l 1,14,-1
 198 693 l 1,15,-1
 278 693 l 1,16,-1
 278 476 l 1,17,-1
 437 476 l 1,18,-1
 437 399 l 1,19,-1
 278 399 l 1,20,-1
 278 211 l 1,21,-1
 437 211 l 1,22,-1
 437 134 l 1,23,-1
 278 134 l 1,0,1
EndSplineSet
EndChar

StartChar: circumflex
Encoding: 710 710 105
Width: 376
Flags: W
LayerCount: 2
Fore
SplineSet
188 769 m 1,0,-1
 324 626 l 1,1,-1
 285 582 l 1,2,-1
 188 670 l 1,3,-1
 91 582 l 1,4,-1
 52 626 l 1,5,-1
 188 769 l 1,0,-1
EndSplineSet
EndChar

StartChar: perthousand
Encoding: 8240 8240 106
Width: 1227
Flags: W
LayerCount: 2
Fore
SplineSet
50 524 m 256,0,1
 50 569 50 569 62 603 c 128,-1,2
 74 637 74 637 95.5 660.5 c 128,-1,3
 117 684 117 684 146 696 c 128,-1,4
 175 708 175 708 209 708 c 256,5,6
 243 708 243 708 272 696 c 128,-1,7
 301 684 301 684 322.5 660.5 c 128,-1,8
 344 637 344 637 356 603 c 128,-1,9
 368 569 368 569 368 524 c 256,10,11
 368 479 368 479 356 445 c 128,-1,12
 344 411 344 411 322.5 387.5 c 128,-1,13
 301 364 301 364 272 352 c 128,-1,14
 243 340 243 340 209 340 c 256,15,16
 175 340 175 340 146 352 c 128,-1,17
 117 364 117 364 95.5 387.5 c 128,-1,18
 74 411 74 411 62 445 c 128,-1,19
 50 479 50 479 50 524 c 256,0,1
290 524 m 256,20,21
 290 578 290 578 269 608.5 c 128,-1,22
 248 639 248 639 209 639 c 256,23,24
 170 639 170 639 149 608.5 c 128,-1,25
 128 578 128 578 128 524 c 256,26,27
 128 470 128 470 149 439.5 c 128,-1,28
 170 409 170 409 209 409 c 256,29,30
 248 409 248 409 269 439.5 c 128,-1,31
 290 470 290 470 290 524 c 256,20,21
490 169 m 256,32,33
 490 214 490 214 502 248 c 128,-1,34
 514 282 514 282 535.5 305.5 c 128,-1,35
 557 329 557 329 586 341 c 128,-1,36
 615 353 615 353 649 353 c 256,37,38
 683 353 683 353 712 341 c 128,-1,39
 741 329 741 329 762.5 305.5 c 128,-1,40
 784 282 784 282 796 248 c 128,-1,41
 808 214 808 214 808 169 c 256,42,43
 808 124 808 124 796 90 c 128,-1,44
 784 56 784 56 762.5 32.5 c 128,-1,45
 741 9 741 9 712 -3 c 128,-1,46
 683 -15 683 -15 649 -15 c 256,47,48
 615 -15 615 -15 586 -3 c 128,-1,49
 557 9 557 9 535.5 32.5 c 128,-1,50
 514 56 514 56 502 90 c 128,-1,51
 490 124 490 124 490 169 c 256,32,33
730 169 m 256,52,53
 730 223 730 223 709 253.5 c 128,-1,54
 688 284 688 284 649 284 c 256,55,56
 610 284 610 284 589 253.5 c 128,-1,57
 568 223 568 223 568 169 c 256,58,59
 568 115 568 115 589 84.5 c 128,-1,60
 610 54 610 54 649 54 c 256,61,62
 688 54 688 54 709 84.5 c 128,-1,63
 730 115 730 115 730 169 c 256,52,53
670 693 m 1,64,-1
 279 0 l 1,65,-1
 188 0 l 1,66,-1
 579 693 l 1,67,-1
 670 693 l 1,64,-1
859 169 m 256,68,69
 859 214 859 214 871 248 c 128,-1,70
 883 282 883 282 904.5 305.5 c 128,-1,71
 926 329 926 329 955 341 c 128,-1,72
 984 353 984 353 1018 353 c 256,73,74
 1052 353 1052 353 1081 341 c 128,-1,75
 1110 329 1110 329 1131.5 305.5 c 128,-1,76
 1153 282 1153 282 1165 248 c 128,-1,77
 1177 214 1177 214 1177 169 c 256,78,79
 1177 124 1177 124 1165 90 c 128,-1,80
 1153 56 1153 56 1131.5 32.5 c 128,-1,81
 1110 9 1110 9 1081 -3 c 128,-1,82
 1052 -15 1052 -15 1018 -15 c 256,83,84
 984 -15 984 -15 955 -3 c 128,-1,85
 926 9 926 9 904.5 32.5 c 128,-1,86
 883 56 883 56 871 90 c 128,-1,87
 859 124 859 124 859 169 c 256,68,69
1099 169 m 256,88,89
 1099 223 1099 223 1078 253.5 c 128,-1,90
 1057 284 1057 284 1018 284 c 256,91,92
 979 284 979 284 958 253.5 c 128,-1,93
 937 223 937 223 937 169 c 256,94,95
 937 115 937 115 958 84.5 c 128,-1,96
 979 54 979 54 1018 54 c 256,97,98
 1057 54 1057 54 1078 84.5 c 128,-1,99
 1099 115 1099 115 1099 169 c 256,88,89
EndSplineSet
EndChar

StartChar: guilsinglleft
Encoding: 8249 8249 108
Width: 291
Flags: W
LayerCount: 2
Fore
SplineSet
30 284 m 1,0,-1
 186 505 l 1,1,-1
 251 470 l 1,2,-1
 140 284 l 1,3,-1
 251 98 l 1,4,-1
 186 63 l 1,5,-1
 30 284 l 1,0,-1
EndSplineSet
Substitution2: "'case' Case-Sensitive Forms lookup 18 subtable" Guilsinglleft
EndChar

StartChar: OE
Encoding: 338 338 109
Width: 993
Flags: W
LayerCount: 2
Fore
SplineSet
161 347 m 0,0,1
 161 283 161 283 180 233 c 128,-1,2
 199 183 199 183 234.5 148.5 c 128,-1,3
 270 114 270 114 321 95.5 c 128,-1,4
 372 77 372 77 435 77 c 0,5,6
 458 77 458 77 474.5 77.5 c 128,-1,7
 491 78 491 78 502 79 c 0,8,9
 514 80 514 80 523 82 c 1,10,-1
 523 611 l 1,11,12
 501 614 501 614 479 615 c 128,-1,13
 457 616 457 616 435 616 c 0,14,15
 372 616 372 616 321 597.5 c 128,-1,16
 270 579 270 579 234.5 544.5 c 128,-1,17
 199 510 199 510 180 460 c 128,-1,18
 161 410 161 410 161 347 c 0,0,1
435 -7 m 0,19,20
 354 -7 354 -7 285 15 c 128,-1,21
 216 37 216 37 165.5 81 c 128,-1,22
 115 125 115 125 86.5 191.5 c 128,-1,23
 58 258 58 258 58 347 c 256,24,25
 58 436 58 436 87 502 c 128,-1,26
 116 568 116 568 166.5 612 c 128,-1,27
 217 656 217 656 286 678 c 128,-1,28
 355 700 355 700 436 700 c 0,29,30
 459 700 459 700 487 698 c 128,-1,31
 515 696 515 696 540 693 c 1,32,-1
 931 693 l 1,33,-1
 931 612 l 1,34,-1
 620 612 l 1,35,-1
 620 403 l 1,36,-1
 895 403 l 1,37,-1
 895 324 l 1,38,-1
 620 324 l 1,39,-1
 620 81 l 1,40,-1
 956 81 l 1,41,-1
 956 0 l 1,42,-1
 540 0 l 1,43,44
 515 -3 515 -3 486.5 -5 c 128,-1,45
 458 -7 458 -7 435 -7 c 0,19,20
EndSplineSet
EndChar

StartChar: quoteleft
Encoding: 8216 8216 110
Width: 235
Flags: W
LayerCount: 2
Fore
SplineSet
60 520 m 1,0,1
 60 531 60 531 60 541.5 c 128,-1,2
 60 552 60 552 61 562 c 0,3,4
 65 614 65 614 84 665 c 128,-1,5
 103 716 103 716 130 760 c 1,6,-1
 202 737 l 1,7,8
 181 693 181 693 170.5 648 c 128,-1,9
 160 603 160 603 160 564 c 0,10,11
 160 554 160 554 160.5 542.5 c 128,-1,12
 161 531 161 531 162 520 c 1,13,-1
 60 520 l 1,0,1
EndSplineSet
EndChar

StartChar: quoteright
Encoding: 8217 8217 111
Width: 235
Flags: W
LayerCount: 2
Fore
SplineSet
175 750 m 1,0,1
 175 739 175 739 175 728.5 c 128,-1,2
 175 718 175 718 174 708 c 0,3,4
 170 656 170 656 151 605.5 c 128,-1,5
 132 555 132 555 105 510 c 1,6,-1
 33 533 l 1,7,8
 54 578 54 578 64.5 622.5 c 128,-1,9
 75 667 75 667 75 706 c 0,10,11
 75 716 75 716 74.5 727.5 c 128,-1,12
 74 739 74 739 73 750 c 1,13,-1
 175 750 l 1,0,1
EndSplineSet
EndChar

StartChar: bullet
Encoding: 8226 8226 114
Width: 360
Flags: W
LayerCount: 2
Fore
SplineSet
308 353 m 0,0,1
 308 327 308 327 299 304 c 128,-1,2
 290 281 290 281 273.5 264 c 128,-1,3
 257 247 257 247 233.5 236.5 c 128,-1,4
 210 226 210 226 180 226 c 256,5,6
 150 226 150 226 126.5 236.5 c 128,-1,7
 103 247 103 247 86.5 264 c 128,-1,8
 70 281 70 281 61 304 c 128,-1,9
 52 327 52 327 52 353 c 0,10,11
 52 378 52 378 61 401.5 c 128,-1,12
 70 425 70 425 86.5 442 c 128,-1,13
 103 459 103 459 126.5 469.5 c 128,-1,14
 150 480 150 480 180 480 c 256,15,16
 210 480 210 480 233.5 469.5 c 128,-1,17
 257 459 257 459 273.5 442 c 128,-1,18
 290 425 290 425 299 401.5 c 128,-1,19
 308 378 308 378 308 353 c 0,0,1
EndSplineSet
Substitution2: "'case' Case-Sensitive Forms lookup 18 subtable" Bullet
EndChar

StartChar: endash
Encoding: 8211 8211 115
Width: 496
Flags: W
LayerCount: 2
Fore
SplineSet
-2 339 m 1,0,-1
 498 339 l 1,1,-1
 498 260 l 1,2,-1
 -2 260 l 1,3,-1
 -2 339 l 1,0,-1
EndSplineSet
Substitution2: "'case' Case-Sensitive Forms lookup 18 subtable" Endash
EndChar

StartChar: emdash
Encoding: 8212 8212 116
Width: 996
Flags: W
LayerCount: 2
Fore
SplineSet
-2 339 m 1,0,-1
 998 339 l 1,1,-1
 998 260 l 1,2,-1
 -2 260 l 1,3,-1
 -2 339 l 1,0,-1
EndSplineSet
Substitution2: "'case' Case-Sensitive Forms lookup 18 subtable" Emdash
EndChar

StartChar: tilde
Encoding: 732 732 117
Width: 376
Flags: W
LayerCount: 2
Fore
SplineSet
352 711 m 1,0,1
 347 699 347 699 338.5 683 c 128,-1,2
 330 667 330 667 317 653.5 c 128,-1,3
 304 640 304 640 286.5 630.5 c 128,-1,4
 269 621 269 621 248 621 c 0,5,6
 228 621 228 621 210.5 628 c 128,-1,7
 193 635 193 635 177 643 c 0,8,9
 160 651 160 651 148 655 c 128,-1,10
 136 659 136 659 125 659 c 0,11,12
 108 659 108 659 93.5 645 c 128,-1,13
 79 631 79 631 71 615 c 1,14,-1
 23 639 l 1,15,16
 27 651 27 651 36 667 c 128,-1,17
 45 683 45 683 58 696.5 c 128,-1,18
 71 710 71 710 88.5 719.5 c 128,-1,19
 106 729 106 729 127 729 c 0,20,21
 147 729 147 729 164.5 722 c 128,-1,22
 182 715 182 715 198 707 c 0,23,24
 215 699 215 699 227 695 c 128,-1,25
 239 691 239 691 250 691 c 0,26,27
 267 691 267 691 281.5 705 c 128,-1,28
 296 719 296 719 304 735 c 1,29,-1
 352 711 l 1,0,1
EndSplineSet
EndChar

StartChar: trademark
Encoding: 8482 8482 118
Width: 759
Flags: W
LayerCount: 2
Fore
SplineSet
302 693 m 1,0,-1
 302 632 l 1,1,-1
 197 632 l 1,2,-1
 197 360 l 1,3,-1
 128 360 l 1,4,-1
 128 632 l 1,5,-1
 23 632 l 1,6,-1
 23 693 l 1,7,-1
 302 693 l 1,0,-1
682 693 m 1,8,9
 690 642 690 642 696 562.5 c 128,-1,10
 702 483 702 483 710 360 c 1,11,-1
 640 360 l 1,12,13
 639 385 639 385 638 413.5 c 128,-1,14
 637 442 637 442 635.5 470.5 c 128,-1,15
 634 499 634 499 632 527 c 128,-1,16
 630 555 630 555 628 579 c 1,17,18
 617 560 617 560 604 534.5 c 128,-1,19
 591 509 591 509 578.5 484 c 128,-1,20
 566 459 566 459 554.5 437 c 128,-1,21
 543 415 543 415 537 402 c 1,22,-1
 488 402 l 1,23,24
 482 415 482 415 470.5 437 c 128,-1,25
 459 459 459 459 446.5 484 c 128,-1,26
 434 509 434 509 420.5 534.5 c 128,-1,27
 407 560 407 560 397 579 c 1,28,29
 395 555 395 555 393 527 c 128,-1,30
 391 499 391 499 389.5 470.5 c 128,-1,31
 388 442 388 442 387 413.5 c 128,-1,32
 386 385 386 385 385 360 c 1,33,-1
 316 360 l 1,34,35
 324 483 324 483 330 562.5 c 128,-1,36
 336 642 336 642 344 693 c 1,37,-1
 410 693 l 1,38,39
 418 676 418 676 430 652 c 128,-1,40
 442 628 442 628 456 600 c 128,-1,41
 470 572 470 572 484.5 543 c 128,-1,42
 499 514 499 514 513 487 c 1,43,44
 526 514 526 514 541 543 c 128,-1,45
 556 572 556 572 570 600 c 128,-1,46
 584 628 584 628 596 652 c 128,-1,47
 608 676 608 676 616 693 c 1,48,-1
 682 693 l 1,8,9
EndSplineSet
EndChar

StartChar: guilsinglright
Encoding: 8250 8250 120
Width: 291
Flags: W
LayerCount: 2
Fore
SplineSet
105 63 m 1,0,-1
 40 98 l 1,1,-1
 151 284 l 1,2,-1
 40 470 l 1,3,-1
 105 505 l 1,4,-1
 261 284 l 1,5,-1
 105 63 l 1,0,-1
EndSplineSet
Substitution2: "'case' Case-Sensitive Forms lookup 18 subtable" Guilsinglright
EndChar

StartChar: oe
Encoding: 339 339 121
Width: 947
Flags: W
LayerCount: 2
Fore
SplineSet
701 -12 m 0,0,1
 622 -12 622 -12 569.5 17 c 128,-1,2
 517 46 517 46 488 97 c 1,3,4
 456 43 456 43 407 15 c 128,-1,5
 358 -13 358 -13 295 -13 c 0,6,7
 242 -13 242 -13 197 6.5 c 128,-1,8
 152 26 152 26 119.5 62 c 128,-1,9
 87 98 87 98 69 148 c 128,-1,10
 51 198 51 198 51 260 c 0,11,12
 51 321 51 321 69 371.5 c 128,-1,13
 87 422 87 422 119.5 458 c 128,-1,14
 152 494 152 494 197 513.5 c 128,-1,15
 242 533 242 533 295 533 c 0,16,17
 358 533 358 533 407.5 503.5 c 128,-1,18
 457 474 457 474 488 423 c 1,19,20
 521 479 521 479 571.5 506 c 128,-1,21
 622 533 622 533 676 533 c 0,22,23
 780 533 780 533 836.5 467 c 128,-1,24
 893 401 893 401 893 268 c 0,25,26
 893 260 893 260 892.5 254.5 c 128,-1,27
 892 249 892 249 892 244 c 2,28,-1
 892 235 l 1,29,-1
 536 235 l 1,30,31
 542 155 542 155 583.5 112.5 c 128,-1,32
 625 70 625 70 711 70 c 0,33,34
 760 70 760 70 793.5 78.5 c 128,-1,35
 827 87 827 87 844 95 c 1,36,-1
 857 17 l 1,37,38
 840 8 840 8 797.5 -2 c 128,-1,39
 755 -12 755 -12 701 -12 c 0,0,1
442 260 m 256,40,41
 442 348 442 348 402.5 399.5 c 128,-1,42
 363 451 363 451 295 451 c 256,43,44
 227 451 227 451 187.5 399.5 c 128,-1,45
 148 348 148 348 148 260 c 256,46,47
 148 172 148 172 187.5 120.5 c 128,-1,48
 227 69 227 69 295 69 c 256,49,50
 363 69 363 69 402.5 120.5 c 128,-1,51
 442 172 442 172 442 260 c 256,40,41
796 310 m 1,52,53
 797 373 797 373 764.5 413.5 c 128,-1,54
 732 454 732 454 675 454 c 0,55,56
 643 454 643 454 618.5 441.5 c 128,-1,57
 594 429 594 429 577.5 409 c 128,-1,58
 561 389 561 389 551 363 c 128,-1,59
 541 337 541 337 538 310 c 1,60,-1
 796 310 l 1,52,53
EndSplineSet
Substitution2: "'case' Case-Sensitive Forms lookup 19 subtable" OE
EndChar

StartChar: exclamdown
Encoding: 161 161 124
Width: 276
Flags: W
LayerCount: 2
Fore
SplineSet
88 2 m 2,0,1
 88 86 88 86 94 154.5 c 128,-1,2
 100 223 100 223 109 291 c 1,3,-1
 167 291 l 1,4,5
 176 223 176 223 182 154.5 c 128,-1,6
 188 86 188 86 188 2 c 2,7,-1
 188 -185 l 1,8,-1
 88 -185 l 1,9,-1
 88 2 l 2,0,1
71 453 m 256,10,11
 71 480 71 480 89 500 c 128,-1,12
 107 520 107 520 138 520 c 256,13,14
 169 520 169 520 187 500 c 128,-1,15
 205 480 205 480 205 453 c 256,16,17
 205 426 205 426 187 406 c 128,-1,18
 169 386 169 386 138 386 c 256,19,20
 107 386 107 386 89 406 c 128,-1,21
 71 426 71 426 71 453 c 256,10,11
EndSplineSet
Substitution2: "'case' Case-Sensitive Forms lookup 18 subtable" Exclamdown
EndChar

StartChar: cent
Encoding: 162 162 125
Width: 564
Flags: W
LayerCount: 2
Fore
SplineSet
86 291 m 256,0,1
 86 340 86 340 99.5 383 c 128,-1,2
 113 426 113 426 137.5 460 c 128,-1,3
 162 494 162 494 198 517 c 128,-1,4
 234 540 234 540 279 549 c 1,5,-1
 279 693 l 1,6,-1
 362 693 l 1,7,-1
 362 554 l 1,8,9
 420 551 420 551 472 531 c 1,10,-1
 451 454 l 1,11,12
 430 463 430 463 402.5 469 c 128,-1,13
 375 475 375 475 344 475 c 0,14,15
 266 475 266 475 224.5 428 c 128,-1,16
 183 381 183 381 183 291 c 0,17,18
 183 251 183 251 192.5 217.5 c 128,-1,19
 202 184 202 184 222.5 160 c 128,-1,20
 243 136 243 136 275 123 c 128,-1,21
 307 110 307 110 353 110 c 0,22,23
 390 110 390 110 420 117 c 128,-1,24
 450 124 450 124 467 131 c 1,25,-1
 480 55 l 1,26,27
 466 47 466 47 432 39.5 c 128,-1,28
 398 32 398 32 362 30 c 1,29,-1
 362 -109 l 1,30,-1
 279 -109 l 1,31,-1
 279 35 l 1,32,33
 231 44 231 44 195 66.5 c 128,-1,34
 159 89 159 89 135 122.5 c 128,-1,35
 111 156 111 156 98.5 199 c 128,-1,36
 86 242 86 242 86 291 c 256,0,1
EndSplineSet
EndChar

StartChar: sterling
Encoding: 163 163 126
Width: 564
Flags: W
LayerCount: 2
Fore
SplineSet
246 373 m 1,0,-1
 435 373 l 1,1,-1
 435 298 l 1,2,-1
 246 298 l 1,3,-1
 246 290 l 2,4,5
 246 240 246 240 242 185 c 128,-1,6
 238 130 238 130 230 80 c 1,7,-1
 519 80 l 1,8,-1
 519 0 l 1,9,-1
 125 0 l 1,10,11
 136 71 136 71 144.5 141.5 c 128,-1,12
 153 212 153 212 153 283 c 2,13,-1
 153 298 l 1,14,-1
 60 298 l 1,15,-1
 60 373 l 1,16,-1
 153 373 l 1,17,-1
 153 456 l 2,18,19
 153 530 153 530 168.5 578.5 c 128,-1,20
 184 627 184 627 212.5 655.5 c 128,-1,21
 241 684 241 684 281 695 c 128,-1,22
 321 706 321 706 369 706 c 0,23,24
 413 706 413 706 443 698 c 128,-1,25
 473 690 473 690 501 679 c 1,26,-1
 478 599 l 1,27,28
 425 624 425 624 365 624 c 0,29,30
 338 624 338 624 316 616 c 128,-1,31
 294 608 294 608 278.5 589 c 128,-1,32
 263 570 263 570 254.5 538 c 128,-1,33
 246 506 246 506 246 458 c 2,34,-1
 246 373 l 1,0,-1
EndSplineSet
EndChar

StartChar: currency
Encoding: 164 164 127
Width: 564
Flags: W
LayerCount: 2
Fore
SplineSet
89 347 m 0,0,1
 89 408 89 408 117 453 c 1,2,-1
 44 527 l 1,3,-1
 102 585 l 1,4,-1
 176 510 l 1,5,6
 223 539 223 539 282 539 c 256,7,8
 341 539 341 539 387 510 c 1,9,-1
 462 585 l 1,10,-1
 520 527 l 1,11,-1
 446 453 l 1,12,13
 460 431 460 431 467.5 404.5 c 128,-1,14
 475 378 475 378 475 347 c 0,15,16
 475 315 475 315 467.5 289 c 128,-1,17
 460 263 460 263 446 241 c 1,18,-1
 520 167 l 1,19,-1
 462 109 l 1,20,-1
 387 183 l 1,21,22
 339 155 339 155 282 155 c 0,23,24
 253 155 253 155 226 162 c 128,-1,25
 199 169 199 169 176 183 c 1,26,-1
 102 109 l 1,27,-1
 44 167 l 1,28,-1
 117 240 l 1,29,30
 89 285 89 285 89 347 c 0,0,1
400 347 m 0,31,32
 400 375 400 375 390.5 398 c 128,-1,33
 381 421 381 421 365 437.5 c 128,-1,34
 349 454 349 454 327.5 462.5 c 128,-1,35
 306 471 306 471 282 471 c 256,36,37
 258 471 258 471 236.5 462.5 c 128,-1,38
 215 454 215 454 199 437.5 c 128,-1,39
 183 421 183 421 173.5 398 c 128,-1,40
 164 375 164 375 164 347 c 0,41,42
 164 318 164 318 173.5 295.5 c 128,-1,43
 183 273 183 273 199 256.5 c 128,-1,44
 215 240 215 240 236.5 231.5 c 128,-1,45
 258 223 258 223 282 223 c 256,46,47
 306 223 306 223 327.5 231.5 c 128,-1,48
 349 240 349 240 365 256.5 c 128,-1,49
 381 273 381 273 390.5 295.5 c 128,-1,50
 400 318 400 318 400 347 c 0,31,32
EndSplineSet
EndChar

StartChar: yen
Encoding: 165 165 128
Width: 564
Flags: W
LayerCount: 2
Fore
SplineSet
237 0 m 1,0,-1
 237 106 l 1,1,-1
 75 106 l 1,2,-1
 75 177 l 1,3,-1
 237 177 l 1,4,-1
 237 279 l 1,5,-1
 75 279 l 1,6,-1
 75 350 l 1,7,-1
 211 350 l 1,8,9
 157 438 157 438 108.5 524.5 c 128,-1,10
 60 611 60 611 17 693 c 1,11,-1
 120 693 l 1,12,13
 156 615 156 615 198 537 c 128,-1,14
 240 459 240 459 285 387 c 1,15,16
 329 459 329 459 369.5 537 c 128,-1,17
 410 615 410 615 447 693 c 1,18,-1
 548 693 l 1,19,20
 504 610 504 610 455.5 523.5 c 128,-1,21
 407 437 407 437 353 350 c 1,22,-1
 490 350 l 1,23,-1
 490 279 l 1,24,-1
 328 279 l 1,25,-1
 328 177 l 1,26,-1
 490 177 l 1,27,-1
 490 106 l 1,28,-1
 328 106 l 1,29,-1
 328 0 l 1,30,-1
 237 0 l 1,0,-1
EndSplineSet
EndChar

StartChar: brokenbar
Encoding: 166 166 129
Width: 279
Flags: W
LayerCount: 2
Fore
SplineSet
96 198 m 1,0,-1
 183 198 l 1,1,-1
 183 -185 l 1,2,-1
 96 -185 l 1,3,-1
 96 198 l 1,0,-1
96 783 m 1,4,-1
 183 783 l 1,5,-1
 183 400 l 1,6,-1
 96 400 l 1,7,-1
 96 783 l 1,4,-1
EndSplineSet
EndChar

StartChar: section
Encoding: 167 167 130
Width: 492
Flags: W
LayerCount: 2
Fore
SplineSet
68 -1 m 1,0,1
 98 -14 98 -14 134 -23 c 128,-1,2
 170 -32 170 -32 226 -32 c 256,3,4
 282 -32 282 -32 310.5 -15.5 c 128,-1,5
 339 1 339 1 339 37 c 0,6,7
 339 72 339 72 312 91.5 c 128,-1,8
 285 111 285 111 221 133 c 0,9,10
 185 145 185 145 152.5 159 c 128,-1,11
 120 173 120 173 95.5 193 c 128,-1,12
 71 213 71 213 57 241 c 128,-1,13
 43 269 43 269 43 309 c 0,14,15
 43 335 43 335 51.5 357.5 c 128,-1,16
 60 380 60 380 72.5 398.5 c 128,-1,17
 85 417 85 417 101 430.5 c 128,-1,18
 117 444 117 444 132 453 c 1,19,20
 107 473 107 473 92.5 499 c 128,-1,21
 78 525 78 525 78 559 c 0,22,23
 78 628 78 628 126.5 668.5 c 128,-1,24
 175 709 175 709 263 709 c 0,25,26
 314 709 314 709 358 699 c 128,-1,27
 402 689 402 689 428 681 c 1,28,-1
 407 604 l 1,29,30
 383 613 383 613 348.5 623 c 128,-1,31
 314 633 314 633 262 633 c 0,32,33
 223 633 223 633 194.5 616.5 c 128,-1,34
 166 600 166 600 166 567 c 0,35,36
 166 549 166 549 172 536.5 c 128,-1,37
 178 524 178 524 191 513.5 c 128,-1,38
 204 503 204 503 224 494 c 128,-1,39
 244 485 244 485 272 476 c 0,40,41
 308 464 308 464 340.5 450 c 128,-1,42
 373 436 373 436 397.5 416 c 128,-1,43
 422 396 422 396 436 368 c 128,-1,44
 450 340 450 340 450 300 c 0,45,46
 450 275 450 275 442 253 c 128,-1,47
 434 231 434 231 422 213 c 128,-1,48
 410 195 410 195 394.5 180.5 c 128,-1,49
 379 166 379 166 364 157 c 1,50,51
 393 136 393 136 411 108 c 128,-1,52
 429 80 429 80 429 43 c 0,53,54
 429 -32 429 -32 376 -70.5 c 128,-1,55
 323 -109 323 -109 225 -109 c 0,56,57
 158 -109 158 -109 114.5 -98.5 c 128,-1,58
 71 -88 71 -88 45 -75 c 1,59,-1
 68 -1 l 1,0,1
220 408 m 0,60,61
 213 410 213 410 206.5 412.5 c 128,-1,62
 200 415 200 415 193 418 c 1,63,64
 164 399 164 399 146 373.5 c 128,-1,65
 128 348 128 348 128 318 c 0,66,67
 128 292 128 292 139.5 274.5 c 128,-1,68
 151 257 151 257 171.5 243.5 c 128,-1,69
 192 230 192 230 220 219.5 c 128,-1,70
 248 209 248 209 281 198 c 0,71,72
 286 196 286 196 290.5 194.5 c 128,-1,73
 295 193 295 193 300 191 c 1,74,75
 329 210 329 210 347 235 c 128,-1,76
 365 260 365 260 365 291 c 0,77,78
 365 317 365 317 353.5 334.5 c 128,-1,79
 342 352 342 352 322 365 c 128,-1,80
 302 378 302 378 276 388 c 128,-1,81
 250 398 250 398 220 408 c 0,60,61
EndSplineSet
EndChar

StartChar: dieresis
Encoding: 168 168 131
Width: 376
Flags: W
LayerCount: 2
Fore
SplineSet
93 616 m 256,0,1
 70 616 70 616 52.5 632.5 c 128,-1,2
 35 649 35 649 35 675 c 256,3,4
 35 701 35 701 52.5 717.5 c 128,-1,5
 70 734 70 734 93 734 c 256,6,7
 116 734 116 734 133.5 717.5 c 128,-1,8
 151 701 151 701 151 675 c 256,9,10
 151 649 151 649 133.5 632.5 c 128,-1,11
 116 616 116 616 93 616 c 256,0,1
283 616 m 256,12,13
 260 616 260 616 242.5 632.5 c 128,-1,14
 225 649 225 649 225 675 c 256,15,16
 225 701 225 701 242.5 717.5 c 128,-1,17
 260 734 260 734 283 734 c 256,18,19
 306 734 306 734 323.5 717.5 c 128,-1,20
 341 701 341 701 341 675 c 256,21,22
 341 649 341 649 323.5 632.5 c 128,-1,23
 306 616 306 616 283 616 c 256,12,13
EndSplineSet
EndChar

StartChar: copyright
Encoding: 169 169 132
Width: 814
Flags: W
LayerCount: 2
Fore
SplineSet
749 347 m 256,0,1
 749 262 749 262 721 194.5 c 128,-1,2
 693 127 693 127 646 80.5 c 128,-1,3
 599 34 599 34 537 9.5 c 128,-1,4
 475 -15 475 -15 407 -15 c 256,5,6
 339 -15 339 -15 277 9.5 c 128,-1,7
 215 34 215 34 168 80.5 c 128,-1,8
 121 127 121 127 93 194.5 c 128,-1,9
 65 262 65 262 65 347 c 256,10,11
 65 432 65 432 93 499.5 c 128,-1,12
 121 567 121 567 168 613.5 c 128,-1,13
 215 660 215 660 277 684.5 c 128,-1,14
 339 709 339 709 407 709 c 256,15,16
 475 709 475 709 537 684.5 c 128,-1,17
 599 660 599 660 646 613.5 c 128,-1,18
 693 567 693 567 721 499.5 c 128,-1,19
 749 432 749 432 749 347 c 256,0,1
676 347 m 256,20,21
 676 413 676 413 656 467.5 c 128,-1,22
 636 522 636 522 600.5 561 c 128,-1,23
 565 600 565 600 515.5 621 c 128,-1,24
 466 642 466 642 407 642 c 256,25,26
 348 642 348 642 298.5 621 c 128,-1,27
 249 600 249 600 213.5 561 c 128,-1,28
 178 522 178 522 158 467.5 c 128,-1,29
 138 413 138 413 138 347 c 256,30,31
 138 281 138 281 158 226.5 c 128,-1,32
 178 172 178 172 213.5 133 c 128,-1,33
 249 94 249 94 298.5 73 c 128,-1,34
 348 52 348 52 407 52 c 256,35,36
 466 52 466 52 515.5 73 c 128,-1,37
 565 94 565 94 600.5 133 c 128,-1,38
 636 172 636 172 656 226.5 c 128,-1,39
 676 281 676 281 676 347 c 256,20,21
419 140 m 0,40,41
 376 140 376 140 341 154 c 128,-1,42
 306 168 306 168 280.5 194 c 128,-1,43
 255 220 255 220 241 258.5 c 128,-1,44
 227 297 227 297 227 347 c 0,45,46
 227 396 227 396 242.5 434 c 128,-1,47
 258 472 258 472 284 498.5 c 128,-1,48
 310 525 310 525 345 539 c 128,-1,49
 380 553 380 553 419 553 c 0,50,51
 445 553 445 553 466.5 549 c 128,-1,52
 488 545 488 545 504 539.5 c 128,-1,53
 520 534 520 534 530.5 528.5 c 128,-1,54
 541 523 541 523 545 520 c 1,55,-1
 522 460 l 1,56,57
 510 467 510 467 483.5 476.5 c 128,-1,58
 457 486 457 486 422 486 c 0,59,60
 371 486 371 486 337 450.5 c 128,-1,61
 303 415 303 415 303 347 c 0,62,63
 303 285 303 285 334 245.5 c 128,-1,64
 365 206 365 206 425 206 c 0,65,66
 464 206 464 206 489.5 214.5 c 128,-1,67
 515 223 515 223 529 230 c 1,68,-1
 548 170 l 1,69,70
 543 167 543 167 531.5 161.5 c 128,-1,71
 520 156 520 156 503 151.5 c 128,-1,72
 486 147 486 147 464.5 143.5 c 128,-1,73
 443 140 443 140 419 140 c 0,40,41
EndSplineSet
EndChar

StartChar: ordfeminine
Encoding: 170 170 133
Width: 389
Flags: W
LayerCount: 2
Fore
SplineSet
196 391 m 0,0,1
 218 391 218 391 240 392 c 128,-1,2
 262 393 262 393 267 395 c 1,3,-1
 267 495 l 1,4,5
 256 497 256 497 239 498 c 128,-1,6
 222 499 222 499 206 499 c 0,7,8
 189 499 189 499 171.5 497 c 128,-1,9
 154 495 154 495 140 489 c 128,-1,10
 126 483 126 483 117 472.5 c 128,-1,11
 108 462 108 462 108 446 c 0,12,13
 108 416 108 416 131.5 403.5 c 128,-1,14
 155 391 155 391 196 391 c 0,0,1
189 706 m 0,15,16
 230 706 230 706 258 696 c 128,-1,17
 286 686 286 686 303.5 668 c 128,-1,18
 321 650 321 650 328.5 624.5 c 128,-1,19
 336 599 336 599 336 567 c 2,20,-1
 336 343 l 1,21,22
 312 338 312 338 271 333.5 c 128,-1,23
 230 329 230 329 189 329 c 0,24,25
 156 329 156 329 128.5 335.5 c 128,-1,26
 101 342 101 342 81 356 c 128,-1,27
 61 370 61 370 49.5 392 c 128,-1,28
 38 414 38 414 38 446 c 0,29,30
 38 477 38 477 51 499 c 128,-1,31
 64 521 64 521 86 534.5 c 128,-1,32
 108 548 108 548 137 554 c 128,-1,33
 166 560 166 560 198 560 c 0,34,35
 212 560 212 560 229 559 c 128,-1,36
 246 558 246 558 267 555 c 1,37,-1
 267 558 l 2,38,39
 267 573 267 573 264 588 c 128,-1,40
 261 603 261 603 252 614.5 c 128,-1,41
 243 626 243 626 227 633.5 c 128,-1,42
 211 641 211 641 185 641 c 0,43,44
 162 641 162 641 134.5 638 c 128,-1,45
 107 635 107 635 87 628 c 1,46,-1
 77 691 l 1,47,48
 96 696 96 696 126.5 701 c 128,-1,49
 157 706 157 706 189 706 c 0,15,16
EndSplineSet
EndChar

StartChar: logicalnot
Encoding: 172 172 135
Width: 564
Flags: W
LayerCount: 2
Fore
SplineSet
511 394 m 1,0,-1
 511 53 l 1,1,-1
 431 53 l 1,2,-1
 431 315 l 1,3,-1
 53 315 l 1,4,-1
 53 394 l 1,5,-1
 511 394 l 1,0,-1
EndSplineSet
EndChar

StartChar: registered
Encoding: 174 174 137
Width: 814
Flags: W
LayerCount: 2
Fore
SplineSet
749 347 m 256,0,1
 749 262 749 262 721 194.5 c 128,-1,2
 693 127 693 127 646 80.5 c 128,-1,3
 599 34 599 34 537 9.5 c 128,-1,4
 475 -15 475 -15 407 -15 c 256,5,6
 339 -15 339 -15 277 9.5 c 128,-1,7
 215 34 215 34 168 80.5 c 128,-1,8
 121 127 121 127 93 194.5 c 128,-1,9
 65 262 65 262 65 347 c 256,10,11
 65 432 65 432 93 499.5 c 128,-1,12
 121 567 121 567 168 613.5 c 128,-1,13
 215 660 215 660 277 684.5 c 128,-1,14
 339 709 339 709 407 709 c 256,15,16
 475 709 475 709 537 684.5 c 128,-1,17
 599 660 599 660 646 613.5 c 128,-1,18
 693 567 693 567 721 499.5 c 128,-1,19
 749 432 749 432 749 347 c 256,0,1
676 347 m 256,20,21
 676 413 676 413 656 467.5 c 128,-1,22
 636 522 636 522 600.5 561 c 128,-1,23
 565 600 565 600 515.5 621 c 128,-1,24
 466 642 466 642 407 642 c 256,25,26
 348 642 348 642 298.5 621 c 128,-1,27
 249 600 249 600 213.5 561 c 128,-1,28
 178 522 178 522 158 467.5 c 128,-1,29
 138 413 138 413 138 347 c 256,30,31
 138 281 138 281 158 226.5 c 128,-1,32
 178 172 178 172 213.5 133 c 128,-1,33
 249 94 249 94 298.5 73 c 128,-1,34
 348 52 348 52 407 52 c 256,35,36
 466 52 466 52 515.5 73 c 128,-1,37
 565 94 565 94 600.5 133 c 128,-1,38
 636 172 636 172 656 226.5 c 128,-1,39
 676 281 676 281 676 347 c 256,20,21
506 148 m 1,40,41
 483 193 483 193 454.5 233.5 c 128,-1,42
 426 274 426 274 405 298 c 1,43,-1
 338 298 l 1,44,-1
 338 148 l 1,45,-1
 267 148 l 1,46,-1
 267 536 l 1,47,48
 294 542 294 542 324 545 c 128,-1,49
 354 548 354 548 379 548 c 0,50,51
 465 548 465 548 510 516 c 128,-1,52
 555 484 555 484 555 419 c 0,53,54
 555 382 555 382 535.5 354.5 c 128,-1,55
 516 327 516 327 480 312 c 1,56,57
 490 300 490 300 503 282 c 128,-1,58
 516 264 516 264 530 242 c 128,-1,59
 544 220 544 220 558 196 c 128,-1,60
 572 172 572 172 583 148 c 1,61,-1
 506 148 l 1,40,41
338 356 m 1,62,-1
 376 356 l 2,63,64
 421 356 421 356 451 368.5 c 128,-1,65
 481 381 481 381 481 420 c 0,66,67
 481 457 481 457 452.5 471.5 c 128,-1,68
 424 486 424 486 384 486 c 0,69,70
 373 486 373 486 361 485.5 c 128,-1,71
 349 485 349 485 338 484 c 1,72,-1
 338 356 l 1,62,-1
EndSplineSet
EndChar

StartChar: macron
Encoding: 175 175 138
Width: 376
Flags: W
LayerCount: 2
Fore
SplineSet
46 711 m 1,0,-1
 330 711 l 1,1,-1
 330 639 l 1,2,-1
 46 639 l 1,3,-1
 46 711 l 1,0,-1
EndSplineSet
EndChar

StartChar: degree
Encoding: 176 176 139
Width: 332
Flags: W
LayerCount: 2
Fore
SplineSet
306 637 m 256,0,1
 306 605 306 605 294.5 579 c 128,-1,2
 283 553 283 553 264 535 c 128,-1,3
 245 517 245 517 219.5 507.5 c 128,-1,4
 194 498 194 498 166 498 c 256,5,6
 138 498 138 498 112.5 507.5 c 128,-1,7
 87 517 87 517 68 535 c 128,-1,8
 49 553 49 553 37.5 579 c 128,-1,9
 26 605 26 605 26 637 c 256,10,11
 26 669 26 669 37.5 695 c 128,-1,12
 49 721 49 721 68 739 c 128,-1,13
 87 757 87 757 112.5 766.5 c 128,-1,14
 138 776 138 776 166 776 c 256,15,16
 194 776 194 776 219.5 766.5 c 128,-1,17
 245 757 245 757 264 739 c 128,-1,18
 283 721 283 721 294.5 695 c 128,-1,19
 306 669 306 669 306 637 c 256,0,1
239 637 m 256,20,21
 239 672 239 672 217.5 692.5 c 128,-1,22
 196 713 196 713 166 713 c 256,23,24
 136 713 136 713 114.5 692.5 c 128,-1,25
 93 672 93 672 93 637 c 256,26,27
 93 602 93 602 114.5 581.5 c 128,-1,28
 136 561 136 561 166 561 c 256,29,30
 196 561 196 561 217.5 581.5 c 128,-1,31
 239 602 239 602 239 637 c 256,20,21
EndSplineSet
EndChar

StartChar: plusminus
Encoding: 177 177 140
Width: 564
Flags: W
LayerCount: 2
Fore
SplineSet
53 419 m 1,0,-1
 242 419 l 1,1,-1
 242 620 l 1,2,-1
 322 620 l 1,3,-1
 322 419 l 1,4,-1
 511 419 l 1,5,-1
 511 340 l 1,6,-1
 322 340 l 1,7,-1
 322 139 l 1,8,-1
 242 139 l 1,9,-1
 242 340 l 1,10,-1
 53 340 l 1,11,-1
 53 419 l 1,0,-1
53 79 m 1,12,-1
 511 79 l 1,13,-1
 511 0 l 1,14,-1
 53 0 l 1,15,-1
 53 79 l 1,12,-1
EndSplineSet
EndChar

StartChar: twosuperior
Encoding: 178 178 141
Width: 359
Flags: W
LayerCount: 2
Fore
SplineSet
296 598 m 0,0,1
 296 577 296 577 286.5 557 c 128,-1,2
 277 537 277 537 261 517.5 c 128,-1,3
 245 498 245 498 224 478.5 c 128,-1,4
 203 459 203 459 179 438 c 0,5,6
 162 424 162 424 145.5 407.5 c 128,-1,7
 129 391 129 391 126 378 c 1,8,-1
 312 378 l 1,9,-1
 312 315 l 1,10,-1
 46 315 l 1,11,12
 43 348 43 348 50.5 373.5 c 128,-1,13
 58 399 58 399 72.5 420 c 128,-1,14
 87 441 87 441 106 458.5 c 128,-1,15
 125 476 125 476 146 494 c 0,16,17
 180 523 180 523 201.5 547.5 c 128,-1,18
 223 572 223 572 223 596 c 0,19,20
 223 622 223 622 206.5 634 c 128,-1,21
 190 646 190 646 161 646 c 0,22,23
 144 646 144 646 129 641.5 c 128,-1,24
 114 637 114 637 102 630.5 c 128,-1,25
 90 624 90 624 80.5 617.5 c 128,-1,26
 71 611 71 611 66 607 c 1,27,-1
 30 656 l 1,28,29
 47 674 47 674 81.5 691.5 c 128,-1,30
 116 709 116 709 161 709 c 0,31,32
 230 709 230 709 263 680 c 128,-1,33
 296 651 296 651 296 598 c 0,0,1
EndSplineSet
Substitution2: "Single Substitution lookup 26 subtable" twoinferior
Substitution2: "'sinf' Scientific Inferiors lookup 13 subtable" two.sinf
Substitution2: "'subs' Subscript lookup 12 subtable" two.sinf
Substitution2: "'sups' Superscript lookup 11 subtable" two.sups
Substitution2: "'dnom' Denominators lookup 10 subtable" twoinferior
EndChar

StartChar: threesuperior
Encoding: 179 179 142
Width: 359
Flags: W
LayerCount: 2
Fore
SplineSet
144 369 m 0,0,1
 197 369 197 369 217 385.5 c 128,-1,2
 237 402 237 402 237 428 c 0,3,4
 237 445 237 445 228 457 c 128,-1,5
 219 469 219 469 203.5 476.5 c 128,-1,6
 188 484 188 484 168 487.5 c 128,-1,7
 148 491 148 491 127 491 c 2,8,-1
 108 491 l 1,9,-1
 108 548 l 1,10,-1
 133 548 l 2,11,12
 147 548 147 548 162.5 550.5 c 128,-1,13
 178 553 178 553 190.5 559 c 128,-1,14
 203 565 203 565 211 575.5 c 128,-1,15
 219 586 219 586 219 601 c 0,16,17
 219 626 219 626 200.5 636.5 c 128,-1,18
 182 647 182 647 153 647 c 0,19,20
 126 647 126 647 103 637.5 c 128,-1,21
 80 628 80 628 63 620 c 1,22,-1
 38 675 l 1,23,24
 54 686 54 686 87.5 697.5 c 128,-1,25
 121 709 121 709 155 709 c 0,26,27
 228 709 228 709 258.5 679.5 c 128,-1,28
 289 650 289 650 289 604 c 0,29,30
 289 555 289 555 234 524 c 1,31,32
 269 513 269 513 289.5 487.5 c 128,-1,33
 310 462 310 462 310 427 c 0,34,35
 310 401 310 401 301 379.5 c 128,-1,36
 292 358 292 358 272 341.5 c 128,-1,37
 252 325 252 325 220.5 316 c 128,-1,38
 189 307 189 307 145 307 c 0,39,40
 114 307 114 307 82 314 c 128,-1,41
 50 321 50 321 32 330 c 1,42,-1
 47 390 l 1,43,44
 69 382 69 382 93.5 375.5 c 128,-1,45
 118 369 118 369 144 369 c 0,0,1
EndSplineSet
Substitution2: "Single Substitution lookup 26 subtable" threeinferior
Substitution2: "'sinf' Scientific Inferiors lookup 13 subtable" three.sinf
Substitution2: "'subs' Subscript lookup 12 subtable" three.sinf
Substitution2: "'sups' Superscript lookup 11 subtable" three.sups
Substitution2: "'dnom' Denominators lookup 10 subtable" threeinferior
EndChar

StartChar: acute
Encoding: 180 180 143
Width: 376
Flags: W
LayerCount: 2
Fore
SplineSet
315 717 m 1,0,-1
 174 580 l 1,1,-1
 127 622 l 1,2,-1
 255 776 l 1,3,-1
 315 717 l 1,0,-1
EndSplineSet
EndChar

StartChar: mu
Encoding: 181 181 144
Width: 580
Flags: W
LayerCount: 2
Fore
SplineSet
173 520 m 1,0,-1
 173 242 l 2,1,2
 173 147 173 147 204 109 c 128,-1,3
 235 71 235 71 304 71 c 0,4,5
 319 71 319 71 335 72 c 128,-1,6
 351 73 351 73 365 74.5 c 128,-1,7
 379 76 379 76 390.5 77.5 c 128,-1,8
 402 79 402 79 407 81 c 1,9,-1
 407 520 l 1,10,-1
 500 520 l 1,11,-1
 500 15 l 1,12,13
 468 7 468 7 417.5 -2 c 128,-1,14
 367 -11 367 -11 307 -11 c 0,15,16
 252 -11 252 -11 219.5 0.5 c 128,-1,17
 187 12 187 12 167 34 c 1,18,19
 170 6 170 6 171 -22.5 c 128,-1,20
 172 -51 172 -51 172 -82 c 2,21,-1
 172 -185 l 1,22,-1
 80 -185 l 1,23,-1
 80 520 l 1,24,-1
 173 520 l 1,0,-1
EndSplineSet
EndChar

StartChar: paragraph
Encoding: 182 182 145
Width: 646
Flags: W
LayerCount: 2
Fore
SplineSet
386 623 m 0,0,1
 378 623 378 623 370 622.5 c 128,-1,2
 362 622 362 622 356 621 c 1,3,-1
 356 -185 l 1,4,-1
 278 -185 l 1,5,-1
 278 262 l 1,6,7
 167 273 167 273 105 325 c 128,-1,8
 43 377 43 377 43 479 c 0,9,10
 43 534 43 534 65.5 575 c 128,-1,11
 88 616 88 616 130 644 c 128,-1,12
 172 672 172 672 232 686 c 128,-1,13
 292 700 292 700 366 700 c 0,14,15
 408 700 408 700 456 696.5 c 128,-1,16
 504 693 504 693 545 683 c 1,17,-1
 545 -185 l 1,18,-1
 467 -185 l 1,19,-1
 467 618 l 1,20,21
 453 620 453 620 432 621.5 c 128,-1,22
 411 623 411 623 386 623 c 0,0,1
EndSplineSet
EndChar

StartChar: cedilla
Encoding: 184 184 147
Width: 376
Flags: W
LayerCount: 2
Fore
SplineSet
199 -37 m 1,0,1
 228 -51 228 -51 241 -67.5 c 128,-1,2
 254 -84 254 -84 254 -116 c 0,3,4
 254 -127 254 -127 249 -140 c 128,-1,5
 244 -153 244 -153 232 -164 c 128,-1,6
 220 -175 220 -175 200 -182 c 128,-1,7
 180 -189 180 -189 151 -189 c 0,8,9
 125 -189 125 -189 103.5 -185 c 128,-1,10
 82 -181 82 -181 69 -176 c 1,11,-1
 80 -119 l 1,12,13
 92 -123 92 -123 105.5 -126 c 128,-1,14
 119 -129 119 -129 136 -129 c 0,15,16
 172 -129 172 -129 172 -106 c 0,17,18
 172 -95 172 -95 161 -87.5 c 128,-1,19
 150 -80 150 -80 130 -72 c 2,20,-1
 123 -69 l 1,21,22
 126 -59 126 -59 132 -45.5 c 128,-1,23
 138 -32 138 -32 144 -19 c 128,-1,24
 150 -6 150 -6 155.5 4.5 c 128,-1,25
 161 15 161 15 164 20 c 1,26,-1
 228 20 l 1,27,28
 222 9 222 9 213 -8 c 128,-1,29
 204 -25 204 -25 199 -37 c 1,0,1
EndSplineSet
EndChar

StartChar: onesuperior
Encoding: 185 185 148
Width: 359
Flags: W
LayerCount: 2
Fore
SplineSet
50 621 m 1,0,1
 88 634 88 634 125 654.5 c 128,-1,2
 162 675 162 675 189 701 c 1,3,-1
 238 701 l 1,4,-1
 238 315 l 1,5,-1
 168 315 l 1,6,-1
 168 609 l 1,7,8
 146 595 146 595 117.5 584 c 128,-1,9
 89 573 89 573 69 567 c 1,10,-1
 50 621 l 1,0,1
EndSplineSet
Substitution2: "Single Substitution lookup 26 subtable" oneinferior
Substitution2: "'sinf' Scientific Inferiors lookup 13 subtable" one.sinf
Substitution2: "'subs' Subscript lookup 12 subtable" one.sinf
Substitution2: "'sups' Superscript lookup 11 subtable" one.sups
Substitution2: "'dnom' Denominators lookup 10 subtable" oneinferior
EndChar

StartChar: ordmasculine
Encoding: 186 186 149
Width: 446
Flags: W
LayerCount: 2
Fore
SplineSet
403 518 m 256,0,1
 403 475 403 475 389.5 440 c 128,-1,2
 376 405 376 405 352 380 c 128,-1,3
 328 355 328 355 295 341.5 c 128,-1,4
 262 328 262 328 223 328 c 256,5,6
 184 328 184 328 151 341.5 c 128,-1,7
 118 355 118 355 94 380 c 128,-1,8
 70 405 70 405 56.5 440 c 128,-1,9
 43 475 43 475 43 518 c 256,10,11
 43 561 43 561 56.5 596.5 c 128,-1,12
 70 632 70 632 94 656.5 c 128,-1,13
 118 681 118 681 151 694.5 c 128,-1,14
 184 708 184 708 223 708 c 256,15,16
 262 708 262 708 295 694.5 c 128,-1,17
 328 681 328 681 352 656.5 c 128,-1,18
 376 632 376 632 389.5 596.5 c 128,-1,19
 403 561 403 561 403 518 c 256,0,1
329 518 m 0,20,21
 329 574 329 574 301.5 607.5 c 128,-1,22
 274 641 274 641 223 641 c 0,23,24
 173 641 173 641 145 607.5 c 128,-1,25
 117 574 117 574 117 518 c 0,26,27
 117 463 117 463 144.5 429 c 128,-1,28
 172 395 172 395 223 395 c 256,29,30
 274 395 274 395 301.5 429 c 128,-1,31
 329 463 329 463 329 518 c 0,20,21
EndSplineSet
EndChar

StartChar: questiondown
Encoding: 191 191 154
Width: 404
Flags: W
LayerCount: 2
Fore
SplineSet
126 -23 m 0,0,1
 126 -61 126 -61 153.5 -85.5 c 128,-1,2
 181 -110 181 -110 230 -110 c 0,3,4
 296 -110 296 -110 359 -76 c 1,5,-1
 385 -148 l 1,6,7
 351 -166 351 -166 308.5 -177 c 128,-1,8
 266 -188 266 -188 218 -188 c 0,9,10
 164 -188 164 -188 128 -174 c 128,-1,11
 92 -160 92 -160 69.5 -138 c 128,-1,12
 47 -116 47 -116 37.5 -88.5 c 128,-1,13
 28 -61 28 -61 28 -34 c 0,14,15
 28 -1 28 -1 40.5 25 c 128,-1,16
 53 51 53 51 72 74.5 c 128,-1,17
 91 98 91 98 112.5 119 c 128,-1,18
 134 140 134 140 153 163.5 c 128,-1,19
 172 187 172 187 184.5 213 c 128,-1,20
 197 239 197 239 197 272 c 0,21,22
 197 277 197 277 197 281.5 c 128,-1,23
 197 286 197 286 196 291 c 1,24,-1
 274 291 l 1,25,26
 278 271 278 271 278 252 c 0,27,28
 278 220 278 220 266.5 194 c 128,-1,29
 255 168 255 168 238.5 145.5 c 128,-1,30
 222 123 222 123 202 103 c 128,-1,31
 182 83 182 83 165.5 63 c 128,-1,32
 149 43 149 43 137.5 22 c 128,-1,33
 126 1 126 1 126 -23 c 0,0,1
163 453 m 256,34,35
 163 480 163 480 181 500 c 128,-1,36
 199 520 199 520 230 520 c 256,37,38
 261 520 261 520 279 500 c 128,-1,39
 297 480 297 480 297 453 c 256,40,41
 297 426 297 426 279 406 c 128,-1,42
 261 386 261 386 230 386 c 256,43,44
 199 386 199 386 181 406 c 128,-1,45
 163 426 163 426 163 453 c 256,34,35
EndSplineSet
Substitution2: "'case' Case-Sensitive Forms lookup 18 subtable" Questiondown
EndChar

StartChar: Aring
Encoding: 197 197 160
Width: 663
Flags: W
LayerCount: 2
Fore
SplineSet
172 178 m 1,0,-1
 109 0 l 1,1,-1
 8 0 l 1,2,3
 45 102 45 102 78 190.5 c 128,-1,4
 111 279 111 279 142.5 358.5 c 128,-1,5
 174 438 174 438 204.5 510 c 128,-1,6
 235 582 235 582 268 653 c 1,7,8
 249 667 249 667 238 688 c 128,-1,9
 227 709 227 709 227 737 c 0,10,11
 227 761 227 761 235.5 779.5 c 128,-1,12
 244 798 244 798 258 811.5 c 128,-1,13
 272 825 272 825 290.5 832 c 128,-1,14
 309 839 309 839 330 839 c 256,15,16
 351 839 351 839 369.5 832 c 128,-1,17
 388 825 388 825 402 811.5 c 128,-1,18
 416 798 416 798 424.5 779.5 c 128,-1,19
 433 761 433 761 433 737 c 0,20,21
 433 710 433 710 422 689.5 c 128,-1,22
 411 669 411 669 393 655 c 1,23,24
 426 584 426 584 457 511.5 c 128,-1,25
 488 439 488 439 519.5 359.5 c 128,-1,26
 551 280 551 280 584 191.5 c 128,-1,27
 617 103 617 103 655 0 c 1,28,-1
 549 0 l 1,29,30
 532 45 532 45 517 89 c 128,-1,31
 502 133 502 133 486 178 c 1,32,-1
 172 178 l 1,0,-1
458 257 m 1,33,34
 426 344 426 344 394.5 425.5 c 128,-1,35
 363 507 363 507 329 582 c 1,36,37
 294 507 294 507 262.5 426 c 128,-1,38
 231 345 231 345 200 257 c 1,39,-1
 458 257 l 1,33,34
383 737 m 256,40,41
 383 763 383 763 367.5 777.5 c 128,-1,42
 352 792 352 792 330 792 c 256,43,44
 308 792 308 792 292.5 777.5 c 128,-1,45
 277 763 277 763 277 737 c 256,46,47
 277 711 277 711 292.5 696.5 c 128,-1,48
 308 682 308 682 330 682 c 256,49,50
 352 682 352 682 367.5 696.5 c 128,-1,51
 383 711 383 711 383 737 c 256,40,41
EndSplineSet
EndChar

StartChar: AE
Encoding: 198 198 161
Width: 935
Flags: W
LayerCount: 2
Fore
SplineSet
873 612 m 1,0,-1
 572 612 l 1,1,-1
 572 403 l 1,2,-1
 837 403 l 1,3,-1
 837 324 l 1,4,-1
 572 324 l 1,5,-1
 572 81 l 1,6,-1
 898 81 l 1,7,-1
 898 0 l 1,8,-1
 476 0 l 1,9,-1
 476 178 l 1,10,-1
 203 178 l 1,11,12
 179 134 179 134 155.5 89.5 c 128,-1,13
 132 45 132 45 110 0 c 1,14,-1
 6 0 l 1,15,16
 63 108 63 108 117.5 203.5 c 128,-1,17
 172 299 172 299 224 384 c 128,-1,18
 276 469 276 469 326.5 545.5 c 128,-1,19
 377 622 377 622 427 693 c 1,20,-1
 873 693 l 1,21,-1
 873 612 l 1,0,-1
476 617 m 1,22,23
 423 545 423 545 366 454 c 128,-1,24
 309 363 309 363 248 257 c 1,25,-1
 476 257 l 1,26,-1
 476 617 l 1,22,23
EndSplineSet
EndChar

StartChar: Ccedilla
Encoding: 199 199 162
Width: 620
Flags: W
LayerCount: 2
Fore
SplineSet
330 -11 m 1,0,1
 268 -3 268 -3 218 24.5 c 128,-1,2
 168 52 168 52 132.5 97.5 c 128,-1,3
 97 143 97 143 77.5 205.5 c 128,-1,4
 58 268 58 268 58 347 c 0,5,6
 58 434 58 434 84.5 501.5 c 128,-1,7
 111 569 111 569 156 615 c 128,-1,8
 201 661 201 661 261 685 c 128,-1,9
 321 709 321 709 389 709 c 0,10,11
 432 709 432 709 466.5 703 c 128,-1,12
 501 697 501 697 526.5 689 c 128,-1,13
 552 681 552 681 568 673 c 128,-1,14
 584 665 584 665 590 661 c 1,15,-1
 562 581 l 1,16,17
 553 587 553 587 536 594 c 128,-1,18
 519 601 519 601 497.5 608 c 128,-1,19
 476 615 476 615 450.5 619.5 c 128,-1,20
 425 624 425 624 399 624 c 0,21,22
 344 624 344 624 300 605 c 128,-1,23
 256 586 256 586 225 550 c 128,-1,24
 194 514 194 514 177.5 462.5 c 128,-1,25
 161 411 161 411 161 347 c 0,26,27
 161 285 161 285 175.5 234 c 128,-1,28
 190 183 190 183 219 146.5 c 128,-1,29
 248 110 248 110 291.5 90 c 128,-1,30
 335 70 335 70 393 70 c 0,31,32
 460 70 460 70 504 84 c 128,-1,33
 548 98 548 98 570 109 c 1,34,-1
 595 29 l 1,35,36
 581 18 581 18 527.5 2.5 c 128,-1,37
 474 -13 474 -13 392 -15 c 1,38,39
 389 -21 389 -21 386.5 -26.5 c 128,-1,40
 384 -32 384 -32 382 -37 c 1,41,42
 411 -51 411 -51 424 -67.5 c 128,-1,43
 437 -84 437 -84 437 -116 c 0,44,45
 437 -127 437 -127 432 -140 c 128,-1,46
 427 -153 427 -153 415 -164 c 128,-1,47
 403 -175 403 -175 383 -182 c 128,-1,48
 363 -189 363 -189 334 -189 c 0,49,50
 308 -189 308 -189 286.5 -185 c 128,-1,51
 265 -181 265 -181 252 -176 c 1,52,-1
 263 -119 l 1,53,54
 275 -123 275 -123 288.5 -126 c 128,-1,55
 302 -129 302 -129 319 -129 c 0,56,57
 355 -129 355 -129 355 -106 c 0,58,59
 355 -95 355 -95 344 -87.5 c 128,-1,60
 333 -80 333 -80 313 -72 c 2,61,-1
 306 -69 l 1,62,63
 310 -57 310 -57 316.5 -41 c 128,-1,64
 323 -25 323 -25 330 -11 c 1,0,1
EndSplineSet
EndChar

StartChar: Eth
Encoding: 208 208 171
Width: 726
Flags: W
LayerCount: 2
Fore
SplineSet
668 347 m 256,0,1
 668 257 668 257 640 190.5 c 128,-1,2
 612 124 612 124 561 80.5 c 128,-1,3
 510 37 510 37 439 15.5 c 128,-1,4
 368 -6 368 -6 283 -6 c 0,5,6
 241 -6 241 -6 190.5 -2.5 c 128,-1,7
 140 1 140 1 99 11 c 1,8,-1
 99 324 l 1,9,-1
 19 324 l 1,10,-1
 19 399 l 1,11,-1
 99 399 l 1,12,-1
 99 683 l 1,13,14
 140 693 140 693 190.5 696.5 c 128,-1,15
 241 700 241 700 283 700 c 0,16,17
 368 700 368 700 439 678.5 c 128,-1,18
 510 657 510 657 561 613.5 c 128,-1,19
 612 570 612 570 640 503.5 c 128,-1,20
 668 437 668 437 668 347 c 256,0,1
291 79 m 0,21,22
 429 79 429 79 497 149.5 c 128,-1,23
 565 220 565 220 565 347 c 256,24,25
 565 474 565 474 497 544.5 c 128,-1,26
 429 615 429 615 291 615 c 0,27,28
 250 615 250 615 227.5 614 c 128,-1,29
 205 613 205 613 196 612 c 1,30,-1
 196 399 l 1,31,-1
 326 399 l 1,32,-1
 326 324 l 1,33,-1
 196 324 l 1,34,-1
 196 82 l 1,35,36
 205 81 205 81 227.5 80 c 128,-1,37
 250 79 250 79 291 79 c 0,21,22
EndSplineSet
EndChar

StartChar: multiply
Encoding: 215 215 178
Width: 564
Flags: W
LayerCount: 2
Fore
SplineSet
428 97 m 1,0,-1
 282 243 l 1,1,-1
 136 97 l 1,2,-1
 80 153 l 1,3,-1
 226 299 l 1,4,-1
 80 445 l 1,5,-1
 136 501 l 1,6,-1
 282 355 l 1,7,-1
 428 501 l 1,8,-1
 484 445 l 1,9,-1
 338 299 l 1,10,-1
 484 153 l 1,11,-1
 428 97 l 1,0,-1
EndSplineSet
EndChar

StartChar: Oslash
Encoding: 216 216 179
Width: 778
Flags: W
LayerCount: 2
Fore
SplineSet
58 347 m 0,0,1
 58 436 58 436 84.5 504 c 128,-1,2
 111 572 111 572 156.5 617.5 c 128,-1,3
 202 663 202 663 262.5 686 c 128,-1,4
 323 709 323 709 391 709 c 0,5,6
 497 709 497 709 579 653 c 1,7,-1
 638 730 l 1,8,-1
 700 684 l 1,9,-1
 636 601 l 1,10,11
 675 556 675 556 697.5 492.5 c 128,-1,12
 720 429 720 429 720 347 c 0,13,14
 720 258 720 258 693.5 190 c 128,-1,15
 667 122 667 122 622 76.5 c 128,-1,16
 577 31 577 31 517.5 8 c 128,-1,17
 458 -15 458 -15 391 -15 c 0,18,19
 338 -15 338 -15 290.5 -1.5 c 128,-1,20
 243 12 243 12 202 39 c 1,21,-1
 144 -36 l 1,22,-1
 82 10 l 1,23,-1
 144 90 l 1,24,25
 104 135 104 135 81 199 c 128,-1,26
 58 263 58 263 58 347 c 0,0,1
160 347 m 0,27,28
 160 238 160 238 204 168 c 1,29,-1
 523 581 l 1,30,31
 468 624 468 624 389 624 c 0,32,33
 336 624 336 624 293.5 604.5 c 128,-1,34
 251 585 251 585 221.5 549 c 128,-1,35
 192 513 192 513 176 461.5 c 128,-1,36
 160 410 160 410 160 347 c 0,27,28
389 70 m 0,37,38
 442 70 442 70 484 89.5 c 128,-1,39
 526 109 526 109 555.5 145 c 128,-1,40
 585 181 585 181 601 232.5 c 128,-1,41
 617 284 617 284 617 347 c 0,42,43
 617 400 617 400 606 443.5 c 128,-1,44
 595 487 595 487 575 522 c 1,45,-1
 257 111 l 1,46,47
 310 70 310 70 389 70 c 0,37,38
EndSplineSet
EndChar

StartChar: Thorn
Encoding: 222 222 185
Width: 609
Flags: W
LayerCount: 2
Fore
SplineSet
183 222 m 1,0,-1
 256 222 l 2,1,2
 306 222 306 222 346 228.5 c 128,-1,3
 386 235 386 235 413.5 251 c 128,-1,4
 441 267 441 267 456 294 c 128,-1,5
 471 321 471 321 471 363 c 0,6,7
 471 403 471 403 455.5 429.5 c 128,-1,8
 440 456 440 456 412 471.5 c 128,-1,9
 384 487 384 487 345 493 c 128,-1,10
 306 499 306 499 259 499 c 0,11,12
 241 499 241 499 221.5 499 c 128,-1,13
 202 499 202 499 183 497 c 1,14,-1
 183 222 l 1,0,-1
183 693 m 1,15,-1
 183 580 l 1,16,17
 202 582 202 582 222.5 582.5 c 128,-1,18
 243 583 243 583 262 583 c 0,19,20
 573 583 573 583 573 362 c 0,21,22
 573 302 573 302 551.5 260.5 c 128,-1,23
 530 219 530 219 489.5 192.5 c 128,-1,24
 449 166 449 166 391 154 c 128,-1,25
 333 142 333 142 260 142 c 2,26,-1
 183 142 l 1,27,-1
 183 0 l 1,28,-1
 86 0 l 1,29,-1
 86 693 l 1,30,-1
 183 693 l 1,15,-1
EndSplineSet
EndChar

StartChar: germandbls
Encoding: 223 223 186
Width: 623
Flags: W
LayerCount: 2
Fore
SplineSet
498 616 m 0,0,1
 498 591 498 591 491 571.5 c 128,-1,2
 484 552 484 552 473.5 535.5 c 128,-1,3
 463 519 463 519 450.5 505 c 128,-1,4
 438 491 438 491 427 479 c 0,5,6
 404 454 404 454 388 437.5 c 128,-1,7
 372 421 372 421 372 396 c 0,8,9
 372 381 372 381 379.5 370 c 128,-1,10
 387 359 387 359 399 351 c 128,-1,11
 411 343 411 343 425.5 336 c 128,-1,12
 440 329 440 329 455 322 c 0,13,14
 482 309 482 309 505.5 294 c 128,-1,15
 529 279 529 279 546.5 259.5 c 128,-1,16
 564 240 564 240 573.5 213.5 c 128,-1,17
 583 187 583 187 583 150 c 0,18,19
 583 72 583 72 534.5 30 c 128,-1,20
 486 -12 486 -12 384 -12 c 0,21,22
 363 -12 363 -12 342 -9 c 128,-1,23
 321 -6 321 -6 303 -1.5 c 128,-1,24
 285 3 285 3 271.5 8 c 128,-1,25
 258 13 258 13 252 16 c 1,26,-1
 268 97 l 1,27,28
 274 94 274 94 286.5 89 c 128,-1,29
 299 84 299 84 315.5 79 c 128,-1,30
 332 74 332 74 351.5 70.5 c 128,-1,31
 371 67 371 67 391 67 c 0,32,33
 441 67 441 67 465 89 c 128,-1,34
 489 111 489 111 489 148 c 0,35,36
 489 187 489 187 466 212 c 128,-1,37
 443 237 443 237 386 263 c 0,38,39
 353 278 353 278 331.5 291.5 c 128,-1,40
 310 305 310 305 298 319 c 128,-1,41
 286 333 286 333 281 348 c 128,-1,42
 276 363 276 363 276 383 c 0,43,44
 276 423 276 423 298 450 c 128,-1,45
 320 477 320 477 345 503 c 0,46,47
 355 513 355 513 365.5 525 c 128,-1,48
 376 537 376 537 385 549.5 c 128,-1,49
 394 562 394 562 399.5 575 c 128,-1,50
 405 588 405 588 405 602 c 0,51,52
 405 646 405 646 379 670.5 c 128,-1,53
 353 695 353 695 301 695 c 0,54,55
 234 695 234 695 203.5 657 c 128,-1,56
 173 619 173 619 173 552 c 2,57,-1
 173 0 l 1,58,-1
 80 0 l 1,59,-1
 80 554 l 2,60,61
 80 604 80 604 94 645 c 128,-1,62
 108 686 108 686 135 715 c 128,-1,63
 162 744 162 744 202 760 c 128,-1,64
 242 776 242 776 294 776 c 0,65,66
 348 776 348 776 387 764 c 128,-1,67
 426 752 426 752 450.5 730.5 c 128,-1,68
 475 709 475 709 486.5 679.5 c 128,-1,69
 498 650 498 650 498 616 c 0,0,1
EndSplineSet
EndChar

StartChar: ae
Encoding: 230 230 193
Width: 859
Flags: W
LayerCount: 2
Fore
SplineSet
613 -12 m 0,0,1
 556 -12 556 -12 513.5 1.5 c 128,-1,2
 471 15 471 15 439 41 c 1,3,4
 429 34 429 34 412.5 25 c 128,-1,5
 396 16 396 16 373 7.5 c 128,-1,6
 350 -1 350 -1 321.5 -6.5 c 128,-1,7
 293 -12 293 -12 259 -12 c 0,8,9
 209 -12 209 -12 169.5 -3 c 128,-1,10
 130 6 130 6 102 26 c 128,-1,11
 74 46 74 46 59 78 c 128,-1,12
 44 110 44 110 44 155 c 0,13,14
 44 198 44 198 61.5 229 c 128,-1,15
 79 260 79 260 109 279 c 128,-1,16
 139 298 139 298 179 307 c 128,-1,17
 219 316 219 316 263 316 c 0,18,19
 277 316 277 316 292 314.5 c 128,-1,20
 307 313 307 313 320 310.5 c 128,-1,21
 333 308 333 308 343 306 c 128,-1,22
 353 304 353 304 357 303 c 1,23,-1
 357 329 l 2,24,25
 357 352 357 352 352 374.5 c 128,-1,26
 347 397 347 397 334 414.5 c 128,-1,27
 321 432 321 432 298.5 442.5 c 128,-1,28
 276 453 276 453 240 453 c 0,29,30
 194 453 194 453 159.5 446.5 c 128,-1,31
 125 440 125 440 108 433 c 1,32,-1
 97 510 l 1,33,34
 115 518 115 518 156.5 525.5 c 128,-1,35
 198 533 198 533 246 533 c 0,36,37
 315 533 315 533 355.5 509.5 c 128,-1,38
 396 486 396 486 416 444 c 1,39,40
 449 489 449 489 494 511 c 128,-1,41
 539 533 539 533 588 533 c 0,42,43
 692 533 692 533 748.5 467 c 128,-1,44
 805 401 805 401 805 268 c 0,45,46
 805 260 805 260 804.5 254.5 c 128,-1,47
 804 249 804 249 804 244 c 2,48,-1
 804 235 l 1,49,-1
 448 235 l 1,50,51
 454 155 454 155 495.5 112.5 c 128,-1,52
 537 70 537 70 623 70 c 0,53,54
 672 70 672 70 705.5 78.5 c 128,-1,55
 739 87 739 87 756 95 c 1,56,-1
 769 17 l 1,57,58
 752 8 752 8 709.5 -2 c 128,-1,59
 667 -12 667 -12 613 -12 c 0,0,1
261 67 m 0,60,61
 313 67 313 67 343 78.5 c 128,-1,62
 373 90 373 90 389 101 c 1,63,64
 374 129 374 129 365.5 161 c 128,-1,65
 357 193 357 193 356 229 c 1,66,67
 345 234 345 234 324 237.5 c 128,-1,68
 303 241 303 241 271 241 c 0,69,70
 250 241 250 241 226.5 238 c 128,-1,71
 203 235 203 235 183.5 225.5 c 128,-1,72
 164 216 164 216 151 199.5 c 128,-1,73
 138 183 138 183 138 156 c 0,74,75
 138 105 138 105 170.5 86 c 128,-1,76
 203 67 203 67 261 67 c 0,60,61
708 310 m 1,77,78
 709 373 709 373 676.5 413.5 c 128,-1,79
 644 454 644 454 587 454 c 0,80,81
 555 454 555 454 530.5 441.5 c 128,-1,82
 506 429 506 429 489.5 409 c 128,-1,83
 473 389 473 389 463 363 c 128,-1,84
 453 337 453 337 450 310 c 1,85,-1
 708 310 l 1,77,78
EndSplineSet
Substitution2: "'case' Case-Sensitive Forms lookup 19 subtable" AE
EndChar

StartChar: ccedilla
Encoding: 231 231 194
Width: 465
Flags: W
LayerCount: 2
Fore
SplineSet
318 -12 m 1,0,-1
 307 -37 l 1,1,2
 336 -51 336 -51 349 -67.5 c 128,-1,3
 362 -84 362 -84 362 -116 c 0,4,5
 362 -127 362 -127 357 -140 c 128,-1,6
 352 -153 352 -153 340 -164 c 128,-1,7
 328 -175 328 -175 308 -182 c 128,-1,8
 288 -189 288 -189 259 -189 c 0,9,10
 233 -189 233 -189 211.5 -185 c 128,-1,11
 190 -181 190 -181 177 -176 c 1,12,-1
 188 -119 l 1,13,14
 200 -123 200 -123 213.5 -126 c 128,-1,15
 227 -129 227 -129 244 -129 c 0,16,17
 280 -129 280 -129 280 -106 c 0,18,19
 280 -95 280 -95 269 -87.5 c 128,-1,20
 258 -80 258 -80 238 -72 c 2,21,-1
 231 -69 l 1,22,23
 235 -57 235 -57 242 -40 c 128,-1,24
 249 -23 249 -23 257 -8 c 1,25,26
 206 -1 206 -1 167.5 21.5 c 128,-1,27
 129 44 129 44 103 79 c 128,-1,28
 77 114 77 114 64 159.5 c 128,-1,29
 51 205 51 205 51 259 c 0,30,31
 51 319 51 319 68.5 369 c 128,-1,32
 86 419 86 419 118 455.5 c 128,-1,33
 150 492 150 492 196.5 512.5 c 128,-1,34
 243 533 243 533 300 533 c 0,35,36
 335 533 335 533 370 527 c 128,-1,37
 405 521 405 521 437 508 c 1,38,-1
 416 429 l 1,39,40
 395 439 395 439 367.5 445 c 128,-1,41
 340 451 340 451 309 451 c 0,42,43
 231 451 231 451 189.5 402 c 128,-1,44
 148 353 148 353 148 259 c 0,45,46
 148 217 148 217 157.5 182 c 128,-1,47
 167 147 167 147 187.5 122 c 128,-1,48
 208 97 208 97 240 83.5 c 128,-1,49
 272 70 272 70 318 70 c 0,50,51
 355 70 355 70 385 77 c 128,-1,52
 415 84 415 84 432 92 c 1,53,-1
 445 14 l 1,54,55
 437 10 437 10 423.5 5.5 c 128,-1,56
 410 1 410 1 393 -2.5 c 128,-1,57
 376 -6 376 -6 356.5 -8.5 c 128,-1,58
 337 -11 337 -11 318 -12 c 1,0,-1
EndSplineSet
Substitution2: "'case' Case-Sensitive Forms lookup 19 subtable" Ccedilla
EndChar

StartChar: eth
Encoding: 240 240 203
Width: 589
Flags: W
LayerCount: 2
Fore
SplineSet
564 657 m 1,0,-1
 457 620 l 1,1,2
 489 566 489 566 511 494 c 128,-1,3
 533 422 533 422 533 328 c 0,4,5
 533 262 533 262 521.5 200.5 c 128,-1,6
 510 139 510 139 482 91.5 c 128,-1,7
 454 44 454 44 406.5 15.5 c 128,-1,8
 359 -13 359 -13 287 -13 c 0,9,10
 228 -13 228 -13 183.5 9 c 128,-1,11
 139 31 139 31 109.5 67 c 128,-1,12
 80 103 80 103 65.5 150 c 128,-1,13
 51 197 51 197 51 248 c 0,14,15
 51 304 51 304 67.5 349 c 128,-1,16
 84 394 84 394 114 425.5 c 128,-1,17
 144 457 144 457 187.5 473.5 c 128,-1,18
 231 490 231 490 285 490 c 0,19,20
 336 490 336 490 374 474 c 128,-1,21
 412 458 412 458 430 444 c 1,22,23
 418 524 418 524 375 592 c 1,24,-1
 255 551 l 1,25,-1
 232 614 l 1,26,-1
 334 649 l 1,27,28
 301 688 301 688 250 725 c 1,29,-1
 309 776 l 1,30,31
 331 762 331 762 359.5 737.5 c 128,-1,32
 388 713 388 713 417 677 c 1,33,-1
 541 720 l 1,34,-1
 564 657 l 1,0,-1
438 325 m 0,35,36
 438 333 438 333 437.5 341 c 128,-1,37
 437 349 437 349 437 357 c 1,38,39
 403 387 403 387 366 398 c 128,-1,40
 329 409 329 409 297 409 c 0,41,42
 256 409 256 409 227.5 396.5 c 128,-1,43
 199 384 199 384 181 362 c 128,-1,44
 163 340 163 340 154.5 311 c 128,-1,45
 146 282 146 282 146 248 c 0,46,47
 146 212 146 212 155 179.5 c 128,-1,48
 164 147 164 147 181.5 122.5 c 128,-1,49
 199 98 199 98 225.5 83.5 c 128,-1,50
 252 69 252 69 287 69 c 0,51,52
 333 69 333 69 362.5 91 c 128,-1,53
 392 113 392 113 408.5 149 c 128,-1,54
 425 185 425 185 431.5 231 c 128,-1,55
 438 277 438 277 438 325 c 0,35,36
EndSplineSet
Substitution2: "'case' Case-Sensitive Forms lookup 19 subtable" Eth
EndChar

StartChar: divide
Encoding: 247 247 210
Width: 564
Flags: W
LayerCount: 2
Fore
SplineSet
282 45 m 256,0,1
 257 45 257 45 239.5 61.5 c 128,-1,2
 222 78 222 78 222 106 c 256,3,4
 222 134 222 134 239.5 150.5 c 128,-1,5
 257 167 257 167 282 167 c 256,6,7
 307 167 307 167 324.5 150.5 c 128,-1,8
 342 134 342 134 342 106 c 256,9,10
 342 78 342 78 324.5 61.5 c 128,-1,11
 307 45 307 45 282 45 c 256,0,1
282 431 m 256,12,13
 257 431 257 431 239.5 447.5 c 128,-1,14
 222 464 222 464 222 492 c 256,15,16
 222 520 222 520 239.5 536.5 c 128,-1,17
 257 553 257 553 282 553 c 256,18,19
 307 553 307 553 324.5 536.5 c 128,-1,20
 342 520 342 520 342 492 c 256,21,22
 342 464 342 464 324.5 447.5 c 128,-1,23
 307 431 307 431 282 431 c 256,12,13
53 339 m 1,24,-1
 511 339 l 1,25,-1
 511 260 l 1,26,-1
 53 260 l 1,27,-1
 53 339 l 1,24,-1
EndSplineSet
EndChar

StartChar: oslash
Encoding: 248 248 211
Width: 590
Flags: W
LayerCount: 2
Fore
SplineSet
480 445 m 1,0,1
 508 410 508 410 523.5 363.5 c 128,-1,2
 539 317 539 317 539 260 c 0,3,4
 539 198 539 198 521 148 c 128,-1,5
 503 98 503 98 470.5 62 c 128,-1,6
 438 26 438 26 393 6.5 c 128,-1,7
 348 -13 348 -13 295 -13 c 0,8,9
 216 -13 216 -13 158 28 c 1,10,-1
 109 -36 l 1,11,-1
 56 4 l 1,12,-1
 110 74 l 1,13,14
 82 109 82 109 66.5 156 c 128,-1,15
 51 203 51 203 51 260 c 0,16,17
 51 321 51 321 69 371.5 c 128,-1,18
 87 422 87 422 119.5 458 c 128,-1,19
 152 494 152 494 197 513.5 c 128,-1,20
 242 533 242 533 295 533 c 0,21,22
 334 533 334 533 368.5 522 c 128,-1,23
 403 511 403 511 432 491 c 1,24,-1
 481 555 l 1,25,-1
 534 515 l 1,26,-1
 480 445 l 1,0,1
147 260 m 0,27,28
 147 195 147 195 168 150 c 1,29,-1
 380 424 l 1,30,31
 344 452 344 452 295 452 c 0,32,33
 226 452 226 452 186.5 400.5 c 128,-1,34
 147 349 147 349 147 260 c 0,27,28
443 260 m 0,35,36
 443 322 443 322 421 369 c 1,37,-1
 210 95 l 1,38,39
 244 68 244 68 295 68 c 0,40,41
 364 68 364 68 403.5 119.5 c 128,-1,42
 443 171 443 171 443 260 c 0,35,36
EndSplineSet
Substitution2: "'case' Case-Sensitive Forms lookup 19 subtable" Oslash
EndChar

StartChar: thorn
Encoding: 254 254 217
Width: 589
Flags: W
LayerCount: 2
Fore
SplineSet
441 259 m 0,0,1
 441 350 441 350 396 399.5 c 128,-1,2
 351 449 351 449 276 449 c 0,3,4
 261 449 261 449 245 447 c 128,-1,5
 229 445 229 445 214.5 442.5 c 128,-1,6
 200 440 200 440 189 437 c 128,-1,7
 178 434 178 434 173 432 c 1,8,-1
 173 110 l 1,9,10
 190 96 190 96 222 83 c 128,-1,11
 254 70 254 70 292 70 c 0,12,13
 332 70 332 70 360.5 84.5 c 128,-1,14
 389 99 389 99 407 124.5 c 128,-1,15
 425 150 425 150 433 184.5 c 128,-1,16
 441 219 441 219 441 259 c 0,0,1
538 259 m 0,17,18
 538 200 538 200 522.5 150 c 128,-1,19
 507 100 507 100 477 64 c 128,-1,20
 447 28 447 28 403.5 8 c 128,-1,21
 360 -12 360 -12 304 -12 c 0,22,23
 259 -12 259 -12 224.5 0 c 128,-1,24
 190 12 190 12 173 23 c 1,25,-1
 173 -185 l 1,26,-1
 80 -185 l 1,27,-1
 80 760 l 1,28,-1
 173 776 l 1,29,-1
 173 511 l 1,30,31
 199 520 199 520 227.5 525.5 c 128,-1,32
 256 531 256 531 282 531 c 0,33,34
 339 531 339 531 386.5 512 c 128,-1,35
 434 493 434 493 467.5 458 c 128,-1,36
 501 423 501 423 519.5 372.5 c 128,-1,37
 538 322 538 322 538 259 c 0,17,18
EndSplineSet
Substitution2: "'case' Case-Sensitive Forms lookup 19 subtable" Thorn
EndChar

StartChar: Aogonek
Encoding: 260 260 223
Width: 663
Flags: W
LayerCount: 2
Fore
SplineSet
550 -2 m 1,0,1
 533 43 533 43 517.5 87.5 c 128,-1,2
 502 132 502 132 486 177 c 1,3,-1
 172 177 l 1,4,-1
 109 0 l 1,5,-1
 8 0 l 1,6,7
 48 110 48 110 83 203.5 c 128,-1,8
 118 297 118 297 151.5 381 c 128,-1,9
 185 465 185 465 218 541.5 c 128,-1,10
 251 618 251 618 287 693 c 1,11,-1
 376 693 l 1,12,13
 412 618 412 618 445 541.5 c 128,-1,14
 478 465 478 465 511 381.5 c 128,-1,15
 544 298 544 298 579 204.5 c 128,-1,16
 614 111 614 111 654 2 c 1,17,18
 645 -3 645 -3 630 -13 c 128,-1,19
 615 -23 615 -23 600 -39 c 0,20,21
 586 -55 586 -55 578 -67 c 128,-1,22
 570 -79 570 -79 570 -93 c 0,23,24
 570 -122 570 -122 610 -122 c 0,25,26
 617 -122 617 -122 628.5 -120.5 c 128,-1,27
 640 -119 640 -119 651 -115 c 1,28,-1
 658 -176 l 1,29,30
 647 -181 647 -181 629.5 -184 c 128,-1,31
 612 -187 612 -187 592 -187 c 0,32,33
 536 -187 536 -187 509 -166.5 c 128,-1,34
 482 -146 482 -146 482 -111 c 0,35,36
 482 -88 482 -88 494.5 -66.5 c 128,-1,37
 507 -45 507 -45 524 -27 c 0,38,39
 532 -19 532 -19 538.5 -13 c 128,-1,40
 545 -7 545 -7 550 -2 c 1,0,1
458 257 m 1,41,42
 426 344 426 344 394.5 425.5 c 128,-1,43
 363 507 363 507 329 582 c 1,44,45
 294 507 294 507 262.5 425.5 c 128,-1,46
 231 344 231 344 200 257 c 1,47,-1
 458 257 l 1,41,42
EndSplineSet
EndChar

StartChar: aogonek
Encoding: 261 261 224
Width: 522
Flags: W
LayerCount: 2
Fore
SplineSet
256 67 m 0,0,1
 289 67 289 67 314.5 68.5 c 128,-1,2
 340 70 340 70 357 74 c 1,3,-1
 357 229 l 1,4,5
 347 234 347 234 324.5 237.5 c 128,-1,6
 302 241 302 241 270 241 c 0,7,8
 249 241 249 241 225.5 238 c 128,-1,9
 202 235 202 235 182.5 225.5 c 128,-1,10
 163 216 163 216 150 199.5 c 128,-1,11
 137 183 137 183 137 156 c 0,12,13
 137 106 137 106 169 86.5 c 128,-1,14
 201 67 201 67 256 67 c 0,0,1
248 533 m 0,15,16
 304 533 304 533 342.5 518.5 c 128,-1,17
 381 504 381 504 404.5 477.5 c 128,-1,18
 428 451 428 451 438 414.5 c 128,-1,19
 448 378 448 378 448 334 c 2,20,-1
 448 9 l 1,21,22
 436 0 436 0 421.5 -11.5 c 128,-1,23
 407 -23 407 -23 392 -39 c 0,24,25
 378 -55 378 -55 369 -67 c 128,-1,26
 360 -79 360 -79 360 -93 c 0,27,28
 360 -122 360 -122 400 -122 c 0,29,30
 407 -122 407 -122 418.5 -120.5 c 128,-1,31
 430 -119 430 -119 441 -115 c 1,32,-1
 448 -176 l 1,33,34
 437 -181 437 -181 419.5 -184 c 128,-1,35
 402 -187 402 -187 382 -187 c 0,36,37
 326 -187 326 -187 299 -166.5 c 128,-1,38
 272 -146 272 -146 272 -111 c 0,39,40
 272 -88 272 -88 286 -66.5 c 128,-1,41
 300 -45 300 -45 317 -27 c 0,42,43
 322 -21 322 -21 329 -15.5 c 128,-1,44
 336 -10 336 -10 341 -5 c 1,45,46
 318 -7 318 -7 293.5 -9 c 128,-1,47
 269 -11 269 -11 245 -11 c 0,48,49
 201 -11 201 -11 164 -2 c 128,-1,50
 127 7 127 7 100 26.5 c 128,-1,51
 73 46 73 46 58 78 c 128,-1,52
 43 110 43 110 43 155 c 0,53,54
 43 198 43 198 60.5 229 c 128,-1,55
 78 260 78 260 108 279 c 128,-1,56
 138 298 138 298 178 307 c 128,-1,57
 218 316 218 316 262 316 c 0,58,59
 276 316 276 316 291 314.5 c 128,-1,60
 306 313 306 313 319.5 310.5 c 128,-1,61
 333 308 333 308 343 306 c 128,-1,62
 353 304 353 304 357 303 c 1,63,-1
 357 329 l 2,64,65
 357 352 357 352 352 374.5 c 128,-1,66
 347 397 347 397 334 414.5 c 128,-1,67
 321 432 321 432 298.5 442.5 c 128,-1,68
 276 453 276 453 240 453 c 0,69,70
 194 453 194 453 159.5 446.5 c 128,-1,71
 125 440 125 440 108 433 c 1,72,-1
 97 510 l 1,73,74
 115 518 115 518 157 525.5 c 128,-1,75
 199 533 199 533 248 533 c 0,15,16
EndSplineSet
Substitution2: "'case' Case-Sensitive Forms lookup 19 subtable" Aogonek
EndChar

StartChar: dcroat
Encoding: 273 273 236
Width: 589
Flags: W
LayerCount: 2
Fore
SplineSet
416 406 m 1,0,1
 399 420 399 420 367 433 c 128,-1,2
 335 446 335 446 297 446 c 0,3,4
 257 446 257 446 228.5 432 c 128,-1,5
 200 418 200 418 182 393 c 128,-1,6
 164 368 164 368 156 333.5 c 128,-1,7
 148 299 148 299 148 259 c 0,8,9
 148 168 148 168 193 119 c 128,-1,10
 238 70 238 70 313 70 c 0,11,12
 351 70 351 70 376.5 73.5 c 128,-1,13
 402 77 402 77 416 81 c 1,14,-1
 416 406 l 1,0,1
416 760 m 1,15,-1
 509 776 l 1,16,-1
 509 683 l 1,17,-1
 583 683 l 1,18,-1
 583 614 l 1,19,-1
 509 614 l 1,20,-1
 509 15 l 1,21,22
 477 6 477 6 427 -3 c 128,-1,23
 377 -12 377 -12 312 -12 c 0,24,25
 252 -12 252 -12 204 6.5 c 128,-1,26
 156 25 156 25 122 60.5 c 128,-1,27
 88 96 88 96 69.5 146 c 128,-1,28
 51 196 51 196 51 259 c 0,29,30
 51 319 51 319 66.5 368.5 c 128,-1,31
 82 418 82 418 112 453.5 c 128,-1,32
 142 489 142 489 185.5 508.5 c 128,-1,33
 229 528 229 528 285 528 c 0,34,35
 330 528 330 528 364.5 516 c 128,-1,36
 399 504 399 504 416 493 c 1,37,-1
 416 614 l 1,38,-1
 239 614 l 1,39,-1
 239 683 l 1,40,-1
 416 683 l 1,41,-1
 416 760 l 1,15,-1
EndSplineSet
Substitution2: "'case' Case-Sensitive Forms lookup 19 subtable" Dcroat
EndChar

StartChar: Eogonek
Encoding: 280 280 243
Width: 571
Flags: W
LayerCount: 2
Fore
SplineSet
86 0 m 1,0,-1
 86 693 l 1,1,-1
 509 693 l 1,2,-1
 509 610 l 1,3,-1
 183 610 l 1,4,-1
 183 404 l 1,5,-1
 473 404 l 1,6,-1
 473 323 l 1,7,-1
 183 323 l 1,8,-1
 183 83 l 1,9,-1
 534 83 l 1,10,-1
 534 2 l 1,11,12
 525 -3 525 -3 510 -13 c 128,-1,13
 495 -23 495 -23 480 -39 c 0,14,15
 466 -55 466 -55 458 -67 c 128,-1,16
 450 -79 450 -79 450 -93 c 0,17,18
 450 -122 450 -122 490 -122 c 0,19,20
 497 -122 497 -122 508.5 -120.5 c 128,-1,21
 520 -119 520 -119 531 -115 c 1,22,-1
 538 -176 l 1,23,24
 527 -181 527 -181 509.5 -184 c 128,-1,25
 492 -187 492 -187 472 -187 c 0,26,27
 416 -187 416 -187 389 -166.5 c 128,-1,28
 362 -146 362 -146 362 -111 c 0,29,30
 362 -88 362 -88 374.5 -66.5 c 128,-1,31
 387 -45 387 -45 404 -27 c 0,32,33
 412 -19 412 -19 418.5 -12.5 c 128,-1,34
 425 -6 425 -6 433 0 c 1,35,-1
 86 0 l 1,0,-1
EndSplineSet
EndChar

StartChar: eogonek
Encoding: 281 281 244
Width: 559
Flags: W
LayerCount: 2
Fore
SplineSet
51 259 m 0,0,1
 51 328 51 328 71 379.5 c 128,-1,2
 91 431 91 431 124 465 c 128,-1,3
 157 499 157 499 200 516 c 128,-1,4
 243 533 243 533 288 533 c 0,5,6
 393 533 393 533 449 467.5 c 128,-1,7
 505 402 505 402 505 268 c 0,8,9
 505 262 505 262 505 252.5 c 128,-1,10
 505 243 505 243 504 235 c 1,11,-1
 148 235 l 1,12,13
 154 154 154 154 195 112 c 128,-1,14
 236 70 236 70 323 70 c 0,15,16
 372 70 372 70 405.5 78.5 c 128,-1,17
 439 87 439 87 456 95 c 1,18,-1
 469 17 l 1,19,20
 452 4 452 4 435 -9 c 128,-1,21
 418 -22 418 -22 402 -39 c 0,22,23
 385 -56 385 -56 377.5 -68.5 c 128,-1,24
 370 -81 370 -81 370 -93 c 0,25,26
 370 -110 370 -110 381.5 -116 c 128,-1,27
 393 -122 393 -122 410 -122 c 0,28,29
 422 -122 422 -122 433 -119.5 c 128,-1,30
 444 -117 444 -117 451 -115 c 1,31,-1
 458 -176 l 1,32,33
 446 -182 446 -182 427 -184.5 c 128,-1,34
 408 -187 408 -187 392 -187 c 0,35,36
 341 -187 341 -187 311.5 -169 c 128,-1,37
 282 -151 282 -151 282 -111 c 0,38,39
 282 -88 282 -88 298.5 -62 c 128,-1,40
 315 -36 315 -36 346 -10 c 1,41,42
 338 -11 338 -11 329.5 -11.5 c 128,-1,43
 321 -12 321 -12 313 -12 c 0,44,45
 245 -12 245 -12 195.5 8.5 c 128,-1,46
 146 29 146 29 114 65 c 128,-1,47
 82 101 82 101 66.5 150.5 c 128,-1,48
 51 200 51 200 51 259 c 0,0,1
408 310 m 1,49,50
 409 373 409 373 376.5 413.5 c 128,-1,51
 344 454 344 454 287 454 c 0,52,53
 255 454 255 454 230.5 441.5 c 128,-1,54
 206 429 206 429 189 409 c 128,-1,55
 172 389 172 389 162.5 363 c 128,-1,56
 153 337 153 337 150 310 c 1,57,-1
 408 310 l 1,49,50
EndSplineSet
Substitution2: "'case' Case-Sensitive Forms lookup 19 subtable" Eogonek
EndChar

StartChar: Hbar
Encoding: 294 294 257
Width: 731
Flags: W
LayerCount: 2
Fore
SplineSet
19 594 m 1,0,-1
 99 594 l 1,1,-1
 99 693 l 1,2,-1
 196 693 l 1,3,-1
 196 594 l 1,4,-1
 535 594 l 1,5,-1
 535 693 l 1,6,-1
 632 693 l 1,7,-1
 632 594 l 1,8,-1
 712 594 l 1,9,-1
 712 523 l 1,10,-1
 632 523 l 1,11,-1
 632 0 l 1,12,-1
 535 0 l 1,13,-1
 535 320 l 1,14,-1
 196 320 l 1,15,-1
 196 0 l 1,16,-1
 99 0 l 1,17,-1
 99 523 l 1,18,-1
 19 523 l 1,19,-1
 19 594 l 1,0,-1
535 523 m 1,20,-1
 196 523 l 1,21,-1
 196 404 l 1,22,-1
 535 404 l 1,23,-1
 535 523 l 1,20,-1
EndSplineSet
EndChar

StartChar: hbar
Encoding: 295 295 258
Width: 571
Flags: W
LayerCount: 2
Fore
SplineSet
80 0 m 1,0,-1
 80 614 l 1,1,-1
 6 614 l 1,2,-1
 6 683 l 1,3,-1
 80 683 l 1,4,-1
 80 760 l 1,5,-1
 173 776 l 1,6,-1
 173 683 l 1,7,-1
 350 683 l 1,8,-1
 350 614 l 1,9,-1
 173 614 l 1,10,-1
 173 506 l 1,11,12
 199 516 199 516 228.5 521.5 c 128,-1,13
 258 527 258 527 287 527 c 0,14,15
 349 527 349 527 390 509.5 c 128,-1,16
 431 492 431 492 455.5 460.5 c 128,-1,17
 480 429 480 429 490 385 c 128,-1,18
 500 341 500 341 500 288 c 2,19,-1
 500 0 l 1,20,-1
 407 0 l 1,21,-1
 407 268 l 2,22,23
 407 316 407 316 400.5 350 c 128,-1,24
 394 384 394 384 379 405 c 128,-1,25
 364 426 364 426 339 435.5 c 128,-1,26
 314 445 314 445 277 445 c 0,27,28
 262 445 262 445 246 443 c 128,-1,29
 230 441 230 441 215.5 438.5 c 128,-1,30
 201 436 201 436 189.5 433 c 128,-1,31
 178 430 178 430 173 428 c 1,32,-1
 173 0 l 1,33,-1
 80 0 l 1,0,-1
EndSplineSet
Substitution2: "'case' Case-Sensitive Forms lookup 19 subtable" Hbar
EndChar

StartChar: Iogonek
Encoding: 302 302 265
Width: 269
Flags: W
LayerCount: 2
Fore
SplineSet
86 693 m 1,0,-1
 183 693 l 1,1,-1
 183 0 l 1,2,3
 172 -8 172 -8 160.5 -17 c 128,-1,4
 149 -26 149 -26 137 -39 c 0,5,6
 123 -55 123 -55 114 -67 c 128,-1,7
 105 -79 105 -79 105 -93 c 0,8,9
 105 -122 105 -122 145 -122 c 0,10,11
 152 -122 152 -122 163.5 -120.5 c 128,-1,12
 175 -119 175 -119 186 -115 c 1,13,-1
 193 -176 l 1,14,15
 169 -187 169 -187 127 -187 c 0,16,17
 70 -187 70 -187 43.5 -166.5 c 128,-1,18
 17 -146 17 -146 17 -111 c 0,19,20
 17 -88 17 -88 30 -66.5 c 128,-1,21
 43 -45 43 -45 60 -27 c 0,22,23
 68 -19 68 -19 74.5 -12.5 c 128,-1,24
 81 -6 81 -6 86 -2 c 1,25,-1
 86 693 l 1,0,-1
EndSplineSet
EndChar

StartChar: iogonek
Encoding: 303 303 266
Width: 253
Flags: W
LayerCount: 2
Fore
SplineSet
173 0 m 1,0,1
 149 -18 149 -18 129 -39 c 0,2,3
 115 -55 115 -55 106 -67 c 128,-1,4
 97 -79 97 -79 97 -93 c 0,5,6
 97 -122 97 -122 137 -122 c 0,7,8
 144 -122 144 -122 155.5 -120.5 c 128,-1,9
 167 -119 167 -119 178 -115 c 1,10,-1
 185 -176 l 1,11,12
 161 -187 161 -187 119 -187 c 0,13,14
 62 -187 62 -187 35.5 -166.5 c 128,-1,15
 9 -146 9 -146 9 -111 c 0,16,17
 9 -88 9 -88 22 -67 c 128,-1,18
 35 -46 35 -46 52 -27 c 0,19,20
 60 -18 60 -18 67 -11.5 c 128,-1,21
 74 -5 74 -5 80 0 c 1,22,-1
 80 520 l 1,23,-1
 173 520 l 1,24,-1
 173 0 l 1,0,1
126 614 m 256,25,26
 101 614 101 614 83.5 630.5 c 128,-1,27
 66 647 66 647 66 675 c 256,28,29
 66 703 66 703 83.5 719.5 c 128,-1,30
 101 736 101 736 126 736 c 256,31,32
 151 736 151 736 168.5 719.5 c 128,-1,33
 186 703 186 703 186 675 c 256,34,35
 186 647 186 647 168.5 630.5 c 128,-1,36
 151 614 151 614 126 614 c 256,25,26
EndSplineSet
Substitution2: "'case' Case-Sensitive Forms lookup 19 subtable" Iogonek
EndChar

StartChar: dotlessi
Encoding: 305 305 268
Width: 253
Flags: W
LayerCount: 2
Fore
SplineSet
173 0 m 1,0,-1
 80 0 l 1,1,-1
 80 520 l 1,2,-1
 173 520 l 1,3,-1
 173 0 l 1,0,-1
EndSplineSet
EndChar

StartChar: kgreenlandic
Encoding: 312 312 277
Width: 537
Flags: W
LayerCount: 2
Fore
SplineSet
270 283 m 1,0,1
 301 261 301 261 337 227.5 c 128,-1,2
 373 194 373 194 407.5 155 c 128,-1,3
 442 116 442 116 472 75.5 c 128,-1,4
 502 35 502 35 523 0 c 1,5,-1
 413 0 l 1,6,7
 391 34 391 34 361.5 69.5 c 128,-1,8
 332 105 332 105 300 138 c 128,-1,9
 268 171 268 171 235 199 c 128,-1,10
 202 227 202 227 173 246 c 1,11,-1
 173 0 l 1,12,-1
 80 0 l 1,13,-1
 80 520 l 1,14,-1
 173 520 l 1,15,-1
 173 297 l 1,16,17
 197 320 197 320 228 350.5 c 128,-1,18
 259 381 259 381 290.5 412.5 c 128,-1,19
 322 444 322 444 349 472.5 c 128,-1,20
 376 501 376 501 393 520 c 1,21,-1
 501 520 l 1,22,23
 479 496 479 496 449.5 465.5 c 128,-1,24
 420 435 420 435 388.5 403 c 128,-1,25
 357 371 357 371 326 339.5 c 128,-1,26
 295 308 295 308 270 283 c 1,0,1
EndSplineSet
Substitution2: "'case' Case-Sensitive Forms lookup 19 subtable" kgreenlandic.case
EndChar

StartChar: Lslash
Encoding: 321 321 286
Width: 537
Flags: W
LayerCount: 2
Fore
SplineSet
521 84 m 1,0,-1
 521 0 l 1,1,-1
 104 0 l 1,2,-1
 104 286 l 1,3,-1
 31 249 l 1,4,-1
 -2 315 l 1,5,-1
 104 369 l 1,6,-1
 104 693 l 1,7,-1
 201 693 l 1,8,-1
 201 419 l 1,9,-1
 317 479 l 1,10,-1
 349 413 l 1,11,-1
 201 336 l 1,12,-1
 201 84 l 1,13,-1
 521 84 l 1,0,-1
EndSplineSet
EndChar

StartChar: lslash
Encoding: 322 322 287
Width: 287
Flags: W
LayerCount: 2
Fore
SplineSet
250 -10 m 1,0,1
 164 -8 164 -8 128 27 c 128,-1,2
 92 62 92 62 92 136 c 2,3,-1
 92 340 l 1,4,-1
 35 311 l 1,5,-1
 3 373 l 1,6,-1
 92 418 l 1,7,-1
 92 760 l 1,8,-1
 185 776 l 1,9,-1
 185 466 l 1,10,-1
 258 504 l 1,11,-1
 289 442 l 1,12,-1
 185 388 l 1,13,-1
 185 151 l 2,14,15
 185 128 185 128 189 113 c 128,-1,16
 193 98 193 98 202 89 c 128,-1,17
 211 80 211 80 226 75.5 c 128,-1,18
 241 71 241 71 263 68 c 1,19,-1
 250 -10 l 1,0,1
EndSplineSet
Substitution2: "'case' Case-Sensitive Forms lookup 19 subtable" Lslash
EndChar

StartChar: Eng
Encoding: 330 330 296
Width: 728
Flags: W
LayerCount: 2
Fore
SplineSet
547 24 m 1,0,1
 512 81 512 81 465.5 152 c 128,-1,2
 419 223 419 223 369 294 c 128,-1,3
 319 365 319 365 270 430.5 c 128,-1,4
 221 496 221 496 181 541 c 1,5,-1
 181 0 l 1,6,-1
 86 0 l 1,7,-1
 86 693 l 1,8,-1
 163 693 l 1,9,10
 210 643 210 643 263.5 576.5 c 128,-1,11
 317 510 317 510 369.5 439.5 c 128,-1,12
 422 369 422 369 468.5 301 c 128,-1,13
 515 233 515 233 547 180 c 1,14,-1
 547 693 l 1,15,-1
 642 693 l 1,16,-1
 642 0 l 2,17,18
 642 -46 642 -46 636 -81 c 128,-1,19
 630 -116 630 -116 614 -139.5 c 128,-1,20
 598 -163 598 -163 569 -175 c 128,-1,21
 540 -187 540 -187 495 -187 c 0,22,23
 481 -187 481 -187 462.5 -184.5 c 128,-1,24
 444 -182 444 -182 433 -179 c 1,25,-1
 442 -106 l 1,26,27
 450 -109 450 -109 463.5 -110 c 128,-1,28
 477 -111 477 -111 485 -111 c 0,29,30
 522 -111 522 -111 534.5 -86.5 c 128,-1,31
 547 -62 547 -62 547 -17 c 2,32,-1
 547 24 l 1,0,1
EndSplineSet
EndChar

StartChar: eng
Encoding: 331 331 297
Width: 574
Flags: W
LayerCount: 2
Fore
SplineSet
80 505 m 1,0,1
 112 513 112 513 165 522 c 128,-1,2
 218 531 218 531 287 531 c 0,3,4
 349 531 349 531 390 513.5 c 128,-1,5
 431 496 431 496 455.5 464.5 c 128,-1,6
 480 433 480 433 490 389 c 128,-1,7
 500 345 500 345 500 292 c 2,8,-1
 500 0 l 2,9,10
 500 -46 500 -46 493.5 -81 c 128,-1,11
 487 -116 487 -116 470.5 -139.5 c 128,-1,12
 454 -163 454 -163 425 -175 c 128,-1,13
 396 -187 396 -187 351 -187 c 0,14,15
 337 -187 337 -187 318.5 -184.5 c 128,-1,16
 300 -182 300 -182 289 -179 c 1,17,-1
 298 -106 l 1,18,19
 306 -109 306 -109 319.5 -110 c 128,-1,20
 333 -111 333 -111 341 -111 c 0,21,22
 378 -111 378 -111 392.5 -86.5 c 128,-1,23
 407 -62 407 -62 407 -17 c 2,24,-1
 407 272 l 2,25,26
 407 320 407 320 400.5 354 c 128,-1,27
 394 388 394 388 379 409 c 128,-1,28
 364 430 364 430 339 439.5 c 128,-1,29
 314 449 314 449 277 449 c 0,30,31
 262 449 262 449 246 448 c 128,-1,32
 230 447 230 447 215.5 445.5 c 128,-1,33
 201 444 201 444 189.5 442 c 128,-1,34
 178 440 178 440 173 439 c 1,35,-1
 173 0 l 1,36,-1
 80 0 l 1,37,-1
 80 505 l 1,0,1
EndSplineSet
Substitution2: "'case' Case-Sensitive Forms lookup 19 subtable" Eng
EndChar

StartChar: Scedilla
Encoding: 350 350 314
Width: 532
Flags: W
LayerCount: 2
Fore
SplineSet
247 69 m 0,0,1
 399 69 399 69 399 173 c 0,2,3
 399 205 399 205 385.5 227.5 c 128,-1,4
 372 250 372 250 349 266.5 c 128,-1,5
 326 283 326 283 296.5 295 c 128,-1,6
 267 307 267 307 234 319 c 0,7,8
 196 332 196 332 162 348.5 c 128,-1,9
 128 365 128 365 103 387.5 c 128,-1,10
 78 410 78 410 63.5 441 c 128,-1,11
 49 472 49 472 49 516 c 0,12,13
 49 607 49 607 111 658 c 128,-1,14
 173 709 173 709 282 709 c 0,15,16
 345 709 345 709 396.5 695.5 c 128,-1,17
 448 682 448 682 472 666 c 1,18,-1
 441 587 l 1,19,20
 420 600 420 600 378.5 612.5 c 128,-1,21
 337 625 337 625 282 625 c 0,22,23
 254 625 254 625 230 619 c 128,-1,24
 206 613 206 613 188 601 c 128,-1,25
 170 589 170 589 159.5 570.5 c 128,-1,26
 149 552 149 552 149 527 c 0,27,28
 149 499 149 499 160 480 c 128,-1,29
 171 461 171 461 191 446.5 c 128,-1,30
 211 432 211 432 237.5 420 c 128,-1,31
 264 408 264 408 296 396 c 0,32,33
 341 378 341 378 378.5 360 c 128,-1,34
 416 342 416 342 443.5 317 c 128,-1,35
 471 292 471 292 486 257.5 c 128,-1,36
 501 223 501 223 501 174 c 0,37,38
 501 93 501 93 447.5 45 c 128,-1,39
 394 -3 394 -3 294 -13 c 1,40,-1
 283 -37 l 1,41,42
 312 -51 312 -51 325 -67.5 c 128,-1,43
 338 -84 338 -84 338 -116 c 0,44,45
 338 -127 338 -127 333 -140 c 128,-1,46
 328 -153 328 -153 316 -164 c 128,-1,47
 304 -175 304 -175 284 -182 c 128,-1,48
 264 -189 264 -189 235 -189 c 0,49,50
 209 -189 209 -189 187.5 -185 c 128,-1,51
 166 -181 166 -181 153 -176 c 1,52,-1
 164 -119 l 1,53,54
 176 -123 176 -123 189.5 -126 c 128,-1,55
 203 -129 203 -129 220 -129 c 0,56,57
 256 -129 256 -129 256 -106 c 0,58,59
 256 -95 256 -95 245 -87.5 c 128,-1,60
 234 -80 234 -80 214 -72 c 2,61,-1
 207 -69 l 1,62,63
 211 -58 211 -58 217 -43.5 c 128,-1,64
 223 -29 223 -29 230 -15 c 1,65,66
 192 -14 192 -14 160.5 -8.5 c 128,-1,67
 129 -3 129 -3 104 4.5 c 128,-1,68
 79 12 79 12 61 20 c 128,-1,69
 43 28 43 28 33 34 c 1,70,-1
 62 114 l 1,71,72
 85 101 85 101 132 85 c 128,-1,73
 179 69 179 69 247 69 c 0,0,1
EndSplineSet
EndChar

StartChar: scedilla
Encoding: 351 351 315
Width: 446
Flags: W
LayerCount: 2
Fore
SplineSet
201 67 m 0,0,1
 258 67 258 67 285.5 82 c 128,-1,2
 313 97 313 97 313 130 c 0,3,4
 313 164 313 164 286 184 c 128,-1,5
 259 204 259 204 197 229 c 0,6,7
 167 241 167 241 139.5 253.5 c 128,-1,8
 112 266 112 266 92 283 c 128,-1,9
 72 300 72 300 60 324 c 128,-1,10
 48 348 48 348 48 383 c 0,11,12
 48 452 48 452 99 492.5 c 128,-1,13
 150 533 150 533 238 533 c 0,14,15
 260 533 260 533 282 530.5 c 128,-1,16
 304 528 304 528 323 524.5 c 128,-1,17
 342 521 342 521 356.5 517 c 128,-1,18
 371 513 371 513 379 510 c 1,19,-1
 362 430 l 1,20,21
 347 438 347 438 315 446.5 c 128,-1,22
 283 455 283 455 238 455 c 0,23,24
 199 455 199 455 170 439.5 c 128,-1,25
 141 424 141 424 141 391 c 0,26,27
 141 373 141 373 147.5 360.5 c 128,-1,28
 154 348 154 348 167.5 338 c 128,-1,29
 181 328 181 328 201 318.5 c 128,-1,30
 221 309 221 309 249 299 c 0,31,32
 285 285 285 285 314 271.5 c 128,-1,33
 343 258 343 258 364 240 c 128,-1,34
 385 222 385 222 396 196.5 c 128,-1,35
 407 171 407 171 407 134 c 0,36,37
 407 72 407 72 367 36 c 128,-1,38
 327 0 327 0 252 -9 c 1,39,40
 248 -17 248 -17 244.5 -24 c 128,-1,41
 241 -31 241 -31 239 -37 c 1,42,43
 268 -51 268 -51 281 -67.5 c 128,-1,44
 294 -84 294 -84 294 -116 c 0,45,46
 294 -127 294 -127 289 -140 c 128,-1,47
 284 -153 284 -153 272 -164 c 128,-1,48
 260 -175 260 -175 240 -182 c 128,-1,49
 220 -189 220 -189 191 -189 c 0,50,51
 165 -189 165 -189 143.5 -185 c 128,-1,52
 122 -181 122 -181 109 -176 c 1,53,-1
 120 -119 l 1,54,55
 132 -123 132 -123 145.5 -126 c 128,-1,56
 159 -129 159 -129 176 -129 c 0,57,58
 212 -129 212 -129 212 -106 c 0,59,60
 212 -95 212 -95 201 -87.5 c 128,-1,61
 190 -80 190 -80 170 -72 c 2,62,-1
 163 -69 l 1,63,64
 167 -57 167 -57 173.5 -41.5 c 128,-1,65
 180 -26 180 -26 187 -12 c 1,66,67
 124 -10 124 -10 88.5 0.5 c 128,-1,68
 53 11 53 11 40 17 c 1,69,-1
 57 97 l 1,70,71
 73 91 73 91 108 79 c 128,-1,72
 143 67 143 67 201 67 c 0,0,1
EndSplineSet
Substitution2: "'case' Case-Sensitive Forms lookup 19 subtable" Scedilla
EndChar

StartChar: uni0162
Encoding: 354 354 316
Width: 565
Flags: W
LayerCount: 2
Fore
SplineSet
294 -37 m 1,0,1
 323 -51 323 -51 336 -67.5 c 128,-1,2
 349 -84 349 -84 349 -116 c 0,3,4
 349 -127 349 -127 344 -140 c 128,-1,5
 339 -153 339 -153 327 -164 c 128,-1,6
 315 -175 315 -175 295 -182 c 128,-1,7
 275 -189 275 -189 246 -189 c 0,8,9
 220 -189 220 -189 198.5 -185 c 128,-1,10
 177 -181 177 -181 164 -176 c 1,11,-1
 175 -119 l 1,12,13
 187 -123 187 -123 200.5 -126 c 128,-1,14
 214 -129 214 -129 231 -129 c 0,15,16
 267 -129 267 -129 267 -106 c 0,17,18
 267 -95 267 -95 256 -87.5 c 128,-1,19
 245 -80 245 -80 225 -72 c 2,20,-1
 218 -69 l 1,21,22
 222 -55 222 -55 231 -35 c 128,-1,23
 240 -15 240 -15 248 0 c 1,24,-1
 234 0 l 1,25,-1
 234 609 l 1,26,-1
 16 609 l 1,27,-1
 16 693 l 1,28,-1
 549 693 l 1,29,-1
 549 609 l 1,30,-1
 331 609 l 1,31,-1
 331 0 l 1,32,-1
 312 0 l 1,33,34
 307 -10 307 -10 302 -19.5 c 128,-1,35
 297 -29 297 -29 294 -37 c 1,0,1
EndSplineSet
EndChar

StartChar: uni0163
Encoding: 355 355 317
Width: 402
Flags: W
LayerCount: 2
Fore
SplineSet
263 -37 m 1,0,1
 292 -51 292 -51 305 -67.5 c 128,-1,2
 318 -84 318 -84 318 -116 c 0,3,4
 318 -127 318 -127 313 -140 c 128,-1,5
 308 -153 308 -153 296 -164 c 128,-1,6
 284 -175 284 -175 264 -182 c 128,-1,7
 244 -189 244 -189 215 -189 c 0,8,9
 189 -189 189 -189 167.5 -185 c 128,-1,10
 146 -181 146 -181 133 -176 c 1,11,-1
 144 -119 l 1,12,13
 156 -123 156 -123 169.5 -126 c 128,-1,14
 183 -129 183 -129 200 -129 c 0,15,16
 236 -129 236 -129 236 -106 c 0,17,18
 236 -95 236 -95 225 -87.5 c 128,-1,19
 214 -80 214 -80 194 -72 c 2,20,-1
 187 -69 l 1,21,22
 191 -56 191 -56 197.5 -39.5 c 128,-1,23
 204 -23 204 -23 212 -8 c 1,24,25
 172 -3 172 -3 145.5 13 c 128,-1,26
 119 29 119 29 103 55 c 128,-1,27
 87 81 87 81 80.5 117.5 c 128,-1,28
 74 154 74 154 74 201 c 2,29,-1
 74 665 l 1,30,-1
 167 681 l 1,31,-1
 167 520 l 1,32,-1
 364 520 l 1,33,-1
 364 442 l 1,34,-1
 167 442 l 1,35,-1
 167 202 l 2,36,37
 167 163 167 163 173 137.5 c 128,-1,38
 179 112 179 112 191 97.5 c 128,-1,39
 203 83 203 83 221 77 c 128,-1,40
 239 71 239 71 263 71 c 0,41,42
 305 71 305 71 330.5 80.5 c 128,-1,43
 356 90 356 90 366 94 c 1,44,-1
 384 17 l 1,45,46
 371 11 371 11 342.5 1.5 c 128,-1,47
 314 -8 314 -8 276 -10 c 1,48,49
 272 -18 272 -18 268.5 -24.5 c 128,-1,50
 265 -31 265 -31 263 -37 c 1,0,1
EndSplineSet
Substitution2: "'case' Case-Sensitive Forms lookup 19 subtable" uni0162
EndChar

StartChar: Tbar
Encoding: 358 358 320
Width: 565
Flags: W
LayerCount: 2
Fore
SplineSet
549 693 m 1,0,-1
 549 609 l 1,1,-1
 331 609 l 1,2,-1
 331 393 l 1,3,-1
 461 393 l 1,4,-1
 461 318 l 1,5,-1
 331 318 l 1,6,-1
 331 0 l 1,7,-1
 234 0 l 1,8,-1
 234 318 l 1,9,-1
 104 318 l 1,10,-1
 104 393 l 1,11,-1
 234 393 l 1,12,-1
 234 609 l 1,13,-1
 16 609 l 1,14,-1
 16 693 l 1,15,-1
 549 693 l 1,0,-1
EndSplineSet
EndChar

StartChar: tbar
Encoding: 359 359 321
Width: 402
Flags: W
LayerCount: 2
Fore
SplineSet
167 520 m 1,0,-1
 364 520 l 1,1,-1
 364 442 l 1,2,-1
 167 442 l 1,3,-1
 167 306 l 1,4,-1
 364 306 l 1,5,-1
 364 236 l 1,6,-1
 167 236 l 1,7,-1
 167 202 l 2,8,9
 167 163 167 163 173 137.5 c 128,-1,10
 179 112 179 112 191 97.5 c 128,-1,11
 203 83 203 83 221 77 c 128,-1,12
 239 71 239 71 263 71 c 0,13,14
 305 71 305 71 330.5 80.5 c 128,-1,15
 356 90 356 90 366 94 c 1,16,-1
 384 17 l 1,17,18
 370 10 370 10 335 -0.5 c 128,-1,19
 300 -11 300 -11 255 -11 c 0,20,21
 202 -11 202 -11 167.5 2.5 c 128,-1,22
 133 16 133 16 112 43 c 128,-1,23
 91 70 91 70 82.5 109.5 c 128,-1,24
 74 149 74 149 74 201 c 2,25,-1
 74 665 l 1,26,-1
 167 681 l 1,27,-1
 167 520 l 1,0,-1
EndSplineSet
Substitution2: "'case' Case-Sensitive Forms lookup 19 subtable" Tbar
EndChar

StartChar: Uogonek
Encoding: 370 370 332
Width: 688
Flags: W
LayerCount: 2
Fore
SplineSet
344 -15 m 2,0,1
 276 -15 276 -15 226 6 c 128,-1,2
 176 27 176 27 144 63.5 c 128,-1,3
 112 100 112 100 96.5 150 c 128,-1,4
 81 200 81 200 81 258 c 2,5,-1
 81 693 l 1,6,-1
 178 693 l 1,7,-1
 178 269 l 2,8,9
 178 165 178 165 224 118 c 128,-1,10
 270 71 270 71 344 71 c 0,11,12
 381 71 381 71 411.5 82.5 c 128,-1,13
 442 94 442 94 464 118 c 128,-1,14
 486 142 486 142 498 179.5 c 128,-1,15
 510 217 510 217 510 269 c 2,16,-1
 510 693 l 1,17,-1
 607 693 l 1,18,-1
 607 258 l 2,19,20
 607 177 607 177 577.5 114 c 128,-1,21
 548 51 548 51 485 15 c 0,22,23
 462 1 462 1 443.5 -11 c 128,-1,24
 425 -23 425 -23 410 -39 c 0,25,26
 396 -55 396 -55 388.5 -67 c 128,-1,27
 381 -79 381 -79 381 -93 c 0,28,29
 381 -122 381 -122 421 -122 c 0,30,31
 428 -122 428 -122 439.5 -120.5 c 128,-1,32
 451 -119 451 -119 462 -115 c 1,33,-1
 469 -176 l 1,34,35
 458 -181 458 -181 440.5 -184 c 128,-1,36
 423 -187 423 -187 403 -187 c 0,37,38
 347 -187 347 -187 320 -166.5 c 128,-1,39
 293 -146 293 -146 293 -111 c 0,40,41
 293 -83 293 -83 311.5 -57.5 c 128,-1,42
 330 -32 330 -32 349 -15 c 1,43,-1
 344 -15 l 2,0,1
EndSplineSet
EndChar

StartChar: uogonek
Encoding: 371 371 333
Width: 574
Flags: W
LayerCount: 2
Fore
SplineSet
494 12 m 1,0,1
 482 3 482 3 467.5 -10 c 128,-1,2
 453 -23 453 -23 438 -39 c 0,3,4
 424 -55 424 -55 415 -67 c 128,-1,5
 406 -79 406 -79 406 -93 c 0,6,7
 406 -122 406 -122 446 -122 c 0,8,9
 453 -122 453 -122 464.5 -120.5 c 128,-1,10
 476 -119 476 -119 487 -115 c 1,11,-1
 494 -176 l 1,12,13
 483 -181 483 -181 465.5 -184 c 128,-1,14
 448 -187 448 -187 428 -187 c 0,15,16
 372 -187 372 -187 345 -166.5 c 128,-1,17
 318 -146 318 -146 318 -111 c 0,18,19
 318 -88 318 -88 332 -66.5 c 128,-1,20
 346 -45 346 -45 363 -27 c 0,21,22
 368 -21 368 -21 375.5 -15 c 128,-1,23
 383 -9 383 -9 388 -4 c 1,24,25
 365 -7 365 -7 340.5 -9 c 128,-1,26
 316 -11 316 -11 288 -11 c 0,27,28
 228 -11 228 -11 187 6.5 c 128,-1,29
 146 24 146 24 121 56 c 128,-1,30
 96 88 96 88 85 131.5 c 128,-1,31
 74 175 74 175 74 228 c 2,32,-1
 74 520 l 1,33,-1
 167 520 l 1,34,-1
 167 248 l 2,35,36
 167 153 167 153 197 112 c 128,-1,37
 227 71 227 71 298 71 c 0,38,39
 313 71 313 71 329 72 c 128,-1,40
 345 73 345 73 359 74.5 c 128,-1,41
 373 76 373 76 384.5 77.5 c 128,-1,42
 396 79 396 79 401 81 c 1,43,-1
 401 520 l 1,44,-1
 494 520 l 1,45,-1
 494 12 l 1,0,1
EndSplineSet
Substitution2: "'case' Case-Sensitive Forms lookup 19 subtable" Uogonek
EndChar

StartChar: longs
Encoding: 383 383 344
Width: 273
Flags: W
LayerCount: 2
Fore
SplineSet
283 776 m 0,0,1
 324 776 324 776 353.5 770 c 128,-1,2
 383 764 383 764 395 759 c 1,3,-1
 378 679 l 1,4,5
 366 685 366 685 344 690.5 c 128,-1,6
 322 696 322 696 290 696 c 0,7,8
 225 696 225 696 199 660.5 c 128,-1,9
 173 625 173 625 173 565 c 2,10,-1
 173 0 l 1,11,-1
 80 0 l 1,12,-1
 80 567 l 2,13,14
 80 667 80 667 129 721.5 c 128,-1,15
 178 776 178 776 283 776 c 0,0,1
EndSplineSet
Substitution2: "'case' Case-Sensitive Forms lookup 18 subtable" S
EndChar

StartChar: dotlessj
Encoding: 567 567 349
Width: 253
Flags: W
LayerCount: 2
Fore
SplineSet
-5 -185 m 0,0,1
 -17 -185 -17 -185 -36 -182 c 128,-1,2
 -55 -179 -55 -179 -68 -174 c 1,3,-1
 -56 -98 l 1,4,5
 -46 -101 -46 -101 -33 -103 c 128,-1,6
 -20 -105 -20 -105 -9 -105 c 0,7,8
 39 -105 39 -105 59.5 -75.5 c 128,-1,9
 80 -46 80 -46 80 11 c 2,10,-1
 80 520 l 1,11,-1
 173 520 l 1,12,-1
 173 12 l 2,13,14
 173 -88 173 -88 127.5 -136.5 c 128,-1,15
 82 -185 82 -185 -5 -185 c 0,0,1
EndSplineSet
Substitution2: "'case' Case-Sensitive Forms lookup 18 subtable" J
EndChar

StartChar: apostrophe
Encoding: 700 700 350
Width: 376
Flags: W
LayerCount: 2
Fore
SplineSet
246 776 m 1,0,1
 246 765 246 765 246 757.5 c 128,-1,2
 246 750 246 750 245 740 c 0,3,4
 241 689 241 689 224 646.5 c 128,-1,5
 207 604 207 604 183 566 c 1,6,-1
 116 589 l 1,7,8
 135 627 135 627 143.5 663.5 c 128,-1,9
 152 700 152 700 152 738 c 0,10,11
 152 748 152 748 151.5 759 c 128,-1,12
 151 770 151 770 150 776 c 1,13,-1
 246 776 l 1,0,1
EndSplineSet
EndChar

StartChar: caron
Encoding: 711 711 351
Width: 376
Flags: W
LayerCount: 2
Fore
SplineSet
52 729 m 1,0,-1
 91 773 l 1,1,-1
 188 685 l 1,2,-1
 285 773 l 1,3,-1
 324 729 l 1,4,-1
 188 586 l 1,5,-1
 52 729 l 1,0,-1
EndSplineSet
EndChar

StartChar: breve
Encoding: 728 728 353
Width: 376
Flags: W
LayerCount: 2
Fore
SplineSet
191 610 m 256,0,1
 163 610 163 610 138.5 619.5 c 128,-1,2
 114 629 114 629 95.5 646.5 c 128,-1,3
 77 664 77 664 67 690 c 128,-1,4
 57 716 57 716 58 749 c 1,5,-1
 118 749 l 1,6,7
 119 738 119 738 122.5 725 c 128,-1,8
 126 712 126 712 134 701.5 c 128,-1,9
 142 691 142 691 156 684 c 128,-1,10
 170 677 170 677 191 677 c 256,11,12
 212 677 212 677 226 684 c 128,-1,13
 240 691 240 691 248 701.5 c 128,-1,14
 256 712 256 712 259.5 725 c 128,-1,15
 263 738 263 738 264 749 c 1,16,-1
 324 749 l 1,17,18
 325 716 325 716 315 690 c 128,-1,19
 305 664 305 664 286.5 646.5 c 128,-1,20
 268 629 268 629 243.5 619.5 c 128,-1,21
 219 610 219 610 191 610 c 256,0,1
EndSplineSet
EndChar

StartChar: dotaccent
Encoding: 729 729 354
Width: 376
Flags: W
LayerCount: 2
Fore
SplineSet
188 614 m 256,0,1
 163 614 163 614 145.5 630.5 c 128,-1,2
 128 647 128 647 128 675 c 256,3,4
 128 703 128 703 145.5 719.5 c 128,-1,5
 163 736 163 736 188 736 c 256,6,7
 213 736 213 736 230.5 719.5 c 128,-1,8
 248 703 248 703 248 675 c 256,9,10
 248 647 248 647 230.5 630.5 c 128,-1,11
 213 614 213 614 188 614 c 256,0,1
EndSplineSet
EndChar

StartChar: ring
Encoding: 730 730 355
Width: 376
Flags: W
LayerCount: 2
Fore
SplineSet
291 677 m 256,0,1
 291 653 291 653 282.5 634.5 c 128,-1,2
 274 616 274 616 260 602.5 c 128,-1,3
 246 589 246 589 227.5 582 c 128,-1,4
 209 575 209 575 188 575 c 256,5,6
 167 575 167 575 148.5 582 c 128,-1,7
 130 589 130 589 116 602.5 c 128,-1,8
 102 616 102 616 93.5 634.5 c 128,-1,9
 85 653 85 653 85 677 c 256,10,11
 85 701 85 701 93.5 719.5 c 128,-1,12
 102 738 102 738 116 751.5 c 128,-1,13
 130 765 130 765 148.5 772 c 128,-1,14
 167 779 167 779 188 779 c 256,15,16
 209 779 209 779 227.5 772 c 128,-1,17
 246 765 246 765 260 751.5 c 128,-1,18
 274 738 274 738 282.5 719.5 c 128,-1,19
 291 701 291 701 291 677 c 256,0,1
241 677 m 256,20,21
 241 703 241 703 225.5 717.5 c 128,-1,22
 210 732 210 732 188 732 c 256,23,24
 166 732 166 732 150.5 717.5 c 128,-1,25
 135 703 135 703 135 677 c 256,26,27
 135 651 135 651 150.5 636.5 c 128,-1,28
 166 622 166 622 188 622 c 256,29,30
 210 622 210 622 225.5 636.5 c 128,-1,31
 241 651 241 651 241 677 c 256,20,21
EndSplineSet
EndChar

StartChar: ogonek
Encoding: 731 731 356
Width: 376
Flags: W
LayerCount: 2
Fore
SplineSet
181 -187 m 0,0,1
 125 -187 125 -187 98 -166.5 c 128,-1,2
 71 -146 71 -146 71 -111 c 0,3,4
 71 -88 71 -88 84 -66.5 c 128,-1,5
 97 -45 97 -45 114 -27 c 0,6,7
 126 -14 126 -14 135.5 -5.5 c 128,-1,8
 145 3 145 3 153 8 c 1,9,-1
 246 8 l 1,10,11
 235 0 235 0 220.5 -11.5 c 128,-1,12
 206 -23 206 -23 191 -39 c 0,13,14
 177 -55 177 -55 168 -67 c 128,-1,15
 159 -79 159 -79 159 -93 c 0,16,17
 159 -122 159 -122 199 -122 c 0,18,19
 206 -122 206 -122 217.5 -120.5 c 128,-1,20
 229 -119 229 -119 240 -115 c 1,21,-1
 247 -176 l 1,22,23
 236 -181 236 -181 218.5 -184 c 128,-1,24
 201 -187 201 -187 181 -187 c 0,0,1
EndSplineSet
EndChar

StartChar: hungarumlaut
Encoding: 733 733 357
Width: 376
Flags: W
LayerCount: 2
Fore
SplineSet
207 720 m 1,0,-1
 84 580 l 1,1,-1
 36 616 l 1,2,-1
 151 776 l 1,3,-1
 207 720 l 1,0,-1
372 720 m 1,4,-1
 249 580 l 1,5,-1
 201 616 l 1,6,-1
 316 776 l 1,7,-1
 372 720 l 1,4,-1
EndSplineSet
EndChar

StartChar: fraction
Encoding: 8260 8260 366
Width: 148
Flags: W
LayerCount: 2
Fore
SplineSet
311 693 m 1,0,-1
 -80 0 l 1,1,-1
 -167 0 l 1,2,-1
 224 693 l 1,3,-1
 311 693 l 1,0,-1
EndSplineSet
EndChar

StartChar: zerosuperior
Encoding: 8304 8304 367
Width: 359
Flags: W
LayerCount: 2
Fore
SplineSet
29 508 m 256,0,1
 29 605 29 605 69 657 c 128,-1,2
 109 709 109 709 179 709 c 256,3,4
 249 709 249 709 289 657 c 128,-1,5
 329 605 329 605 329 508 c 256,6,7
 329 411 329 411 289 359 c 128,-1,8
 249 307 249 307 179 307 c 256,9,10
 109 307 109 307 69 359 c 128,-1,11
 29 411 29 411 29 508 c 256,0,1
255 508 m 0,12,13
 255 536 255 536 251.5 561.5 c 128,-1,14
 248 587 248 587 239 606 c 128,-1,15
 230 625 230 625 215.5 636 c 128,-1,16
 201 647 201 647 179 647 c 256,17,18
 157 647 157 647 142.5 636 c 128,-1,19
 128 625 128 625 119 606 c 128,-1,20
 110 587 110 587 106 561.5 c 128,-1,21
 102 536 102 536 102 508 c 0,22,23
 102 479 102 479 106 454 c 128,-1,24
 110 429 110 429 119 410 c 128,-1,25
 128 391 128 391 142.5 380 c 128,-1,26
 157 369 157 369 179 369 c 256,27,28
 201 369 201 369 215.5 380 c 128,-1,29
 230 391 230 391 239 410 c 128,-1,30
 248 429 248 429 251.5 454 c 128,-1,31
 255 479 255 479 255 508 c 0,12,13
EndSplineSet
Substitution2: "Single Substitution lookup 26 subtable" zeroinferior
Substitution2: "'sinf' Scientific Inferiors lookup 13 subtable" zero.sinf
Substitution2: "'subs' Subscript lookup 12 subtable" zero.sinf
Substitution2: "'sups' Superscript lookup 11 subtable" zero.sups
Substitution2: "'dnom' Denominators lookup 10 subtable" zeroinferior
EndChar

StartChar: foursuperior
Encoding: 8308 8308 368
Width: 359
Flags: W
LayerCount: 2
Fore
SplineSet
285 701 m 1,0,-1
 285 467 l 1,1,-1
 335 467 l 1,2,-1
 335 408 l 1,3,-1
 285 408 l 1,4,-1
 285 315 l 1,5,-1
 217 315 l 1,6,-1
 217 408 l 1,7,-1
 24 408 l 1,8,-1
 24 454 l 1,9,10
 38 479 38 479 60 511 c 128,-1,11
 82 543 82 543 108 577 c 128,-1,12
 134 611 134 611 163 643.5 c 128,-1,13
 192 676 192 676 221 701 c 1,14,-1
 285 701 l 1,0,-1
217 618 m 1,15,16
 186 586 186 586 154 545.5 c 128,-1,17
 122 505 122 505 99 467 c 1,18,-1
 217 467 l 1,19,-1
 217 618 l 1,15,16
EndSplineSet
Substitution2: "Single Substitution lookup 26 subtable" fourinferior
Substitution2: "'sinf' Scientific Inferiors lookup 13 subtable" four.sinf
Substitution2: "'subs' Subscript lookup 12 subtable" four.sinf
Substitution2: "'sups' Superscript lookup 11 subtable" four.sups
Substitution2: "'dnom' Denominators lookup 10 subtable" fourinferior
EndChar

StartChar: fivesuperior
Encoding: 8309 8309 369
Width: 359
Flags: W
LayerCount: 2
Fore
SplineSet
318 429 m 0,0,1
 318 376 318 376 278 341.5 c 128,-1,2
 238 307 238 307 154 307 c 0,3,4
 122 307 122 307 89.5 314 c 128,-1,5
 57 321 57 321 40 330 c 1,6,-1
 55 390 l 1,7,8
 70 384 70 384 95.5 376.5 c 128,-1,9
 121 369 121 369 152 369 c 0,10,11
 205 369 205 369 225.5 386.5 c 128,-1,12
 246 404 246 404 246 427 c 0,13,14
 246 444 246 444 237.5 458 c 128,-1,15
 229 472 229 472 208.5 481.5 c 128,-1,16
 188 491 188 491 154 496.5 c 128,-1,17
 120 502 120 502 68 502 c 1,18,19
 75 552 75 552 79.5 603 c 128,-1,20
 84 654 84 654 86 701 c 1,21,-1
 302 701 l 1,22,-1
 302 638 l 1,23,-1
 146 638 l 1,24,25
 144 618 144 618 143 598 c 128,-1,26
 142 578 142 578 138 557 c 1,27,28
 232 552 232 552 275 519.5 c 128,-1,29
 318 487 318 487 318 429 c 0,0,1
EndSplineSet
Substitution2: "Single Substitution lookup 26 subtable" fiveinferior
Substitution2: "'sinf' Scientific Inferiors lookup 13 subtable" five.sinf
Substitution2: "'subs' Subscript lookup 12 subtable" five.sinf
Substitution2: "'sups' Superscript lookup 11 subtable" five.sups
Substitution2: "'dnom' Denominators lookup 10 subtable" fiveinferior
EndChar

StartChar: sixsuperior
Encoding: 8310 8310 370
Width: 359
Flags: W
LayerCount: 2
Fore
SplineSet
37 471 m 0,0,1
 37 526 37 526 55 569 c 128,-1,2
 73 612 73 612 107 641.5 c 128,-1,3
 141 671 141 671 188.5 686.5 c 128,-1,4
 236 702 236 702 296 703 c 1,5,-1
 302 642 l 1,6,7
 269 641 269 641 238.5 634.5 c 128,-1,8
 208 628 208 628 183 616 c 128,-1,9
 158 604 158 604 140.5 586 c 128,-1,10
 123 568 123 568 116 545 c 1,11,12
 136 553 136 553 154.5 556 c 128,-1,13
 173 559 173 559 189 559 c 0,14,15
 227 559 227 559 254 549 c 128,-1,16
 281 539 281 539 297.5 521.5 c 128,-1,17
 314 504 314 504 321.5 482 c 128,-1,18
 329 460 329 460 329 436 c 0,19,20
 329 414 329 414 321 391 c 128,-1,21
 313 368 313 368 295.5 349.5 c 128,-1,22
 278 331 278 331 251.5 319 c 128,-1,23
 225 307 225 307 189 307 c 0,24,25
 114 307 114 307 75.5 350.5 c 128,-1,26
 37 394 37 394 37 471 c 0,0,1
183 501 m 0,27,28
 163 501 163 501 143.5 497.5 c 128,-1,29
 124 494 124 494 106 488 c 1,30,31
 104 433 104 433 122 399.5 c 128,-1,32
 140 366 140 366 188 366 c 0,33,34
 207 366 207 366 220 372.5 c 128,-1,35
 233 379 233 379 241 389.5 c 128,-1,36
 249 400 249 400 253 412 c 128,-1,37
 257 424 257 424 257 435 c 0,38,39
 257 467 257 467 239 484 c 128,-1,40
 221 501 221 501 183 501 c 0,27,28
EndSplineSet
Substitution2: "Single Substitution lookup 26 subtable" sixinferior
Substitution2: "'sinf' Scientific Inferiors lookup 13 subtable" six.sinf
Substitution2: "'subs' Subscript lookup 12 subtable" six.sinf
Substitution2: "'sups' Superscript lookup 11 subtable" six.sups
Substitution2: "'dnom' Denominators lookup 10 subtable" sixinferior
EndChar

StartChar: sevensuperior
Encoding: 8311 8311 371
Width: 359
Flags: W
LayerCount: 2
Fore
SplineSet
95 315 m 1,0,1
 99 357 99 357 112 402.5 c 128,-1,2
 125 448 125 448 144.5 491 c 128,-1,3
 164 534 164 534 187.5 571.5 c 128,-1,4
 211 609 211 609 235 636 c 1,5,-1
 37 636 l 1,6,-1
 37 701 l 1,7,-1
 323 701 l 1,8,-1
 323 646 l 1,9,10
 302 625 302 625 277 589.5 c 128,-1,11
 252 554 252 554 229.5 509.5 c 128,-1,12
 207 465 207 465 190 415 c 128,-1,13
 173 365 173 365 169 315 c 1,14,-1
 95 315 l 1,0,1
EndSplineSet
Substitution2: "Single Substitution lookup 26 subtable" seveninferior
Substitution2: "'sinf' Scientific Inferiors lookup 13 subtable" seven.sinf
Substitution2: "'subs' Subscript lookup 12 subtable" seven.sinf
Substitution2: "'sups' Superscript lookup 11 subtable" seven.sups
Substitution2: "'dnom' Denominators lookup 10 subtable" seveninferior
EndChar

StartChar: eightsuperior
Encoding: 8312 8312 372
Width: 359
Flags: W
LayerCount: 2
Fore
SplineSet
326 420 m 1,0,1
 326 370 326 370 288 338.5 c 128,-1,2
 250 307 250 307 178 307 c 0,3,4
 136 307 136 307 108 317.5 c 128,-1,5
 80 328 80 328 63 344 c 128,-1,6
 46 360 46 360 39 379.5 c 128,-1,7
 32 399 32 399 32 417 c 0,8,9
 32 445 32 445 50 469.5 c 128,-1,10
 68 494 68 494 92 509 c 1,11,12
 69 526 69 526 55.5 549.5 c 128,-1,13
 42 573 42 573 42 599 c 0,14,15
 42 621 42 621 51.5 641 c 128,-1,16
 61 661 61 661 79 676 c 128,-1,17
 97 691 97 691 122 700 c 128,-1,18
 147 709 147 709 178 709 c 0,19,20
 214 709 214 709 240 699 c 128,-1,21
 266 689 266 689 282.5 674 c 128,-1,22
 299 659 299 659 306.5 640.5 c 128,-1,23
 314 622 314 622 314 604 c 0,24,25
 314 576 314 576 299.5 553.5 c 128,-1,26
 285 531 285 531 262 515 c 1,27,28
 298 498 298 498 311 475 c 128,-1,29
 324 452 324 452 326 420 c 1,0,1
102 417 m 0,30,31
 102 409 102 409 106 400 c 128,-1,32
 110 391 110 391 119 383.5 c 128,-1,33
 128 376 128 376 142.5 371 c 128,-1,34
 157 366 157 366 178 366 c 0,35,36
 219 366 219 366 236.5 381.5 c 128,-1,37
 254 397 254 397 254 417 c 0,38,39
 254 445 254 445 225.5 460.5 c 128,-1,40
 197 476 197 476 146 488 c 1,41,42
 126 473 126 473 114 456 c 128,-1,43
 102 439 102 439 102 417 c 0,30,31
245 605 m 0,44,45
 245 618 245 618 230 634 c 128,-1,46
 215 650 215 650 178 650 c 256,47,48
 141 650 141 650 126 634 c 128,-1,49
 111 618 111 618 111 603 c 0,50,51
 111 583 111 583 132 564 c 128,-1,52
 153 545 153 545 200 536 c 1,53,54
 220 550 220 550 232.5 566 c 128,-1,55
 245 582 245 582 245 605 c 0,44,45
EndSplineSet
Substitution2: "Single Substitution lookup 26 subtable" eightinferior
Substitution2: "'sinf' Scientific Inferiors lookup 13 subtable" eight.sinf
Substitution2: "'subs' Subscript lookup 12 subtable" eight.sinf
Substitution2: "'sups' Superscript lookup 11 subtable" eight.sups
Substitution2: "'dnom' Denominators lookup 10 subtable" eightinferior
EndChar

StartChar: ninesuperior
Encoding: 8313 8313 373
Width: 359
Flags: W
LayerCount: 2
Fore
SplineSet
323 545 m 0,0,1
 323 433 323 433 254 373 c 128,-1,2
 185 313 185 313 55 313 c 1,3,-1
 53 374 l 1,4,5
 126 376 126 376 178 400 c 128,-1,6
 230 424 230 424 244 471 c 1,7,8
 224 463 224 463 205.5 460 c 128,-1,9
 187 457 187 457 171 457 c 0,10,11
 133 457 133 457 106 467 c 128,-1,12
 79 477 79 477 62.5 494.5 c 128,-1,13
 46 512 46 512 38.5 534 c 128,-1,14
 31 556 31 556 31 580 c 0,15,16
 31 602 31 602 39 624.5 c 128,-1,17
 47 647 47 647 64.5 666 c 128,-1,18
 82 685 82 685 108.5 697 c 128,-1,19
 135 709 135 709 171 709 c 0,20,21
 246 709 246 709 284.5 665.5 c 128,-1,22
 323 622 323 622 323 545 c 0,0,1
177 516 m 0,23,24
 197 516 197 516 216.5 518.5 c 128,-1,25
 236 521 236 521 254 527 c 1,26,27
 256 582 256 582 238 616 c 128,-1,28
 220 650 220 650 172 650 c 0,29,30
 153 650 153 650 140 643.5 c 128,-1,31
 127 637 127 637 118.5 626.5 c 128,-1,32
 110 616 110 616 106.5 604 c 128,-1,33
 103 592 103 592 103 581 c 0,34,35
 103 516 103 516 177 516 c 0,23,24
EndSplineSet
Substitution2: "Single Substitution lookup 26 subtable" nineinferior
Substitution2: "'sinf' Scientific Inferiors lookup 13 subtable" nine.sinf
Substitution2: "'subs' Subscript lookup 12 subtable" nine.sinf
Substitution2: "'sups' Superscript lookup 11 subtable" nine.sups
Substitution2: "'dnom' Denominators lookup 10 subtable" nineinferior
EndChar

StartChar: afii61289
Encoding: 8467 8467 384
Width: 450
Flags: W
LayerCount: 2
Fore
SplineSet
108 255 m 1,0,-1
 108 544 l 2,1,2
 108 613 108 613 121.5 658 c 128,-1,3
 135 703 135 703 158 729 c 128,-1,4
 181 755 181 755 210.5 765.5 c 128,-1,5
 240 776 240 776 273 776 c 0,6,7
 315 776 315 776 341.5 760 c 128,-1,8
 368 744 368 744 383 719.5 c 128,-1,9
 398 695 398 695 403 664.5 c 128,-1,10
 408 634 408 634 408 605 c 0,11,12
 408 552 408 552 393 503.5 c 128,-1,13
 378 455 378 455 351 410.5 c 128,-1,14
 324 366 324 366 285.5 324.5 c 128,-1,15
 247 283 247 283 200 244 c 1,16,-1
 200 200 l 2,17,18
 200 131 200 131 223.5 98.5 c 128,-1,19
 247 66 247 66 298 66 c 0,20,21
 330 66 330 66 351.5 78 c 128,-1,22
 373 90 373 90 390 103 c 1,23,-1
 427 34 l 1,24,25
 402 12 402 12 366 -1.5 c 128,-1,26
 330 -15 330 -15 282 -15 c 0,27,28
 232 -15 232 -15 199 0 c 128,-1,29
 166 15 166 15 145.5 40 c 128,-1,30
 125 65 125 65 116.5 98 c 128,-1,31
 108 131 108 131 108 167 c 2,32,-1
 108 175 l 1,33,-1
 42 128 l 1,34,-1
 6 181 l 1,35,-1
 108 255 l 1,0,-1
200 327 m 1,36,37
 263 385 263 385 299.5 453 c 128,-1,38
 336 521 336 521 336 606 c 0,39,40
 336 623 336 623 334 639.5 c 128,-1,41
 332 656 332 656 325 669.5 c 128,-1,42
 318 683 318 683 306 691.5 c 128,-1,43
 294 700 294 700 275 700 c 0,44,45
 260 700 260 700 246.5 694 c 128,-1,46
 233 688 233 688 222.5 671.5 c 128,-1,47
 212 655 212 655 206 625.5 c 128,-1,48
 200 596 200 596 200 548 c 2,49,-1
 200 327 l 1,36,37
EndSplineSet
EndChar

StartChar: estimated
Encoding: 8494 8494 385
Width: 932
Flags: W
LayerCount: 2
Fore
SplineSet
217 337 m 2,0,1
 212 337 212 337 212 333 c 2,2,-1
 212 136 l 2,3,4
 212 123 212 123 221 114 c 0,5,6
 269 63 269 63 331 35 c 128,-1,7
 393 7 393 7 466 7 c 0,8,9
 545 7 545 7 611 39.5 c 128,-1,10
 677 72 677 72 725 126 c 1,11,-1
 782 126 l 1,12,13
 756 94 756 94 721.5 68.5 c 128,-1,14
 687 43 687 43 646 25 c 128,-1,15
 605 7 605 7 559 -3 c 128,-1,16
 513 -13 513 -13 465 -13 c 0,17,18
 382 -13 382 -13 309 15.5 c 128,-1,19
 236 44 236 44 182 92.5 c 128,-1,20
 128 141 128 141 96.5 206.5 c 128,-1,21
 65 272 65 272 65 347 c 256,22,23
 65 422 65 422 96.5 487.5 c 128,-1,24
 128 553 128 553 182 602 c 128,-1,25
 236 651 236 651 309 679.5 c 128,-1,26
 382 708 382 708 465 708 c 256,27,28
 548 708 548 708 621.5 679.5 c 128,-1,29
 695 651 695 651 749.5 602 c 128,-1,30
 804 553 804 553 835.5 487.5 c 128,-1,31
 867 422 867 422 867 347 c 2,32,-1
 867 337 l 1,33,-1
 217 337 l 2,0,1
719 560 m 2,34,35
 719 573 719 573 710 584 c 1,36,37
 662 632 662 632 600 659 c 128,-1,38
 538 686 538 686 466 686 c 0,39,40
 395 686 395 686 332 657 c 128,-1,41
 269 628 269 628 222 580 c 0,42,43
 217 576 217 576 214.5 569.5 c 128,-1,44
 212 563 212 563 212 556 c 2,45,-1
 212 363 l 2,46,47
 212 356 212 356 217 356 c 2,48,-1
 715 356 l 2,49,50
 719 356 719 356 719 363 c 2,51,-1
 719 560 l 2,34,35
EndSplineSet
EndChar

StartChar: partialdiff
Encoding: 8706 8706 410
Width: 585
Flags: W
LayerCount: 2
Fore
SplineSet
225 694 m 0,0,1
 194 694 194 694 162 688 c 128,-1,2
 130 682 130 682 108 672 c 1,3,-1
 94 751 l 1,4,5
 126 764 126 764 166 770 c 128,-1,6
 206 776 206 776 241 776 c 0,7,8
 328 776 328 776 384.5 744 c 128,-1,9
 441 712 441 712 474 659 c 128,-1,10
 507 606 507 606 520 536 c 128,-1,11
 533 466 533 466 533 391 c 0,12,13
 533 321 533 321 519.5 249 c 128,-1,14
 506 177 506 177 473.5 119 c 128,-1,15
 441 61 441 61 387.5 24 c 128,-1,16
 334 -13 334 -13 255 -13 c 0,17,18
 208 -13 208 -13 169 2 c 128,-1,19
 130 17 130 17 101.5 46 c 128,-1,20
 73 75 73 75 57 117 c 128,-1,21
 41 159 41 159 41 213 c 0,22,23
 41 277 41 277 58.5 330 c 128,-1,24
 76 383 76 383 109 420.5 c 128,-1,25
 142 458 142 458 189.5 478.5 c 128,-1,26
 237 499 237 499 298 499 c 0,27,28
 348 499 348 499 384 482.5 c 128,-1,29
 420 466 420 466 437 452 c 1,30,31
 433 507 433 507 420.5 551.5 c 128,-1,32
 408 596 408 596 383 627.5 c 128,-1,33
 358 659 358 659 319 676.5 c 128,-1,34
 280 694 280 694 225 694 c 0,0,1
303 419 m 0,35,36
 256 419 256 419 224 401.5 c 128,-1,37
 192 384 192 384 172 355.5 c 128,-1,38
 152 327 152 327 143 291 c 128,-1,39
 134 255 134 255 134 217 c 0,40,41
 134 140 134 140 170.5 104.5 c 128,-1,42
 207 69 207 69 262 69 c 0,43,44
 314 69 314 69 347.5 98.5 c 128,-1,45
 381 128 381 128 400.5 172.5 c 128,-1,46
 420 217 420 217 428 269.5 c 128,-1,47
 436 322 436 322 438 367 c 1,48,49
 407 397 407 397 371.5 408 c 128,-1,50
 336 419 336 419 303 419 c 0,35,36
EndSplineSet
EndChar

StartChar: Delta
Encoding: 8710 8710 411
Width: 651
Flags: W
LayerCount: 2
Fore
SplineSet
8 0 m 1,0,1
 42 108 42 108 74.5 199 c 128,-1,2
 107 290 107 290 140 372.5 c 128,-1,3
 173 455 173 455 207.5 533 c 128,-1,4
 242 611 242 611 281 693 c 1,5,-1
 370 693 l 1,6,7
 409 611 409 611 443.5 533 c 128,-1,8
 478 455 478 455 511 372.5 c 128,-1,9
 544 290 544 290 576.5 199 c 128,-1,10
 609 108 609 108 643 0 c 1,11,-1
 8 0 l 1,0,1
323 582 m 1,12,13
 301 537 301 537 251 415.5 c 128,-1,14
 201 294 201 294 131 82 c 1,15,-1
 514 82 l 1,16,17
 444 294 444 294 394 415.5 c 128,-1,18
 344 537 344 537 323 582 c 1,12,13
EndSplineSet
EndChar

StartChar: product
Encoding: 8719 8719 412
Width: 697
Flags: W
LayerCount: 2
Fore
SplineSet
611 693 m 1,0,-1
 611 -109 l 1,1,-1
 514 -109 l 1,2,-1
 514 609 l 1,3,-1
 183 609 l 1,4,-1
 183 -109 l 1,5,-1
 86 -109 l 1,6,-1
 86 693 l 1,7,-1
 611 693 l 1,0,-1
EndSplineSet
EndChar

StartChar: summation
Encoding: 8721 8721 413
Width: 515
Flags: W
LayerCount: 2
Fore
SplineSet
356 304 m 1,0,1
 294 220 294 220 235 137.5 c 128,-1,2
 176 55 176 55 131 -26 c 1,3,-1
 498 -26 l 1,4,-1
 498 -109 l 1,5,-1
 19 -109 l 1,6,-1
 19 -42 l 1,7,8
 59 36 59 36 120.5 125 c 128,-1,9
 182 214 182 214 248 306 c 1,10,11
 217 351 217 351 185 396 c 128,-1,12
 153 441 153 441 123 483.5 c 128,-1,13
 93 526 93 526 67 563.5 c 128,-1,14
 41 601 41 601 23 630 c 1,15,-1
 23 693 l 1,16,-1
 498 693 l 1,17,-1
 498 609 l 1,18,-1
 144 609 l 1,19,20
 159 584 159 584 183 548.5 c 128,-1,21
 207 513 207 513 235.5 472 c 128,-1,22
 264 431 264 431 295.5 387.5 c 128,-1,23
 327 344 327 344 356 304 c 1,0,1
EndSplineSet
EndChar

StartChar: minus
Encoding: 8722 8722 415
Width: 564
Flags: W
LayerCount: 2
Fore
SplineSet
53 334 m 1,0,-1
 511 334 l 1,1,-1
 511 255 l 1,2,-1
 53 255 l 1,3,-1
 53 334 l 1,0,-1
EndSplineSet
EndChar

StartChar: radical
Encoding: 8730 8730 418
Width: 564
Flags: W
LayerCount: 2
Fore
SplineSet
12 346 m 1,0,-1
 174 398 l 1,1,2
 192 359 192 359 208 324.5 c 128,-1,3
 224 290 224 290 239 255 c 128,-1,4
 254 220 254 220 268.5 183 c 128,-1,5
 283 146 283 146 299 102 c 1,6,-1
 494 783 l 1,7,-1
 576 783 l 1,8,-1
 342 -15 l 1,9,-1
 258 -15 l 1,10,11
 226 70 226 70 192 150 c 128,-1,12
 158 230 158 230 122 308 c 1,13,-1
 33 280 l 1,14,-1
 12 346 l 1,0,-1
EndSplineSet
EndChar

StartChar: infinity
Encoding: 8734 8734 419
Width: 588
Flags: W
LayerCount: 2
Fore
SplineSet
173 217 m 0,0,1
 200 217 200 217 222 234.5 c 128,-1,2
 244 252 244 252 264 294 c 1,3,4
 244 336 244 336 222 353.5 c 128,-1,5
 200 371 200 371 173 371 c 0,6,7
 145 371 145 371 123.5 351.5 c 128,-1,8
 102 332 102 332 102 294 c 256,9,10
 102 256 102 256 123.5 236.5 c 128,-1,11
 145 217 145 217 173 217 c 0,0,1
294 229 m 1,12,13
 285 215 285 215 273 201.5 c 128,-1,14
 261 188 261 188 245 177 c 128,-1,15
 229 166 229 166 210 159 c 128,-1,16
 191 152 191 152 169 152 c 0,17,18
 150 152 150 152 126 158.5 c 128,-1,19
 102 165 102 165 80.5 181.5 c 128,-1,20
 59 198 59 198 44.5 225.5 c 128,-1,21
 30 253 30 253 30 294 c 256,22,23
 30 335 30 335 44.5 362.5 c 128,-1,24
 59 390 59 390 80.5 406.5 c 128,-1,25
 102 423 102 423 126 429.5 c 128,-1,26
 150 436 150 436 169 436 c 0,27,28
 191 436 191 436 210 429 c 128,-1,29
 229 422 229 422 245 411 c 128,-1,30
 261 400 261 400 273 386 c 128,-1,31
 285 372 285 372 294 359 c 1,32,33
 303 372 303 372 315 386 c 128,-1,34
 327 400 327 400 343 411 c 128,-1,35
 359 422 359 422 378 429 c 128,-1,36
 397 436 397 436 419 436 c 0,37,38
 438 436 438 436 462 429.5 c 128,-1,39
 486 423 486 423 507.5 406.5 c 128,-1,40
 529 390 529 390 543.5 362.5 c 128,-1,41
 558 335 558 335 558 294 c 256,42,43
 558 253 558 253 543.5 225.5 c 128,-1,44
 529 198 529 198 507.5 181.5 c 128,-1,45
 486 165 486 165 462 158.5 c 128,-1,46
 438 152 438 152 419 152 c 0,47,48
 397 152 397 152 378 159 c 128,-1,49
 359 166 359 166 343 177 c 128,-1,50
 327 188 327 188 315 201.5 c 128,-1,51
 303 215 303 215 294 229 c 1,12,13
415 217 m 0,52,53
 443 217 443 217 464.5 236.5 c 128,-1,54
 486 256 486 256 486 294 c 256,55,56
 486 332 486 332 464.5 351.5 c 128,-1,57
 443 371 443 371 415 371 c 0,58,59
 388 371 388 371 366 353.5 c 128,-1,60
 344 336 344 336 324 294 c 1,61,62
 344 252 344 252 366 234.5 c 128,-1,63
 388 217 388 217 415 217 c 0,52,53
EndSplineSet
EndChar

StartChar: integral
Encoding: 8747 8747 420
Width: 369
Flags: W
LayerCount: 2
Fore
SplineSet
138 567 m 2,0,1
 138 667 138 667 187 721.5 c 128,-1,2
 236 776 236 776 341 776 c 0,3,4
 343 776 343 776 346.5 776 c 128,-1,5
 350 776 350 776 361 775 c 1,6,-1
 361 695 l 1,7,-1
 349 695 l 2,8,9
 286 695 286 695 258.5 660.5 c 128,-1,10
 231 626 231 626 231 569 c 2,11,-1
 231 24 l 2,12,13
 231 -76 231 -76 182 -130.5 c 128,-1,14
 133 -185 133 -185 28 -185 c 0,15,16
 26 -185 26 -185 22.5 -185 c 128,-1,17
 19 -185 19 -185 8 -184 c 1,18,-1
 8 -104 l 1,19,-1
 20 -104 l 2,20,21
 83 -104 83 -104 110.5 -69.5 c 128,-1,22
 138 -35 138 -35 138 22 c 2,23,-1
 138 567 l 2,0,1
EndSplineSet
EndChar

StartChar: notequal
Encoding: 8800 8800 422
Width: 564
Flags: W
LayerCount: 2
Fore
SplineSet
53 226 m 1,0,-1
 206 226 l 1,1,-1
 274 360 l 1,2,-1
 53 360 l 1,3,-1
 53 439 l 1,4,-1
 314 439 l 1,5,-1
 380 570 l 1,6,-1
 446 534 l 1,7,-1
 398 439 l 1,8,-1
 511 439 l 1,9,-1
 511 360 l 1,10,-1
 358 360 l 1,11,-1
 290 226 l 1,12,-1
 511 226 l 1,13,-1
 511 147 l 1,14,-1
 250 147 l 1,15,-1
 184 16 l 1,16,-1
 118 52 l 1,17,-1
 166 147 l 1,18,-1
 53 147 l 1,19,-1
 53 226 l 1,0,-1
EndSplineSet
EndChar

StartChar: lozenge
Encoding: 9674 9674 425
Width: 552
Flags: W
LayerCount: 2
Fore
SplineSet
30 347 m 1,0,1
 65 402 65 402 97 450.5 c 128,-1,2
 129 499 129 499 159 543 c 128,-1,3
 189 587 189 587 218 628.5 c 128,-1,4
 247 670 247 670 276 711 c 1,5,6
 305 670 305 670 334 628.5 c 128,-1,7
 363 587 363 587 393 543 c 128,-1,8
 423 499 423 499 455 450.5 c 128,-1,9
 487 402 487 402 522 347 c 1,10,11
 487 292 487 292 455 243.5 c 128,-1,12
 423 195 423 195 393 151 c 128,-1,13
 363 107 363 107 334 65.5 c 128,-1,14
 305 24 305 24 276 -17 c 1,15,16
 247 24 247 24 218 65.5 c 128,-1,17
 189 107 189 107 159 151 c 128,-1,18
 129 195 129 195 97 243.5 c 128,-1,19
 65 292 65 292 30 347 c 1,0,1
426 347 m 1,20,21
 405 381 405 381 386 411 c 128,-1,22
 367 441 367 441 349 468.5 c 128,-1,23
 331 496 331 496 313 522 c 128,-1,24
 295 548 295 548 276 574 c 1,25,26
 257 548 257 548 239 522 c 128,-1,27
 221 496 221 496 203 468.5 c 128,-1,28
 185 441 185 441 166 411 c 128,-1,29
 147 381 147 381 126 347 c 1,30,31
 168 279 168 279 203 225.5 c 128,-1,32
 238 172 238 172 276 120 c 1,33,34
 314 172 314 172 349 225.5 c 128,-1,35
 384 279 384 279 426 347 c 1,20,21
EndSplineSet
EndChar

StartChar: fi
Encoding: 61441 61441 427
Width: 643
Flags: W
LayerCount: 2
Fore
SplineSet
283 776 m 0,0,1
 318 776 318 776 343 771.5 c 128,-1,2
 368 767 368 767 379 763 c 1,3,-1
 366 683 l 1,4,5
 355 687 355 687 336 691.5 c 128,-1,6
 317 696 317 696 290 696 c 0,7,8
 225 696 225 696 199 660.5 c 128,-1,9
 173 625 173 625 173 565 c 2,10,-1
 173 520 l 1,11,-1
 373 520 l 1,12,-1
 373 442 l 1,13,-1
 173 442 l 1,14,-1
 173 0 l 1,15,-1
 80 0 l 1,16,-1
 80 567 l 2,17,18
 80 667 80 667 129 721.5 c 128,-1,19
 178 776 178 776 283 776 c 0,0,1
563 0 m 1,20,-1
 470 0 l 1,21,-1
 470 520 l 1,22,-1
 563 520 l 1,23,-1
 563 0 l 1,20,-1
516 614 m 256,24,25
 491 614 491 614 473.5 630.5 c 128,-1,26
 456 647 456 647 456 675 c 256,27,28
 456 703 456 703 473.5 719.5 c 128,-1,29
 491 736 491 736 516 736 c 256,30,31
 541 736 541 736 558.5 719.5 c 128,-1,32
 576 703 576 703 576 675 c 256,33,34
 576 647 576 647 558.5 630.5 c 128,-1,35
 541 614 541 614 516 614 c 256,24,25
EndSplineSet
EndChar

StartChar: fl
Encoding: 61442 61442 429
Width: 663
Flags: W
LayerCount: 2
Fore
SplineSet
283 776 m 0,0,1
 318 776 318 776 343 771.5 c 128,-1,2
 368 767 368 767 379 763 c 1,3,-1
 366 683 l 1,4,5
 355 687 355 687 336 691.5 c 128,-1,6
 317 696 317 696 290 696 c 0,7,8
 225 696 225 696 199 660.5 c 128,-1,9
 173 625 173 625 173 565 c 2,10,-1
 173 520 l 1,11,-1
 373 520 l 1,12,-1
 373 442 l 1,13,-1
 173 442 l 1,14,-1
 173 0 l 1,15,-1
 80 0 l 1,16,-1
 80 567 l 2,17,18
 80 667 80 667 129 721.5 c 128,-1,19
 178 776 178 776 283 776 c 0,0,1
626 -10 m 1,20,21
 540 -8 540 -8 504 27 c 128,-1,22
 468 62 468 62 468 136 c 2,23,-1
 468 760 l 1,24,-1
 561 776 l 1,25,-1
 561 151 l 2,26,27
 561 128 561 128 565 113 c 128,-1,28
 569 98 569 98 578 89 c 128,-1,29
 587 80 587 80 602 75.5 c 128,-1,30
 617 71 617 71 639 68 c 1,31,-1
 626 -10 l 1,20,21
EndSplineSet
EndChar

StartChar: caron.alt
Encoding: 65540 -1 463
Width: 376
Flags: W
LayerCount: 2
Fore
SplineSet
239 776 m 1,0,-1
 212 553 l 1,1,-1
 150 553 l 1,2,-1
 150 776 l 1,3,-1
 239 776 l 1,0,-1
EndSplineSet
EndChar

StartChar: commaaccent
Encoding: 65541 -1 464
Width: 249
Flags: W
LayerCount: 2
Fore
SplineSet
85 -50 m 1,0,-1
 174 -50 l 1,1,2
 175 -55 175 -55 175 -61.5 c 128,-1,3
 175 -68 175 -68 175 -71 c 0,4,5
 175 -103 175 -103 165.5 -125 c 128,-1,6
 156 -147 156 -147 140 -161 c 128,-1,7
 124 -175 124 -175 102.5 -181.5 c 128,-1,8
 81 -188 81 -188 57 -188 c 0,9,10
 44 -188 44 -188 33.5 -187 c 128,-1,11
 23 -186 23 -186 20 -184 c 1,12,-1
 20 -128 l 1,13,14
 35 -128 35 -128 47.5 -126 c 128,-1,15
 60 -124 60 -124 68 -117.5 c 128,-1,16
 76 -111 76 -111 80.5 -98 c 128,-1,17
 85 -85 85 -85 85 -63 c 2,18,-1
 85 -50 l 1,0,-1
EndSplineSet
EndChar

StartChar: revcommaaccent
Encoding: 65542 -1 465
Width: 249
Flags: W
LayerCount: 2
Fore
SplineSet
154 609 m 1,0,-1
 65 609 l 1,1,2
 64 614 64 614 64 620.5 c 128,-1,3
 64 627 64 627 64 630 c 0,4,5
 64 666 64 666 74 692.5 c 128,-1,6
 84 719 84 719 100.5 737 c 128,-1,7
 117 755 117 755 137 765.5 c 128,-1,8
 157 776 157 776 177 781 c 1,9,-1
 210 736 l 1,10,11
 198 727 198 727 187.5 718 c 128,-1,12
 177 709 177 709 169.5 696.5 c 128,-1,13
 162 684 162 684 158 666.5 c 128,-1,14
 154 649 154 649 154 622 c 2,15,-1
 154 609 l 1,0,-1
EndSplineSet
EndChar

StartChar: caron.alt.short
Encoding: 65543 -1 466
Width: 376
Flags: W
LayerCount: 2
Fore
SplineSet
232 776 m 1,0,-1
 205 582 l 1,1,-1
 143 582 l 1,2,-1
 143 776 l 1,3,-1
 232 776 l 1,0,-1
EndSplineSet
EndChar

